<?xml version="1.0" standalone="no"?>
<!DOCTYPE svg PUBLIC "-//W3C//DTD SVG 1.1//EN" "http://www.w3.org/Graphics/SVG/1.1/DTD/svg11.dtd" >
<svg>
<metadata>
Created by FontForge 20090914 at Thu Apr  3 11:09:44 2014
 By www-data
eurofurence &#194;&#169; 1995..2000 tobias b k&#195;&#182;hler unci@tigerden.com
</metadata>
<defs>
<font id="Eurofurencebold" horiz-adv-x="1320" >
  <font-face 
    font-family="eurofurence"
    font-weight="700"
    font-stretch="normal"
    units-per-em="2575"
    panose-1="2 15 7 2 2 2 3 2 2 4"
    ascent="2060"
    descent="-515"
    x-height="1220"
    cap-height="1670"
    bbox="-288.001 -453 3125 2125"
    underline-thickness="320"
    underline-position="-65"
    unicode-range="U+0020-U+FB06"
  />
<missing-glyph horiz-adv-x="1288" 
d="M161 0v2125h966v-2125h-966zM322 161h644v1803h-644v-1803z" />
    <glyph glyph-name=".notdef" horiz-adv-x="1288" 
d="M161 0v2125h966v-2125h-966zM322 161h644v1803h-644v-1803z" />
    <glyph glyph-name="space" unicode=" " horiz-adv-x="560" 
 />
    <glyph glyph-name="exclam" unicode="!" horiz-adv-x="620" 
d="M470 655c0 -46.667 -15 -85 -45 -115s-68.333 -45 -115 -45s-85 15 -115 45s-45 68.333 -45 115v855c0 46.667 15 85 45 115s68.333 45 115 45s85 -15 115 -45s45 -68.333 45 -115v-855zM509 199c0 -55.333 -19.333 -102.333 -58 -141s-85.667 -58 -141 -58
s-102.333 19.333 -141 58s-58 85.667 -58 141c0 54.667 19.333 101 58 139s85.667 57 141 57s102.333 -19 141 -57s58 -84.333 58 -139z" />
    <glyph glyph-name="quotedbl" unicode="&#x22;" horiz-adv-x="1049" 
d="M999 1516c0 -20 -4.66699 -41.667 -14 -65l-150 -375c-27.333 -68 -75 -102 -143 -102c-44 0 -82.833 14.833 -116.5 44.5s-50.5 66.5 -50.5 110.5c0 22 4.33301 43.667 13 65l150 375c27.333 68 75.333 102 144 102c44 0 82.833 -14.833 116.5 -44.5
s50.5 -66.5 50.5 -110.5zM524 1516c0 -20 -4.66699 -41.667 -14 -65l-150 -375c-27.333 -68 -75 -102 -143 -102c-44 0 -82.833 14.833 -116.5 44.5s-50.5 66.5 -50.5 110.5c0 22 4.33301 43.667 13 65l150 375c27.333 68 75.333 102 144 102
c44 0 82.833 -14.833 116.5 -44.5s50.5 -66.5 50.5 -110.5z" />
    <glyph glyph-name="numbersign" unicode="#" horiz-adv-x="1770" 
d="M1720 610c0 -46.667 -15 -85 -45 -115s-68.333 -45 -115 -45h-290v-290c0 -46.667 -15 -85 -45 -115s-68.333 -45 -115 -45s-85 15 -115 45s-45 68.333 -45 115v290h-130v-290c0 -46.667 -15 -85 -45 -115s-68.333 -45 -115 -45s-85 15 -115 45s-45 68.333 -45 115v290
h-290c-46.667 0 -85 15 -115 45s-45 68.333 -45 115s15 85 45 115s68.333 45 115 45h290v130h-290c-46.667 0 -85 15 -115 45s-45 68.333 -45 115s15 85 45 115s68.333 45 115 45h290v290c0 46.667 15 85 45 115s68.333 45 115 45s85 -15 115 -45s45 -68.333 45 -115v-290
h130v290c0 46.667 15 85 45 115s68.333 45 115 45s85 -15 115 -45s45 -68.333 45 -115v-290h290c46.667 0 85 -15 115 -45s45 -68.333 45 -115s-15 -85 -45 -115s-68.333 -45 -115 -45h-290v-130h290c46.667 0 85 -15 115 -45s45 -68.333 45 -115zM950 770v130h-130v-130
h130z" />
    <glyph glyph-name="dollar" unicode="$" horiz-adv-x="1123" 
d="M1073 535c0 -125.333 -38.6689 -236.667 -116.002 -334s-177 -159.666 -299 -186.999v-154c0 -80 -40 -120 -120 -120s-120 40 -120 120v154c-160.667 38 -275.334 122.667 -344.001 254c-16 30.667 -24 58.667 -24 84c0 44 17 81.333 51 112s73 46 117 46
c42.667 0 80.334 -18.667 113.001 -56c54.667 -63.333 83.667 -96 87 -98v410c-100.667 26.667 -182.5 81.167 -245.5 163.5s-94.5 175.833 -94.5 280.5s31.5 198.167 94.5 280.5s144.833 136.833 245.5 163.5v156c0 80 40 120 120 120s120 -40 120 -120v-156
c68 -18.667 133 -55 195 -109c71.333 -62.667 107 -125.334 107 -188.001c0 -43.333 -17 -80.5 -51 -111.5s-73 -46.5 -117 -46.5c-41.333 0 -84.166 25.167 -128.499 75.5s-86.166 75.5 -125.499 75.5c-38.667 0 -71.667 -13.667 -99 -41s-41 -60.333 -41 -99
s13.667 -71.667 41 -99s60.333 -41 99 -41c148.667 0 275 -52 379 -156s156 -230.333 156 -379zM752.998 534.999c0 76 -31.667 135.333 -95 178v-356c63.333 42.667 95 102 95 178z" />
    <glyph glyph-name="percent" unicode="%" horiz-adv-x="1776" 
d="M1726 1509c0 -41.333 -16.667 -78.666 -50 -111.999l-482 -482c22.667 3.33301 45.667 5 69 5c127.333 0 235.833 -44.833 325.5 -134.5s134.5 -198.167 134.5 -325.5s-44.833 -235.833 -134.5 -325.5s-198.167 -134.5 -325.5 -134.5s-235.833 44.833 -325.5 134.5
s-134.5 198.167 -134.5 325.5c0 23.333 1.66699 46.333 5 69l-482 -482c-33.333 -33.333 -70.666 -50 -111.999 -50c-43.333 0 -81.5 16.5 -114.5 49.5s-49.5 71.167 -49.5 114.5c0 41.333 16.667 78.666 50 111.999l482 482c-22.667 -3.33301 -45.667 -5 -69 -5
c-127.333 0 -235.833 44.833 -325.5 134.5s-134.5 198.167 -134.5 325.5s44.833 235.833 134.5 325.5s198.167 134.5 325.5 134.5s235.833 -44.833 325.5 -134.5s134.5 -198.167 134.5 -325.5c0 -23.333 -1.66699 -46.333 -5 -69l482 482c33.333 33.333 70.333 50 111 50
c43.333 0 81.666 -16.5 114.999 -49.5s50 -71.167 50 -114.5zM653 1210c0 38.667 -13.667 71.667 -41 99s-60.333 41 -99 41s-71.667 -13.667 -99 -41s-41 -60.333 -41 -99s13.667 -71.667 41 -99s60.333 -41 99 -41s71.667 13.667 99 41s41 60.333 41 99zM1403 460
c0 38.667 -13.667 71.667 -41 99s-60.333 41 -99 41s-71.667 -13.667 -99 -41s-41 -60.333 -41 -99s13.667 -71.667 41 -99s60.333 -41 99 -41s71.667 13.667 99 41s41 60.333 41 99z" />
    <glyph glyph-name="ampersand" unicode="&#x26;" horiz-adv-x="1423" 
d="M1373 161c0 -43.333 -16.5 -81.501 -49.5 -114.501s-71.167 -49.5 -114.5 -49.5c-41.333 0 -78.666 16.667 -111.999 50l-122 122c-106 -112.667 -236 -169 -390 -169c-148.667 0 -275 52 -379 156s-156 230.333 -156 379c0 155.333 57 286 171 392
c-64 82.667 -96 177 -96 283c0 127.333 44.833 235.833 134.5 325.5s198.167 134.5 325.5 134.5s235.833 -44.833 325.5 -134.5s134.5 -198.167 134.5 -325.5c0 -86 -22.333 -165.833 -67 -239.5s-105.334 -130.167 -182.001 -169.5l527 -528
c33.333 -33.333 50 -70.666 50 -111.999zM725 1210c0 38 -13.833 70.833 -41.5 98.5s-60.5 41.5 -98.5 41.5s-70.833 -13.833 -98.5 -41.5s-41.5 -60.5 -41.5 -98.5c0 -40 28.333 -87.667 85 -143c18 2 36.333 3 55 3c38 0 70.833 13.833 98.5 41.5s41.5 60.5 41.5 98.5z
M748 395.999l-301.999 303c-50.667 -43.333 -76 -98 -76 -164c0 -60 20.833 -110.833 62.5 -152.5s92.5 -62.5 152.5 -62.5c67.333 0 121.666 25.333 162.999 76z" />
    <glyph glyph-name="quotesingle" unicode="'" horiz-adv-x="574" 
d="M524 1516c0 -20 -4.66699 -41.667 -14 -65l-150 -375c-27.333 -68 -75 -102 -143 -102c-44 0 -82.833 14.833 -116.5 44.5s-50.5 66.5 -50.5 110.5c0 22 4.33301 43.667 13 65l150 375c27.333 68 75.333 102 144 102c44 0 82.833 -14.833 116.5 -44.5
s50.5 -66.5 50.5 -110.5z" />
    <glyph glyph-name="parenleft" unicode="(" horiz-adv-x="663" 
d="M613 1513c0 -26.667 -12.001 -63.002 -36.001 -109.002l-57 -108c-100 -212 -150 -440.667 -150 -686s50 -474 150 -686l56 -106c24.667 -46.667 37 -83.667 37 -111c0 -44 -17 -81.333 -51 -112s-73 -46 -117 -46c-50.667 0 -94.667 26.333 -132 79
c-15.333 21.333 -40.666 70 -75.999 146c-124.667 266.667 -187 545.334 -187 836.001s62.333 569.334 187 836.001c36 77.333 61.333 126 76 146c38 52.667 82 79 132 79c44 0 83 -15.333 117 -46s51 -68 51 -112z" />
    <glyph glyph-name="parenright" unicode=")" horiz-adv-x="663" 
d="M613 610c0 -290.667 -62.333 -569.334 -187 -836.001c-36 -76.667 -61.333 -125.334 -76 -146.001c-38 -52.667 -82 -79 -132 -79c-44 0 -83 15.333 -117 46s-51 68 -51 112c0 26.667 12 63.334 36 110.001c13.333 23.333 32.333 59 57 107
c100 210.667 150 439.334 150 686.001s-50 475.334 -150 686.001l-56 106.5c-24.667 47 -37 83.833 -37 110.5c0 44 17 81.333 51 112s73 46 117 46c50 0 94 -26.333 132 -79c14.667 -20 40 -68.667 76 -146c124.667 -266.667 187 -545.334 187 -836.001z" />
    <glyph glyph-name="asterisk" unicode="*" 
d="M1270 1060c0 -40.667 -11.667 -77.334 -35 -110.001c-25.333 -36 -57.666 -54 -96.999 -54c-10 0 -72.667 14.667 -188 44l141 -85c33.333 -20 50 -57.333 50 -112c0 -44 -16.333 -82.333 -49 -115s-71 -49 -115 -49c-49.333 0 -90 21 -122 63l-75 128
c29.333 -115.333 44 -178 44 -188c0 -39.333 -18 -71.666 -54 -96.999c-32.667 -23.333 -69.334 -35 -110.001 -35s-77.334 11.667 -110.001 35c-36 25.333 -54 57.666 -54 96.999c0 10 14.667 72.667 44 188l-85 -141c-20 -33.333 -57.333 -50 -112 -50
c-44 0 -82.333 16.333 -115 49s-49 71 -49 115c0 49.333 21 90 63 122l128 75c-115.333 -29.333 -178 -44 -188 -44c-39.333 0 -71.666 18 -96.999 54c-23.333 32.667 -35 69.334 -35 110.001s11.667 77.334 35 110.001c25.333 36 57.666 54 96.999 54
c10 0 72.667 -14.667 188 -44l-141 85c-33.333 20 -50 57.333 -50 112c0 44 16.333 82.333 49 115s71 49 115 49c54.667 0 92 -16.667 112 -50l85 -141c-29.333 115.333 -44 178 -44 188c0 39.333 18 71.666 54 96.999c32.667 23.333 69.334 35 110.001 35
s77.334 -11.667 110.001 -35c36 -25.333 54 -57.666 54 -96.999c0 -10 -14.667 -72.667 -44 -188l85 141c20 33.333 57.333 50 112 50c44 0 82.333 -16.333 115 -49s49 -71 49 -115c0 -54.667 -16.667 -92 -50 -112l-141 -85c115.333 29.333 178 44 188 44
c39.333 0 71.666 -18 96.999 -54c23.333 -32.667 35 -69.334 35 -110.001z" />
    <glyph glyph-name="plus" unicode="+" 
d="M1270 722c0 -46.667 -15 -85 -45 -115s-68.333 -45 -115 -45h-290v-290c0 -46.667 -15 -84.834 -45 -114.501s-68.333 -44.5 -115 -44.5s-85 14.833 -115 44.5s-45 67.834 -45 114.501v290h-290c-46.667 0 -85 15 -115 45s-45 68.333 -45 115
c0 47.333 14.833 85.833 44.5 115.5s68.167 44.5 115.5 44.5h290v290c0 47.333 14.833 85.833 44.5 115.5s68.167 44.5 115.5 44.5s85.833 -14.833 115.5 -44.5s44.5 -68.167 44.5 -115.5v-290h290c47.333 0 85.833 -14.833 115.5 -44.5s44.5 -68.167 44.5 -115.5z" />
    <glyph glyph-name="comma" unicode="," horiz-adv-x="555" 
d="M505 160c0 -175.333 -59.668 -319.332 -179.001 -431.999c-35.333 -33.333 -72.666 -50 -111.999 -50c-43.333 0 -81.5 16.5 -114.5 49.5s-49.5 71.167 -49.5 114.5c0 25.333 22.5 70.166 67.5 134.499s67.5 125.5 67.5 183.5c0 46.667 15 85 45 115s68.333 45 115 45
c47.333 0 85.833 -14.833 115.5 -44.5s44.5 -68.167 44.5 -115.5z" />
    <glyph glyph-name="hyphen" unicode="-" horiz-adv-x="870" 
d="M820 610c0 -46.667 -15 -85 -45 -115s-68.333 -45 -115 -45h-450c-46.667 0 -85 15 -115 45s-45 68.333 -45 115s15 85 45 115s68.333 45 115 45h450c46.667 0 85 -15 115 -45s45 -68.333 45 -115z" />
    <glyph glyph-name="hyphen" unicode="&#x2010;" horiz-adv-x="870" 
d="M820 610c0 -46.667 -15 -85 -45 -115s-68.333 -45 -115 -45h-450c-46.667 0 -85 15 -115 45s-45 68.333 -45 115s15 85 45 115s68.333 45 115 45h450c46.667 0 85 -15 115 -45s45 -68.333 45 -115z" />
    <glyph glyph-name="period" unicode="." horiz-adv-x="498" 
d="M448 199c0 -55.333 -19.333 -102.333 -58 -141s-85.667 -58 -141 -58s-102.333 19.333 -141 58s-58 85.667 -58 141c0 54.667 19.333 101 58 139s85.667 57 141 57s102.333 -19 141 -57s58 -84.333 58 -139z" />
    <glyph glyph-name="slash" unicode="/" horiz-adv-x="1325" 
d="M1275 1515c0 -24.667 -6.66699 -50.333 -20 -77l-900 -1801c-30 -60 -75.667 -90 -137 -90c-44 0 -83 15.167 -117 45.5s-51 67.5 -51 111.5c0 26 6.33301 51.667 19 77l900 1801c30 60 76 90 138 90c44 0 83 -15.167 117 -45.5s51 -67.5 51 -111.5z" />
    <glyph glyph-name="zero" unicode="0" 
d="M1270 722c0 -186 -54 -349.667 -162 -491c-118 -154 -267.333 -231 -448 -231s-330 77 -448 231c-108 141.333 -162 305 -162 491c0 186.667 54 350.667 162 492c118 154 267.333 231 448 231s330 -77 448 -231c108 -141.333 162 -305.333 162 -492zM950 722
c0 178.667 -61.335 303 -184.002 373c-35.333 20 -70.666 30 -105.999 30s-70.666 -10 -105.999 -30c-122.667 -70 -184 -194.333 -184 -373c0 -166 55.333 -286.333 166 -361c40.667 -27.333 82 -41 124 -41s83.333 13.667 124 41c110.667 74.667 166 195 166 361z
M779.998 722c0 -32.667 -11.8291 -60.834 -35.4961 -84.501s-51.834 -35.5 -84.501 -35.5s-60.834 11.833 -84.501 35.5s-35.5 51.834 -35.5 84.501c0 33.333 11.667 61.666 35 84.999s51.666 35 84.999 35s61.666 -11.667 84.999 -35s35 -51.666 35 -84.999z" />
    <glyph glyph-name="one" unicode="1" 
d="M1146 160c0 -46.667 -15 -85 -45 -115s-68.333 -45 -115 -45h-550c-46.667 0 -85 15 -115 45s-45 68.333 -45 115s15 85 45 115s68.333 45 115 45h115v579l-75 -75c-51.333 -51.333 -97.333 -77 -138 -77c-43.333 0 -81.5 16.5 -114.5 49.5s-49.5 71.167 -49.5 114.5
c0 42 16.333 79.333 49 112l355 355c46.667 46.667 90.667 70 132 70c77.333 0 128 -35.333 152 -106c6 -17.333 9 -46 9 -86v-936h115c46.667 0 85 -15 115 -45s45 -68.333 45 -115z" />
    <glyph glyph-name="two" unicode="2" 
d="M1207 910c0 -140 -44 -257.333 -132 -352c-21.333 -22.667 -122 -102 -302 -238h274c46.667 0 85 -15 115 -45s45 -68.333 45 -115s-15 -85 -45 -115s-68.333 -45 -115 -45h-750c-48.667 0 -90 11 -124 33c-40 25.333 -60 61 -60 107c0 52.667 29 102 87 148l171 91
c344 191.333 516 368.333 516 531c0 60 -20.833 110.833 -62.5 152.5s-92.5 62.5 -152.5 62.5s-110.833 -20.833 -152.5 -62.5s-62.5 -92.5 -62.5 -152.5c0 -46.667 -15 -85 -45 -115s-68.333 -45 -115 -45s-85 15 -115 45s-45 68.333 -45 115c0 148.667 52 275 156 379
s230.333 156 379 156s275 -52 379 -156s156 -230.333 156 -379z" />
    <glyph glyph-name="three" unicode="3" 
d="M1217 1308c0 -49.333 -24.3301 -96.333 -72.9971 -141l-312 -286c110 -42.667 198 -112.834 264 -210.501s99 -205.5 99 -323.5c0 -158.667 -55.667 -293.667 -167 -405s-246.333 -167 -405 -167c-100.667 0 -196.334 25.667 -287.001 77
c-92.667 52.667 -162.334 122.334 -209.001 209.001c-16 30 -24 58 -24 84c0 44 17 81.333 51 112s73 46 117 46c37.333 0 87.5 -34.667 150.5 -104s130.167 -104 201.5 -104c70 0 129.5 24.5 178.5 73.5s73.5 108.5 73.5 178.5s-24.5 129.667 -73.5 179
s-108.5 74 -178.5 74c-50 0 -104.833 -21.167 -164.5 -63.5s-104.5 -63.5 -134.5 -63.5c-42.667 0 -79.834 16 -111.501 48s-47.5 69.667 -47.5 113c0 46.667 19.667 88 59 124l400 367h-359c-46.667 0 -84.834 15 -114.501 45s-44.5 68.333 -44.5 115s14.833 85 44.5 115
s67.834 45 114.501 45h770c48 0 89 -10.667 123 -32c39.333 -24.667 59 -59.667 59 -105z" />
    <glyph glyph-name="four" unicode="4" 
d="M1271 385c0 -46.667 -14.999 -85 -44.999 -115s-68.333 -45 -115 -45h-140v-290c0 -46.667 -15 -85 -45 -115s-68.333 -45 -115 -45s-85 15 -115 45s-45 68.333 -45 115v290h-409c-35.333 0 -60 1.66699 -74 5c-34 8 -62.333 26.667 -85 56s-34 61.333 -34 96
c0 32 15.333 71 46 117l570 855c41.333 62 88.666 93 141.999 93c72.667 0 122.667 -30.333 150 -91c9.33301 -20.667 14 -52.667 14 -96v-715h140c46.667 0 85 -15 115 -45s45 -68.333 45 -115zM651.001 545v212l-141 -212h141z" />
    <glyph glyph-name="five" unicode="5" 
d="M1241 385c0 -169.333 -59.332 -313.333 -177.999 -432s-262.667 -178 -432 -178c-106.667 0 -208.667 27.333 -306 82c-100.667 56.667 -174.667 131 -222 223c-16 31.333 -24 59.333 -24 84c0 43.333 16.833 80.5 50.5 111.5s72.5 46.5 116.5 46.5
c42 0 80.333 -19.667 115 -59l97 -109c46.667 -39.333 104.334 -59 173.001 -59c80.667 0 149.167 28.167 205.5 84.5s84.5 124.833 84.5 205.5s-28.167 149.167 -84.5 205.5s-124.833 84.5 -205.5 84.5c-68.667 0 -126.334 -19.667 -173.001 -59l-94 -106
c-42 -41.333 -81.333 -62 -118 -62c-44.667 0 -83.667 15.333 -117 46s-50 68 -50 112l108 696c14.667 95.333 66.667 143 156 143h738c46.667 0 85 -15 115 -45s45 -68.333 45 -115s-15 -85 -45 -115s-68.333 -45 -115 -45h-598l-24 -156
c57.333 17.333 114.666 26 171.999 26c169.333 0 313.333 -59.333 432 -178s178 -262.667 178 -432z" />
    <glyph glyph-name="six" unicode="6" 
d="M1270 1510c0 -46.667 -15 -85.001 -45 -115.001s-68.333 -45 -115 -45c-154 0 -294 -43.667 -420 -131c163.333 -8 300.833 -70.667 412.5 -188s167.5 -257.666 167.5 -420.999c0 -169.333 -59.333 -313.333 -178 -432s-262.667 -178 -432 -178
c-170 0 -314.167 59.167 -432.5 177.5s-177.5 262.5 -177.5 432.5c0 294 103.167 544.167 309.5 750.5s456.5 309.5 750.5 309.5c46.667 0 85 -15 115 -45s45 -68.333 45 -115zM950 609.999c0 80.667 -28.167 149.167 -84.5 205.5s-124.833 84.5 -205.5 84.5
s-149.167 -28.167 -205.5 -84.5s-84.5 -124.833 -84.5 -205.5s28.167 -149.167 84.5 -205.5s124.833 -84.5 205.5 -84.5s149.167 28.167 205.5 84.5s84.5 124.833 84.5 205.5z" />
    <glyph glyph-name="seven" unicode="7" 
d="M1271 1289c0 -27.333 -11.667 -62.668 -35 -106.001l-711 -1324c-30.667 -57.333 -76 -86 -136 -86c-44 0 -83 15.5 -117 46.5s-51 68.167 -51 111.5c0 26 7.33301 52.667 22 80l598 1114h-632c-46.667 0 -85 15 -115 45s-45 68.333 -45 115s15 85 45 115
s68.333 45 115 45h895c46 0 85.333 -14.667 118 -44s49 -66.666 49 -111.999z" />
    <glyph glyph-name="eight" unicode="8" 
d="M1195 535c0 -148.667 -52 -275 -156 -379s-230.333 -156 -379 -156s-275 52 -379 156s-156 230.333 -156 379c0 156 57.333 287 172 393c-64.667 82.667 -97 176.667 -97 282c0 127.333 44.833 235.833 134.5 325.5s198.167 134.5 325.5 134.5
s235.833 -44.833 325.5 -134.5s134.5 -198.167 134.5 -325.5c0 -105.333 -32.333 -199.333 -97 -282c114.667 -106 172 -237 172 -393zM800 1210c0 38.667 -13.667 71.667 -41 99s-60.333 41 -99 41s-71.667 -13.667 -99 -41s-41 -60.333 -41 -99s13.667 -71.667 41 -99
s60.333 -41 99 -41s71.667 13.667 99 41s41 60.333 41 99zM875 535c0 60 -20.833 110.833 -62.5 152.5s-92.5 62.5 -152.5 62.5s-110.833 -20.833 -152.5 -62.5s-62.5 -92.5 -62.5 -152.5s20.833 -110.833 62.5 -152.5s92.5 -62.5 152.5 -62.5s110.833 20.833 152.5 62.5
s62.5 92.5 62.5 152.5z" />
    <glyph glyph-name="nine" unicode="9" 
d="M1270 835c0 -294.667 -103 -544.999 -309 -750.999s-456.333 -309 -751 -309c-46.667 0 -85 15 -115 45s-45 68.333 -45 115s15 85 45 115s68.333 45 115 45c154 0 294 43.667 420 131c-163.333 8 -300.833 70.667 -412.5 188s-167.5 257.666 -167.5 420.999
c0 169.333 59.333 313.333 178 432s262.667 178 432 178s313.333 -59.333 432 -178s178 -262.667 178 -432zM950 835.001c0 80.667 -28.167 149.167 -84.5 205.5s-124.833 84.5 -205.5 84.5s-149.167 -28.167 -205.5 -84.5s-84.5 -124.833 -84.5 -205.5
s28.167 -149.167 84.5 -205.5s124.833 -84.5 205.5 -84.5s149.167 28.167 205.5 84.5s84.5 124.833 84.5 205.5z" />
    <glyph glyph-name="colon" unicode=":" horiz-adv-x="498" 
d="M448 1024c0 -55.333 -19.333 -102.333 -58 -141s-85.667 -58 -141 -58s-102.333 19.333 -141 58s-58 85.667 -58 141c0 54.667 19.333 101 58 139s85.667 57 141 57s102.333 -19 141 -57s58 -84.333 58 -139zM448 199c0 -55.333 -19.333 -102.333 -58 -141
s-85.667 -58 -141 -58s-102.333 19.333 -141 58s-58 85.667 -58 141c0 54.667 19.333 101 58 139s85.667 57 141 57s102.333 -19 141 -57s58 -84.333 58 -139z" />
    <glyph glyph-name="semicolon" unicode=";" horiz-adv-x="594" 
d="M544 1024c0 -55.333 -19.333 -102.333 -58 -141s-85.667 -58 -141 -58s-102.333 19.333 -141 58s-58 85.667 -58 141c0 54.667 19.333 101 58 139s85.667 57 141 57s102.333 -18.833 141 -56.5s58 -84.167 58 -139.5zM505 160
c0 -175.333 -59.668 -319.332 -179.001 -431.999c-35.333 -33.333 -72.666 -50 -111.999 -50c-43.333 0 -81.5 16.5 -114.5 49.5s-49.5 71.167 -49.5 114.5c0 25.333 22.5 70.166 67.5 134.499s67.5 125.5 67.5 183.5c0 46.667 15 85 45 115s68.333 45 115 45
c47.333 0 85.833 -14.833 115.5 -44.5s44.5 -68.167 44.5 -115.5z" />
    <glyph glyph-name="less" unicode="&#x3c;" 
d="M1272 278c0 -44 -15.167 -82.999 -45.5 -116.999s-67.5 -51 -111.5 -51c-26 0 -51.667 6.33301 -77 19l-872 437c-78.667 39.333 -118 91.333 -118 156c0 65.333 39.333 117.666 118 156.999l872 437c25.333 12.667 51 19 77 19c44 0 81.167 -17 111.5 -51
s45.5 -73 45.5 -117c0 -62 -30 -108 -90 -138l-614 -307l614 -306c60 -30 90 -76 90 -138z" />
    <glyph glyph-name="equal" unicode="=" 
d="M1270 932c0 -46.667 -15 -85 -45 -115s-68.333 -45 -115 -45h-900c-46.667 0 -85 15 -115 45s-45 68.333 -45 115c0 47.333 14.833 85.833 44.5 115.5s68.167 44.5 115.5 44.5h900c47.333 0 85.833 -14.833 115.5 -44.5s44.5 -68.167 44.5 -115.5zM1270 512
c0 -46.667 -15 -85 -45 -115s-68.333 -45 -115 -45h-900c-46.667 0 -85 15 -115 45s-45 68.333 -45 115c0 47.333 14.833 85.833 44.5 115.5s68.167 44.5 115.5 44.5h900c47.333 0 85.833 -14.833 115.5 -44.5s44.5 -68.167 44.5 -115.5z" />
    <glyph glyph-name="greater" unicode="&#x3e;" 
d="M1272 717c0 -61.333 -39.333 -111.667 -118 -151l-872 -437c-25.333 -12.667 -51 -19 -77 -19c-44 0 -81.167 17 -111.5 51s-45.5 73 -45.5 117c0 62 30 108 90 138l614 306l-614 307c-60 30 -90 76 -90 138c0 44 15.167 83 45.5 117s67.5 51 111.5 51
c26 0 51.667 -6.33301 77 -19l872 -437c78.667 -39.333 118 -93.333 118 -162z" />
    <glyph glyph-name="question" unicode="?" horiz-adv-x="1020" 
d="M970 1240c0 -127.333 -45.332 -231.667 -135.999 -313c-86.667 -78 -194.334 -117 -323.001 -117c-19.333 0 -29 -9.33301 -29 -28c0 -15.333 14 -23 42 -23c17.333 9.33301 45.333 14 84 14c43.333 0 80.5 -15.5 111.5 -46.5s46.5 -68.167 46.5 -111.5
c0 -57.333 -29.333 -103 -88 -137c-50 -28.667 -106 -43 -168 -43c-96 0 -177.833 33.833 -245.5 101.5s-101.5 149.5 -101.5 245.5s33.667 178 101 246s148.5 102 243.5 102s142.5 36.667 142.5 110s-46.667 110 -140 110s-140 -36.667 -140 -110
c0 -86.667 -53.333 -130 -160 -130s-160 43.333 -160 130c0 126.667 45.333 230.667 136 312c88 78.667 196 118 324 118s236 -39.333 324 -118c90.667 -81.333 136 -185.333 136 -312zM709.001 188.999c0 -54.667 -19.333 -99.834 -58 -135.501s-85.667 -53.5 -141 -53.5
s-102.333 17.833 -141 53.5s-58 80.834 -58 135.501s19.333 99.334 58 134.001s85.667 52 141 52s102.333 -17.333 141 -52s58 -79.334 58 -134.001z" />
    <glyph glyph-name="at" unicode="@" horiz-adv-x="1645" 
d="M1595 1030c0 -183.333 -64.001 -337.501 -192.001 -462.501s-284 -187.5 -468 -187.5c-135.333 0 -249.333 41.667 -342 125c-95.333 86 -143 196 -143 330c0 133.333 48 243.333 144 330c92.667 83.333 206.334 125 341.001 125c102.667 0 195.334 -26 278.001 -78
c-69.333 105.333 -162 158 -278 158c-144.667 0 -274.334 -52.667 -389.001 -158c-117.333 -108 -176 -233.667 -176 -377s58.667 -269 176 -377c114.667 -105.333 244.334 -158 389.001 -158c119.333 0 229 34.667 329 104c12 10.667 30.667 26.334 56 47.001
c43.333 35.333 81.666 53 114.999 53c38.667 0 72.334 -14.167 101.001 -42.5s43 -61.833 43 -100.5c0 -57.333 -44.333 -119.333 -133 -186c-154.667 -116.667 -325 -175 -511 -175c-233.333 -0 -438 80.333 -614 241c-180.667 165.333 -271 363.333 -271 594
s90.333 428.667 271 594c176 160.667 380.667 241 614 241c183.333 0 338.666 -60.333 465.999 -181c129.333 -123.333 194 -276.333 194 -459zM1100 834.999c0 45.333 -16 82.5 -48 111.5s-71 43.5 -117 43.5s-85 -14.5 -117 -43.5s-48 -66.167 -48 -111.5
s16 -82.5 48 -111.5s71 -43.5 117 -43.5s85 14.5 117 43.5s48 66.167 48 111.5z" />
    <glyph glyph-name="A" unicode="A" horiz-adv-x="1775" 
d="M1725 155c0 -44 -16.999 -81.166 -50.999 -111.499s-73 -45.5 -117 -45.5c-62 0 -108 30 -138 90l-181 362h-702l-181 -362c-30 -60 -75.667 -90 -137 -90c-44 0 -83 15.167 -117 45.5s-51 67.5 -51 111.5c0 26 6.33301 51.667 19 77l662 1322
c39.333 78.667 91.333 118 156 118c65.333 0 117.666 -39.333 156.999 -118l661 -1322c13.333 -26.667 20 -52.334 20 -77.001zM1078 770.001l-191 382l-191 -382h382z" />
    <glyph glyph-name="B" unicode="B" horiz-adv-x="1270" 
d="M1220 534c0 -148.667 -52.167 -275 -156.5 -379s-230.833 -156 -379.5 -156l-374 1c-42.667 0 -80 16 -112 48s-48 69.333 -48 112v1350c0 43.333 15.833 80.833 47.5 112.5s69.167 47.5 112.5 47.5h375c127.333 0 235.833 -44.833 325.5 -134.5
s134.5 -198.167 134.5 -325.5c0 -105.333 -32.333 -199.333 -97 -282c114.667 -106.667 172 -238 172 -394zM825 1210c0 38.667 -13.667 71.667 -41 99s-60.333 41 -99 41h-215v-280h215c38.667 0 71.667 13.667 99 41s41 60.333 41 99zM900 534c0 60 -20.833 111 -62.5 153
s-92.5 63 -152.5 63h-215v-430l214 -1c60 0 111 20.833 153 62.5s63 92.5 63 152.5z" />
    <glyph glyph-name="C" unicode="C" horiz-adv-x="1575" 
d="M1525 356c0 -54 -40.665 -112.669 -121.998 -176.002c-154 -120 -326.667 -180 -518 -180c-231.333 0 -428.333 81.333 -591 244s-244 359.667 -244 591s81.333 428.333 244 591s359.667 244 591 244c191.333 0 364 -60 518 -180c81.333 -63.333 122 -122 122 -176
c0 -43.333 -16.5 -81.5 -49.5 -114.5s-71.167 -49.5 -114.5 -49.5c-36 0 -73.333 16.333 -112 49c-8.66699 8.66699 -25.334 23.334 -50.001 44.001c-90.667 71.333 -195.334 107 -314.001 107c-142.667 0 -264.167 -50.167 -364.5 -150.5s-150.5 -221.833 -150.5 -364.5
s50.167 -264.167 150.5 -364.5s221.833 -150.5 364.5 -150.5c118 0 222.667 35.667 314 107c9.33301 8.66699 26 23.334 50 44.001c38.667 32.667 76 49 112 49c43.333 0 81.5 -16.5 114.5 -49.5s49.5 -71.167 49.5 -114.5z" />
    <glyph glyph-name="D" unicode="D" horiz-adv-x="1645" 
d="M1595 835c0 -232 -81.167 -429.167 -243.5 -591.5s-359.5 -243.5 -591.5 -243.5h-450c-43.333 -0 -80.833 15.833 -112.5 47.5s-47.5 69.167 -47.5 112.5v1350c0 43.333 15.833 80.833 47.5 112.5s69.167 47.5 112.5 47.5h450c232 0 429.167 -81.167 591.5 -243.5
s243.5 -359.5 243.5 -591.5zM1275 835c0 142.667 -50.167 264.167 -150.5 364.5s-221.833 150.5 -364.5 150.5h-290v-1030h290c142.667 0 264.167 50.167 364.5 150.5s150.5 221.833 150.5 364.5z" />
    <glyph glyph-name="E" unicode="E" horiz-adv-x="1270" 
d="M1220 1510c0 -46.667 -15 -85 -45 -115s-68.333 -45 -115 -45h-590v-355h440c46.667 0 85 -15 115 -45s45 -68.333 45 -115s-15 -85 -45 -115s-68.333 -45 -115 -45h-440v-355l590 -1c46.667 0 85 -15 115 -45s45 -68.333 45 -115s-15.167 -85 -45.5 -115
s-68.833 -45 -115.5 -45l-749 1c-42.667 0 -80 16 -112 48s-48 69.333 -48 112v1350c0 42.667 16 80 48 112s69.333 48 112 48h750c46.667 0 85 -15 115 -45s45 -68.333 45 -115z" />
    <glyph glyph-name="F" unicode="F" horiz-adv-x="1220" 
d="M1220 1510c0 -46.667 -15 -85 -45 -115s-68.333 -45 -115 -45h-590v-355h440c46.667 0 85 -15 115 -45s45 -68.333 45 -115s-15 -85 -45 -115s-68.333 -45 -115 -45h-440v-515c0 -46.667 -15 -85 -45 -115s-68.333 -45 -115 -45s-85 15 -115 45s-45 68.333 -45 115v1350
c0 42.667 16 80 48 112s69.333 48 112 48h750c46.667 0 85 -15 115 -45s45 -68.333 45 -115z" />
    <glyph glyph-name="G" unicode="G" horiz-adv-x="1625" 
d="M1525 1314c0 -43.333 -16.499 -81.501 -49.499 -114.501s-71.167 -49.5 -114.5 -49.5c-36 0 -73.333 16.333 -112 49c-8.66699 8.66699 -25.334 23.334 -50.001 44.001c-91.333 71.333 -196 107 -314 107c-142.667 0 -264.167 -50.167 -364.5 -150.5
s-150.5 -221.833 -150.5 -364.5s50.167 -264.167 150.5 -364.5s221.833 -150.5 364.5 -150.5c121.333 0 227 36.333 317 109v406c0 46.667 15 85 45 115s68.333 45 115 45s85 -15 115 -45s45 -68.333 45 -115v-479c0 -56 -39.667 -114.667 -119 -176
c-155.333 -120 -328 -180 -518 -180c-231.333 -0 -428.333 81.333 -591 244s-244 359.667 -244 591s81.333 428.333 244 591s359.667 244 591 244c191.333 0 364 -60 518 -180c81.333 -63.333 122 -122 122 -176z" />
    <glyph glyph-name="H" unicode="H" horiz-adv-x="1520" 
d="M1370 160c0 -46.667 -15 -85 -45 -115s-68.333 -45 -115 -45s-85 15 -115 45s-45 68.333 -45 115v515h-580v-515c0 -46.667 -15 -85 -45 -115s-68.333 -45 -115 -45s-85 15 -115 45s-45 68.333 -45 115v1350c0 46.667 15 85 45 115s68.333 45 115 45s85 -15 115 -45
s45 -68.333 45 -115v-515h580v515c0 46.667 15 85 45 115s68.333 45 115 45s85 -15 115 -45s45 -68.333 45 -115v-1350z" />
    <glyph glyph-name="I" unicode="I" horiz-adv-x="620" 
d="M470 160c0 -46.667 -15 -85 -45 -115s-68.333 -45 -115 -45s-85 15 -115 45s-45 68.333 -45 115v1350c0 46.667 15 85 45 115s68.333 45 115 45s85 -15 115 -45s45 -68.333 45 -115v-1350z" />
    <glyph glyph-name="J" unicode="J" horiz-adv-x="745" 
d="M595 1510v-1500c0 -127.333 -44.833 -235.833 -134.5 -325.5s-198.167 -134.5 -325.5 -134.5c-81.333 0 -158.333 20.667 -231 62c-74.667 42.667 -130.667 99 -168 169c-16 30 -24 58 -24 84c0 43.333 17 80.5 51 111.5s73 46.5 117 46.5c42.667 0 86 -25.5 130 -76.5
s85.667 -76.5 125 -76.5c38.667 0 71.667 13.667 99 41s41 60.333 41 99v1500c0 46.667 15 85 45 115s68.333 45 115 45s85 -15 115 -45s45 -68.333 45 -115z" />
    <glyph glyph-name="K" unicode="K" horiz-adv-x="1521" 
d="M1471 161c0 -43.333 -16.5 -81.502 -49.5 -114.502s-71.167 -49.5 -114.5 -49.5c-41.333 0 -78.666 16.667 -111.999 50l-675 675c-33.333 33.333 -50 71 -50 113s16.667 79.667 50 113l675 675c33.333 33.333 70.666 50 111.999 50c43.333 0 81.5 -16.5 114.5 -49.5
s49.5 -71.167 49.5 -114.5c0 -41.333 -16.667 -78.666 -50 -111.999l-562 -562l562 -562c33.333 -33.333 50 -70.666 50 -111.999zM470 159.998c0 -46.667 -15 -85 -45 -115s-68.333 -45 -115 -45s-85 15 -115 45s-45 68.333 -45 115v1350c0 46.667 15 85 45 115
s68.333 45 115 45s85 -15 115 -45s45 -68.333 45 -115v-1350z" />
    <glyph glyph-name="L" unicode="L" horiz-adv-x="1220" 
d="M1220 160c0 -46.667 -15 -85 -45 -115s-68.333 -45 -115 -45h-750c-42.667 0 -80 16 -112 48s-48 69.333 -48 112v1350c0 46.667 15 85 45 115s68.333 45 115 45s85 -15 115 -45s45 -68.333 45 -115v-1190h590c46.667 0 85 -15 115 -45s45 -68.333 45 -115z" />
    <glyph glyph-name="M" unicode="M" horiz-adv-x="1922" 
d="M1872 154c0 -44.667 -16.167 -81.5 -48.5 -110.5s-71.166 -43.5 -116.499 -43.5c-82.667 0 -133.334 41.667 -152.001 125l-193 866l-242 -566c-36 -84 -89 -126 -159 -126s-123 42 -159 126l-243 566l-192 -866c-18.667 -83.333 -69.334 -125 -152.001 -125
c-44.667 0 -83.334 14.5 -116.001 43.5s-49 65.833 -49 110.5c0 12 1.66699 25.667 5 41l294 1324c4.66699 22 15.334 51.333 32.001 88c31.333 42.667 76.333 64 135 64c66.667 0 117.334 -40.667 152.001 -122l293 -683l292 683c34.667 81.333 85.667 122 153 122
c58.667 0 103.667 -21.333 135 -64c12 -16 22.667 -45.333 32 -88l294 -1324c3.33301 -15.333 5 -29 5 -41z" />
    <glyph glyph-name="N" unicode="N" horiz-adv-x="1670" 
d="M1520 159c0 -46 -15.833 -84.5 -47.5 -115.5s-70.5 -46.5 -116.5 -46.5c-48 0 -94 28.333 -138 85l-748 962v-884c0 -46.667 -15 -85 -45 -115s-68.333 -45 -115 -45s-85 15 -115 45s-45 68.333 -45 115v1351c0 46 15.833 84.5 47.5 115.5s70.5 46.5 116.5 46.5
c48 0 94 -28.333 138 -85l748 -962v884c0 46.667 15 85 45 115s68.333 45 115 45s85 -15 115 -45s45 -68.333 45 -115v-1351z" />
    <glyph glyph-name="O" unicode="O" horiz-adv-x="1770" 
d="M1720 835c0 -232 -81.167 -429.167 -243.5 -591.5s-359.5 -243.5 -591.5 -243.5s-429.167 81.167 -591.5 243.5s-243.5 359.5 -243.5 591.5s81.167 429.167 243.5 591.5s359.5 243.5 591.5 243.5s429.167 -81.167 591.5 -243.5s243.5 -359.5 243.5 -591.5zM1400 835
c0 142.667 -50.167 264.167 -150.5 364.5s-221.833 150.5 -364.5 150.5s-264.167 -50.167 -364.5 -150.5s-150.5 -221.833 -150.5 -364.5s50.167 -264.167 150.5 -364.5s221.833 -150.5 364.5 -150.5s264.167 50.167 364.5 150.5s150.5 221.833 150.5 364.5z" />
    <glyph glyph-name="P" unicode="P" horiz-adv-x="1270" 
d="M150 160v1350c0 43.333 15.833 80.833 47.5 112.5s69.167 47.5 112.5 47.5h375c148.667 0 275 -52 379 -156s156 -230.333 156 -379s-52 -275 -156 -379s-230.333 -156 -379 -156h-55c-46.667 0 -85 15 -115 45s-45 68.333 -45 115s15 85 45 115s68.333 45 115 45h55
c60 0 110.833 20.833 152.5 62.5s62.5 92.5 62.5 152.5s-20.833 110.833 -62.5 152.5s-92.5 62.5 -152.5 62.5h-215v-1190c0 -46.667 -15 -85 -45 -115s-68.333 -45 -115 -45s-85 15 -115 45s-45 68.333 -45 115z" />
    <glyph glyph-name="Q" unicode="Q" horiz-adv-x="1770" 
d="M1720 -290c0 -46.667 -15 -84.998 -45 -114.998s-68.333 -45 -115 -45c-156.667 0 -301.667 40.667 -435 122s-235.666 191.666 -306.999 330.999c-218 17.333 -400.5 105.666 -547.5 264.999s-220.5 348.333 -220.5 567c0 232 81.167 429.167 243.5 591.5
s359.5 243.5 591.5 243.5s429.167 -81.167 591.5 -243.5s243.5 -359.5 243.5 -591.5c0 -176.667 -50.333 -336.667 -151 -480s-234 -245 -400 -305c103.333 -120 233.666 -180 390.999 -180c46.667 0 85 -15 115 -45s45 -68.333 45 -115zM1400 835.002
c0 142.667 -50.167 264.168 -150.5 364.501s-221.833 150.5 -364.5 150.5s-264.167 -50.167 -364.5 -150.5s-150.5 -221.833 -150.5 -364.5c0 -112 32.667 -213 98 -303s151.333 -152.333 258 -187c-0.666992 13.333 -1 26.666 -1 39.999c0 46.667 15 85 45 115
s68.333 45 115 45s85 -15 115 -45s45 -68.333 45 -115c0 -13.333 0.333008 -26.333 1 -39c106 34.667 191.5 97 256.5 187s97.5 190.667 97.5 302z" />
    <glyph glyph-name="R" unicode="R" horiz-adv-x="1273" 
d="M1223 161c0 -43.333 -16.5 -81.5 -49.5 -114.5s-71.167 -49.5 -114.5 -49.5c-41.333 0 -78.666 16.667 -111.999 50l-477 477v-364c0 -46.667 -15 -85 -45 -115s-68.333 -45 -115 -45s-85 15 -115 45s-45 68.333 -45 115v1350c0 42.667 16 80 48 112s69.333 48 112 48
h375c148.667 0 275 -52 379 -156s156 -230.333 156 -379c0 -120.667 -36.333 -228.834 -109 -324.501s-167.334 -159.5 -284.001 -191.5l346 -346c33.333 -33.333 50 -70.666 50 -111.999zM900 1135c0 60 -20.833 110.833 -62.5 152.5s-92.5 62.5 -152.5 62.5h-215v-430h215
c60 0 110.833 20.833 152.5 62.5s62.5 92.5 62.5 152.5z" />
    <glyph glyph-name="S" unicode="S" horiz-adv-x="1123" 
d="M1073 535c0 -148.667 -52 -274.999 -156 -378.999s-230.333 -156 -379 -156c-94 0 -183.667 24 -269 72c-88 49.333 -153 114.666 -195 195.999c-16 31.333 -24 59.333 -24 84c0 44 17 81.333 51 112s73 46 117 46c39.333 0 87.166 -31.667 143.499 -95
s115.166 -95 176.499 -95c59.333 0 110 21 152 63s63 92.667 63 152c0 60 -21 110.833 -63 152.5s-93 62.5 -153 62.5c-127.333 0 -235.666 44.833 -324.999 134.5s-134 198.167 -134 325.5c0 128 44.667 236.667 134 326s198 134 326 134
c79.333 0 156.166 -20.833 230.499 -62.5s129.833 -96.834 166.5 -165.501c16.667 -31.333 25 -59.666 25 -84.999c0 -43.333 -17 -80.5 -51 -111.5s-73 -46.5 -117 -46.5c-41.333 0 -84.166 25.167 -128.499 75.5s-86.166 75.5 -125.499 75.5
c-38.667 0 -71.667 -13.667 -99 -41s-41 -60.333 -41 -99s13.667 -71.667 41 -99s60.333 -41 99 -41c148.667 0 275 -52 379 -156s156 -230.333 156 -379z" />
    <glyph glyph-name="T" unicode="T" horiz-adv-x="1270" 
d="M1270 1510c0 -46.667 -15 -85 -45 -115s-68.333 -45 -115 -45h-290v-1190c0 -46.667 -15 -85 -45 -115s-68.333 -45 -115 -45s-85 15 -115 45s-45 68.333 -45 115v1190h-290c-46.667 0 -85 15 -115 45s-45 68.333 -45 115s15 85 45 115s68.333 45 115 45h900
c46.667 0 85 -15 115 -45s45 -68.333 45 -115z" />
    <glyph glyph-name="U" unicode="U" horiz-adv-x="1420" 
d="M1320 610c0 -169.333 -59.333 -313.333 -178 -432s-262.667 -178 -432 -178s-313.333 59.333 -432 178s-178 262.667 -178 432v900c0 46.667 15 85 45 115s68.333 45 115 45s85 -15 115 -45s45 -68.333 45 -115v-900c0 -80.667 28.167 -149.167 84.5 -205.5
s124.833 -84.5 205.5 -84.5s149.167 28.167 205.5 84.5s84.5 124.833 84.5 205.5v900c0 46.667 15 85 45 115s68.333 45 115 45s85 -15 115 -45s45 -68.333 45 -115v-900z" />
    <glyph glyph-name="V" unicode="V" horiz-adv-x="1725" 
d="M1725 1515c0 -24.667 -6.66797 -50.333 -20.001 -77l-661 -1322c-39.333 -78.667 -91.666 -118 -156.999 -118c-64.667 0 -116.667 39.333 -156 118l-662 1322c-12.667 25.333 -19 51 -19 77c0 44 17 81.167 51 111.5s73 45.5 117 45.5c61.333 0 107 -30 137 -90
l532 -1064l532 1064c30 60 76 90 138 90c44 0 83 -15.167 117 -45.5s51 -67.5 51 -111.5z" />
    <glyph glyph-name="W" unicode="W" horiz-adv-x="2400" 
d="M2400 1515c0 -24.667 -6.66895 -50.332 -20.002 -76.999l-661 -1322c-39.333 -78.667 -91.666 -118 -156.999 -118c-64.667 0 -116.667 39.333 -156 118l-181 361l-181 -361c-39.333 -78.667 -91.666 -118 -156.999 -118c-64.667 0 -116.667 39.333 -156 118l-662 1322
c-12.667 25.333 -19 51 -19 77c0 44 17 81.167 51 111.5s73 45.5 117 45.5c61.333 0 107 -30 137 -90l532 -1064l159 317l-302 603c-12.667 25.333 -19 51 -19 77c0 44 17 81.167 51 111.5s73 45.5 117 45.5c61.333 0 107 -30 137 -90l195 -389l194 389c30 60 76 90 138 90
c44 0 83 -15.167 117 -45.5s51 -67.5 51 -111.5c0 -24.667 -6.66699 -50.334 -20 -77.001l-301 -603l158 -317l532 1064c30 60 76 90 138 90c44 0 83 -15.167 117 -45.5s51 -67.5 51 -111.5z" />
    <glyph glyph-name="X" unicode="X" horiz-adv-x="1476" 
d="M1426 159c0 -43.333 -16.833 -81.166 -50.5 -113.499s-72.5 -48.5 -116.5 -48.5c-47.333 0 -88 21.667 -122 65l-399 512l-399 -512c-34 -43.333 -75 -65 -123 -65c-44 0 -82.667 16.167 -116 48.5s-50 70.166 -50 113.499c0 34 12.333 67 37 99l448 577l-448 577
c-24.667 32 -37 65 -37 99c0 43.333 16.667 81.166 50 113.499s72 48.5 116 48.5c48 0 89 -21.667 123 -65l399 -512l399 512c34 43.333 74.667 65 122 65c44 0 82.833 -16.167 116.5 -48.5s50.5 -70.166 50.5 -113.499c0 -34 -12.333 -67 -37 -99l-448 -577l448 -577
c24.667 -32 37 -65 37 -99z" />
    <glyph glyph-name="Y" unicode="Y" horiz-adv-x="1426" 
d="M1426 1511c0 -34 -12.333 -67 -37 -99l-491 -632v-620c0 -46.667 -15 -85 -45 -115s-68.333 -45 -115 -45s-85 15 -115 45s-45 68.333 -45 115v620l-491 632c-24.667 32 -37 65 -37 99c0 43.333 16.667 81.166 50 113.499s72 48.5 116 48.5c48 0 89 -21.667 123 -65
l399 -512l399 512c34 43.333 74.667 65 122 65c44 0 82.833 -16.167 116.5 -48.5s50.5 -70.166 50.5 -113.499z" />
    <glyph glyph-name="Z" unicode="Z" horiz-adv-x="1476" 
d="M1426 1511c0 -34.667 -18.333 -75.666 -55 -122.999l-831 -1068h723c46.667 0 85 -15 115 -45s45 -68.333 45 -115s-15 -85 -45 -115s-68.333 -45 -115 -45h-1047c-46 0 -85.167 15.167 -117.5 45.5s-48.5 68.166 -48.5 113.499c0 34.667 18.333 75.667 55 123l831 1068
h-723c-46.667 0 -85 15 -115 45s-45 68.333 -45 115s15 85 45 115s68.333 45 115 45h1046c46 0 85.333 -15 118 -45s49 -68 49 -114z" />
    <glyph glyph-name="bracketleft" unicode="[" horiz-adv-x="970" 
d="M920 -290c0 -46.667 -15 -85 -45 -115s-68.333 -45 -115 -45h-450c-42.667 0 -80 16 -112 48s-48 69.333 -48 112v1800c0 42.667 16 80 48 112s69.333 48 112 48h450c46.667 0 85 -15 115 -45s45 -68.333 45 -115s-15 -85 -45 -115s-68.333 -45 -115 -45h-290v-1480h290
c46.667 0 85 -15 115 -45s45 -68.333 45 -115z" />
    <glyph glyph-name="backslash" unicode="\" horiz-adv-x="1325" 
d="M1275 -296c0 -44 -17 -81.166 -51 -111.499s-73 -45.5 -117 -45.5c-62 0 -108 30 -138 90l-900 1801c-12.667 25.333 -19 51 -19 77c0 44 17 81.167 51 111.5s73 45.5 117 45.5c61.333 0 107 -30 137 -90l900 -1801c13.333 -26.667 20 -52.334 20 -77.001z" />
    <glyph glyph-name="bracketright" unicode="]" horiz-adv-x="970" 
d="M820 1510v-1800c0 -42.667 -16 -80 -48 -112s-69.333 -48 -112 -48h-450c-46.667 0 -85 15 -115 45s-45 68.333 -45 115s15 85 45 115s68.333 45 115 45h290v1480h-290c-46.667 0 -85 15 -115 45s-45 68.333 -45 115s15 85 45 115s68.333 45 115 45h450
c42.667 0 80 -16 112 -48s48 -69.333 48 -112z" />
    <glyph glyph-name="asciicircum" unicode="^" horiz-adv-x="1026" 
d="M976 1211c0 -43.333 -16.668 -81.5 -50.001 -114.5s-71.666 -49.5 -114.999 -49.5c-40.667 0 -77.667 16.667 -111 50l-187 187l-187 -187c-33.333 -33.333 -70.666 -50 -111.999 -50c-43.333 0 -81.5 16.5 -114.5 49.5s-49.5 71.167 -49.5 114.5
c0 41.333 16.667 78.666 50 111.999l300 300c33.333 33.333 71.333 50 114 50c41.333 0 78.666 -16.667 111.999 -50l300 -300c33.333 -33.333 50 -70.666 50 -111.999z" />
    <glyph glyph-name="underscore" unicode="_" 
d="M1270 160c0 -46.667 -15 -85 -45 -115s-68.333 -45 -115 -45h-900c-46.667 0 -85 15 -115 45s-45 68.333 -45 115s15 85 45 115s68.333 45 115 45h900c46.667 0 85 -15 115 -45s45 -68.333 45 -115z" />
    <glyph glyph-name="grave" unicode="`" horiz-adv-x="574" 
d="M524 1129c0 -44 -16.833 -80.833 -50.5 -110.5s-72.5 -44.5 -116.5 -44.5c-68.667 0 -116.667 34 -144 102l-150 375c-8.66699 21.333 -13 43 -13 65c0 44 16.833 80.833 50.5 110.5s72.5 44.5 116.5 44.5c68 0 115.667 -34 143 -102l150 -375
c9.33301 -23.333 14 -45 14 -65z" />
    <glyph glyph-name="a" unicode="a" horiz-adv-x="1070" 
d="M970 160c0 -46.667 -15 -85 -45 -115s-68.333 -45 -115 -45c-44 -0 -81 13.333 -111 40c-51.333 -26.667 -114.333 -40 -189 -40c-129.333 -0 -236.666 35.333 -321.999 106c-92 76 -138 177.333 -138 304s46 228 138 304c85.333 70.667 192.666 106 321.999 106
c52 0 98.667 -6.66699 140 -20v10c0 38.667 -13.667 71.667 -41 99s-60.333 41 -99 41c-28 0 -64.667 -16.5 -110 -49.5s-85 -49.5 -119 -49.5c-38 0 -71.333 12 -100 36c-30.667 25.333 -46 56.333 -46 93c0 34.667 16.667 69.667 50 105c84.667 90 193 135 325 135
c127.333 0 235.833 -44.833 325.5 -134.5s134.5 -198.167 134.5 -325.5v-600zM650 410c0 38.667 -13.667 71.667 -41 99s-60.333 41 -99 41s-71.667 -13.667 -99 -41s-41 -60.333 -41 -99s13.667 -71.667 41 -99s60.333 -41 99 -41s71.667 13.667 99 41s41 60.333 41 99z
" />
    <glyph glyph-name="b" unicode="b" horiz-adv-x="1370" 
d="M1320 610c0 -169.333 -59.333 -313.332 -178 -431.999s-262.667 -178 -432 -178s-313.333 59.167 -432 177.5s-178 262.166 -178 431.499v901c0 46.667 15 85 45 115s68.333 45 115 45s85 -15 115 -45s45 -68.333 45 -115v-363c90 48.667 186.667 73 290 73
c169.333 0 313.333 -59.333 432 -178s178 -262.667 178 -432zM1000 610.001c0 80.667 -28.167 149.167 -84.5 205.5s-124.833 84.5 -205.5 84.5s-149.167 -28.167 -205.5 -84.5s-84.5 -124.833 -84.5 -205.5s28.167 -149.167 84.5 -205.5s124.833 -84.5 205.5 -84.5
s149.167 28.167 205.5 84.5s84.5 124.833 84.5 205.5z" />
    <glyph glyph-name="c" unicode="c" horiz-adv-x="1191" 
d="M1141 930c0 -43.333 -16.5029 -81.666 -49.5029 -114.999s-71.167 -50 -114.5 -50c-24.667 0 -69.334 22.5 -134.001 67.5s-125.667 67.5 -183 67.5c-80.667 0 -149.167 -28.167 -205.5 -84.5s-84.5 -124.833 -84.5 -205.5s28.167 -149.167 84.5 -205.5
s124.833 -84.5 205.5 -84.5c56.667 0 117.334 22.333 182.001 67s109.334 67 134.001 67c43.333 0 81.5 -16.5 114.5 -49.5s49.5 -71.167 49.5 -114.5c0 -36.667 -16.667 -74 -50 -112c-49.333 -55.333 -114.666 -99.333 -195.999 -132
c-77.333 -30.667 -155.333 -46 -234 -46c-169.333 0 -313.333 59.333 -432 178s-178 262.667 -178 432s59.333 313.333 178 432s262.667 178 432 178c77.333 0 155.333 -15.667 234 -47c82.667 -32.667 148.334 -76.334 197.001 -131.001c33.333 -38 50 -75.333 50 -112z
" />
    <glyph glyph-name="d" unicode="d" horiz-adv-x="1420" 
d="M1270 160c0 -46.667 -15 -85 -45 -115s-68.333 -45 -115 -45c-67.333 0 -115 27.667 -143 83c-94.667 -55.333 -197 -83 -307 -83c-169.333 -0 -313.333 59.333 -432 178s-178 262.667 -178 432s59.333 313.333 178 432s262.667 178 432 178
c103.333 0 200 -24.333 290 -73v363c0 46.667 15 85 45 115s68.333 45 115 45s85 -15 115 -45s45 -68.333 45 -115v-1350zM950 610c0 80.667 -28.167 149.167 -84.5 205.5s-124.833 84.5 -205.5 84.5s-149.167 -28.167 -205.5 -84.5s-84.5 -124.833 -84.5 -205.5
s28.167 -149.167 84.5 -205.5s124.833 -84.5 205.5 -84.5s149.167 28.167 205.5 84.5s84.5 124.833 84.5 205.5z" />
    <glyph glyph-name="e" unicode="e" horiz-adv-x="1262" 
d="M1212 389c0 -24.667 -8 -52.667 -24 -84c-47.333 -92.667 -121.333 -167 -222 -223c-96.667 -54.667 -198.667 -82 -306 -82c-169.333 -0 -313.333 59.333 -432 178s-178 262.667 -178 432s59.333 313.333 178 432s262.667 178 432 178
c82.667 0 165.667 -18.833 249 -56.5s153 -87.5 209 -149.5c61.333 -67.333 92 -130.666 92 -189.999c0 -54.667 -26.667 -97.334 -80 -128.001l-599 -345c40.667 -20.667 83.667 -31 129 -31c69.333 0 127 19.667 173 59l93 106c42 41.333 81.667 62 119 62
c43.333 0 82 -15.5 116 -46.5s51 -68.167 51 -111.5zM790 870c-40.667 20 -84 30 -130 30c-76.667 0 -143 -26.167 -199 -78.5s-86 -116.833 -90 -193.5z" />
    <glyph glyph-name="f" unicode="f" horiz-adv-x="963" 
d="M963 1440c0 -42.667 -11.334 -80.668 -34.001 -114.001c-25.333 -38 -58.666 -57 -99.999 -57c-28 0 -60.167 13.5 -96.5 40.5s-60.5 40.5 -72.5 40.5c-43.333 0 -65 -31.667 -65 -95v-35h65c46.667 0 85 -15 115 -45s45 -68.333 45 -115s-15 -85 -45 -115
s-68.333 -45 -115 -45h-65v-740c0 -46.667 -15 -85 -45 -115s-68.333 -45 -115 -45s-85 15 -115 45s-45 68.333 -45 115v740h-65c-46.667 0 -85 15 -115 45s-45 68.333 -45 115s15 85 45 115s68.333 45 115 45h65v65c0 106.667 37.5 197.5 112.5 272.5
s165.833 112.5 272.5 112.5c82 0 150.333 -17.333 205 -52c65.333 -41.333 98 -100.666 98 -177.999z" />
    <glyph glyph-name="g" unicode="g" horiz-adv-x="1170" 
d="M1120 85c0 -148.667 -52 -275 -156 -379s-230.333 -156 -379 -156s-275 52 -379 156s-156 230.333 -156 379c0 46.667 15 85 45 115s68.333 45 115 45s85 -15 115 -45s45 -68.333 45 -115c0 -60 20.833 -110.833 62.5 -152.5s92.5 -62.5 152.5 -62.5
s110.833 20.833 152.5 62.5s62.5 92.5 62.5 152.5s-20.833 110.833 -62.5 152.5s-92.5 62.5 -152.5 62.5c-127.333 0 -235.833 44.833 -325.5 134.5s-134.5 198.167 -134.5 325.5s44.833 235.833 134.5 325.5s198.167 134.5 325.5 134.5h375c46.667 0 85 -15 115 -45
s45 -68.333 45 -115c0 -76 -33.333 -126 -100 -150c16.667 -48.667 25 -98.667 25 -150c0 -105.333 -32.333 -199.333 -97 -282c114.667 -106 172 -237 172 -393zM725 760c0 38.667 -13.667 71.667 -41 99s-60.333 41 -99 41s-71.667 -13.667 -99 -41s-41 -60.333 -41 -99
s13.667 -71.667 41 -99s60.333 -41 99 -41s71.667 13.667 99 41s41 60.333 41 99z" />
    <glyph glyph-name="h" unicode="h" horiz-adv-x="1170" 
d="M1070 160c0 -46.667 -15 -85.001 -45 -115.001s-68.333 -45 -115 -45s-85 15 -115 45s-45 68.333 -45 115v600c0 38.667 -13.667 71.667 -41 99s-60.333 41 -99 41s-71.667 -13.667 -99 -41s-41 -60.333 -41 -99v-600c0 -46.667 -15 -85 -45 -115s-68.333 -45 -115 -45
s-85 15 -115 45s-45 68.333 -45 115v1350c0 46.667 15 85 45 115s68.333 45 115 45s85 -15 115 -45s45 -68.333 45 -115v-312c45.333 14.667 92 22 140 22c127.333 0 235.833 -44.667 325.5 -134s134.5 -197.666 134.5 -324.999v-601z" />
    <glyph glyph-name="i" unicode="i" horiz-adv-x="620" 
d="M509 1471c0 -54.667 -19.333 -101 -58 -139s-85.667 -57 -141 -57s-102.333 19 -141 57s-58 84.333 -58 139c0 55.333 19.333 102.333 58 141s85.667 58 141 58s102.333 -19.333 141 -58s58 -85.667 58 -141zM470 160c0 -46.667 -15 -85 -45 -115s-68.333 -45 -115 -45
s-85 15 -115 45s-45 68.333 -45 115v900c0 46.667 15 85 45 115s68.333 45 115 45s85 -15 115 -45s45 -68.333 45 -115v-900z" />
    <glyph glyph-name="j" unicode="j" horiz-adv-x="620" 
d="M509 1471c0 -54.667 -19.333 -101 -58 -139s-85.667 -57 -141 -57s-102.333 19 -141 57s-58 84.333 -58 139c0 55.333 19.333 102.333 58 141s85.667 58 141 58s102.333 -19.333 141 -58s58 -85.667 58 -141zM470 -65c0 -106.667 -37.499 -197.499 -112.499 -272.499
s-165.833 -112.5 -272.5 -112.5c-82 0 -150.333 17.333 -205 52c-65.333 41.333 -98 100.666 -98 177.999c0 42.667 11.333 80.667 34 114c25.333 38 58.666 57 99.999 57c28 0 60.167 -13.5 96.5 -40.5s60.5 -40.5 72.5 -40.5c43.333 0 65 21.667 65 65v1125
c0 46.667 15 85 45 115s68.333 45 115 45s85 -15 115 -45s45 -68.333 45 -115v-1125z" />
    <glyph glyph-name="k" unicode="k" horiz-adv-x="1293" 
d="M1243 161c0 -43.333 -16.498 -81.502 -49.498 -114.502s-71.167 -49.5 -114.5 -49.5c-40.667 0 -96.334 32.667 -167.001 98l-144 145l-178 172c-79.333 84.667 -119 150.667 -119 198s39.667 113.333 119 198l178 172l199 193c35.333 33.333 72.666 50 111.999 50
c43.333 0 81.5 -16.5 114.5 -49.5s49.5 -71.167 49.5 -114.5c0 -41.333 -16.667 -78.666 -50 -111.999l-337 -337l337 -337c33.333 -33.333 50 -70.666 50 -111.999zM470.002 159.998c0 -46.667 -15 -85 -45 -115s-68.333 -45 -115 -45s-85 15 -115 45s-45 68.333 -45 115
v1350c0 46.667 15 85 45 115s68.333 45 115 45s85 -15 115 -45s45 -68.333 45 -115v-1350z" />
    <glyph glyph-name="l" unicode="l" horiz-adv-x="695" 
d="M645 160c0 -46.667 -15 -85 -45 -115s-68.333 -45 -115 -45c-106.667 0 -197.5 37.5 -272.5 112.5s-112.5 165.833 -112.5 272.5v1125c0 46.667 15 85 45 115s68.333 45 115 45s85 -15 115 -45s45 -68.333 45 -115v-1125c0 -43.333 21.667 -65 65 -65
c46.667 0 85 -15 115 -45s45 -68.333 45 -115z" />
    <glyph glyph-name="m" unicode="m" horiz-adv-x="1770" 
d="M1670 160c0 -46.667 -15 -85.001 -45 -115.001s-68.333 -45 -115 -45s-85 15 -115 45s-45 68.333 -45 115v600c0 38.667 -13.667 71.667 -41 99s-60.333 41 -99 41s-71.667 -13.667 -99 -41s-41 -60.333 -41 -99v-600c0 -46.667 -15 -85 -45 -115s-68.333 -45 -115 -45
s-85 15 -115 45s-45 68.333 -45 115v601c0 38.667 -13.667 71.5 -41 98.5s-60.333 40.5 -99 40.5s-71.667 -13.667 -99 -41s-41 -60.333 -41 -99v-600c0 -46.667 -15 -85 -45 -115s-68.333 -45 -115 -45s-85 15 -115 45s-45 68.333 -45 115v900c0 46.667 15 85 45 115
s68.333 45 115 45c44.667 0 81.667 -13.667 111 -41c60 27.333 123 41 189 41c114 0 214 -37 300 -111c86 74 186 111 300 111c127.333 0 235.833 -44.667 325.5 -134s134.5 -197.666 134.5 -324.999v-601z" />
    <glyph glyph-name="n" unicode="n" horiz-adv-x="1170" 
d="M1070 160c0 -46.667 -15 -85.001 -45 -115.001s-68.333 -45 -115 -45s-85 15 -115 45s-45 68.333 -45 115v600c0 38.667 -13.667 71.667 -41 99s-60.333 41 -99 41s-71.667 -13.667 -99 -41s-41 -60.333 -41 -99v-600c0 -46.667 -15 -85 -45 -115s-68.333 -45 -115 -45
s-85 15 -115 45s-45 68.333 -45 115v900c0 46.667 15 85 45 115s68.333 45 115 45c44.667 0 81.667 -13.667 111 -41c60 27.333 123 41 189 41c127.333 0 235.833 -44.667 325.5 -134s134.5 -197.666 134.5 -324.999v-601z" />
    <glyph glyph-name="o" unicode="o" 
d="M1270 610c0 -170 -59.167 -314.167 -177.5 -432.5s-262.5 -177.5 -432.5 -177.5s-314.167 59.167 -432.5 177.5s-177.5 262.5 -177.5 432.5s59.167 314.167 177.5 432.5s262.5 177.5 432.5 177.5s314.167 -59.167 432.5 -177.5s177.5 -262.5 177.5 -432.5zM950 610
c0 80.667 -28.167 149.167 -84.5 205.5s-124.833 84.5 -205.5 84.5s-149.167 -28.167 -205.5 -84.5s-84.5 -124.833 -84.5 -205.5s28.167 -149.167 84.5 -205.5s124.833 -84.5 205.5 -84.5s149.167 28.167 205.5 84.5s84.5 124.833 84.5 205.5z" />
    <glyph glyph-name="p" unicode="p" horiz-adv-x="1420" 
d="M1370 610c0 -169.333 -59.333 -313.333 -178 -432s-262.667 -178 -432 -178c-103.333 -0 -200 24.333 -290 73v-363c0 -46.667 -15 -85 -45 -115s-68.333 -45 -115 -45s-85 15 -115 45s-45 68.333 -45 115v1350c0 46.667 15 85 45 115s68.333 45 115 45
c67.333 0 115 -27.667 143 -83c94.667 55.333 197 83 307 83c169.333 0 313.333 -59.333 432 -178s178 -262.667 178 -432zM1050 610c0 80.667 -28.167 149.167 -84.5 205.5s-124.833 84.5 -205.5 84.5s-149.167 -28.167 -205.5 -84.5s-84.5 -124.833 -84.5 -205.5
s28.167 -149.167 84.5 -205.5s124.833 -84.5 205.5 -84.5s149.167 28.167 205.5 84.5s84.5 124.833 84.5 205.5z" />
    <glyph glyph-name="q" unicode="q" horiz-adv-x="1420" 
d="M1270 -290c0 -46.667 -15 -85 -45 -115s-68.333 -45 -115 -45s-85 15 -115 45s-45 68.333 -45 115v363c-90 -48.667 -186.667 -73 -290 -73c-169.333 -0 -313.333 59.333 -432 178s-178 262.667 -178 432s59.333 313.333 178 432s262.667 178 432 178
c110 0 212.333 -27.667 307 -83c28 55.333 75.667 83 143 83c46.667 0 85 -15 115 -45s45 -68.333 45 -115v-1350zM950 610c0 80.667 -28.167 149.167 -84.5 205.5s-124.833 84.5 -205.5 84.5s-149.167 -28.167 -205.5 -84.5s-84.5 -124.833 -84.5 -205.5
s28.167 -149.167 84.5 -205.5s124.833 -84.5 205.5 -84.5s149.167 28.167 205.5 84.5s84.5 124.833 84.5 205.5z" />
    <glyph glyph-name="r" unicode="r" horiz-adv-x="943" 
d="M893 943c0 -43.333 -17.001 -80.5 -51.001 -111.5s-73 -46.5 -117 -46.5c-40 0 -78.333 19.167 -115 57.5s-61.667 57.5 -75 57.5c-43.333 0 -65 -21.667 -65 -65v-675c0 -46.667 -15 -85 -45 -115s-68.333 -45 -115 -45s-85 15 -115 45s-45 68.333 -45 115v900
c0 46.667 15 85 45 115s68.333 45 115 45c34 0 64 -8.33301 90 -25c43.333 16.667 88.333 25 135 25c68 0 132.333 -17.5 193 -52.5s107.334 -81.833 140.001 -140.5c16.667 -30 25 -58 25 -84z" />
    <glyph glyph-name="s" unicode="s" horiz-adv-x="889" 
d="M839 410c0 -114 -39.833 -210.835 -119.5 -290.502s-176.5 -119.5 -290.5 -119.5c-72 0 -140.667 18.5 -206 55.5s-115 86.833 -149 149.5c-16 29.333 -24 57.333 -24 84c0 43.333 17 80.5 51 111.5s73 46.5 117 46.5c41.333 0 81 -21.167 119 -63.5
s68.667 -63.5 92 -63.5c24.667 0 45.834 8.83301 63.501 26.5s26.5 38.834 26.5 63.501s-8.83301 45.834 -26.5 63.501s-38.834 26.5 -63.501 26.5c-100 0 -185 35 -255 105s-105 155 -105 255s35 185 105 255s155 105 255 105c67.333 0 132.333 -19 195 -57
c72 -43.333 108 -96 108 -158c0 -44 -16.333 -82.5 -49 -115.5s-71 -49.5 -115 -49.5c-27.333 0 -56.5 10 -87.5 30s-48.167 30 -51.5 30c-26.667 0 -40 -13.333 -40 -40s13.667 -40 41 -40c113.333 0 209.833 -40 289.5 -120s119.5 -176.667 119.5 -290z" />
    <glyph glyph-name="t" unicode="t" horiz-adv-x="1013" 
d="M963 230c0 -77.333 -32.666 -136.667 -97.999 -178c-54.667 -34.667 -123 -52 -205 -52c-106.667 0 -197.5 37.5 -272.5 112.5s-112.5 165.833 -112.5 272.5v515h-65c-46.667 0 -85 15 -115 45s-45 68.333 -45 115s15 85 45 115s68.333 45 115 45h65v290
c0 46.667 15 85 45 115s68.333 45 115 45s85 -15 115 -45s45 -68.333 45 -115v-290h65c46.667 0 85 -15 115 -45s45 -68.333 45 -115s-15 -85 -45 -115s-68.333 -45 -115 -45h-65v-515c0 -43.333 21.667 -65 65 -65c12 0 36.167 13.5 72.5 40.5s68.5 40.5 96.5 40.5
c41.333 0 74.666 -19 99.999 -57c22.667 -33.333 34 -71.333 34 -114z" />
    <glyph glyph-name="u" unicode="u" horiz-adv-x="1120" 
d="M1020 1060v-601c0 -127.333 -44.833 -235.666 -134.5 -324.999s-198.167 -134 -325.5 -134s-235.833 44.667 -325.5 134s-134.5 197.666 -134.5 324.999v601c0 46.667 15 85 45 115s68.333 45 115 45s85 -15 115 -45s45 -68.333 45 -115v-600
c0 -38.667 13.667 -71.667 41 -99s60.333 -41 99 -41s71.667 13.667 99 41s41 60.333 41 99v600c0 46.667 15 85 45 115s68.333 45 115 45s85 -15 115 -45s45 -68.333 45 -115z" />
    <glyph glyph-name="v" unicode="v" horiz-adv-x="1325" 
d="M1275 1065c0 -24.667 -6.66699 -50.334 -20 -77.001l-436 -872c-10.667 -21.333 -23.334 -42.666 -38.001 -63.999c-31.333 -36 -71 -54 -119 -54c-47.333 0 -87 18 -119 54c-7.33301 8 -19.666 29.333 -36.999 64l-437 872c-12.667 25.333 -19 51 -19 77
c0 44 17 81.167 51 111.5s73 45.5 117 45.5c61.333 0 107 -30 137 -90l307 -614l307 614c30 60 76 90 138 90c44 0 83 -15.167 117 -45.5s51 -67.5 51 -111.5z" />
    <glyph glyph-name="w" unicode="w" horiz-adv-x="1925" 
d="M1875 1065c0 -24.667 -6.66797 -50.334 -20.001 -77.001l-436 -872c-10.667 -21.333 -23.334 -42.666 -38.001 -63.999c-31.333 -36 -71 -54 -119 -54c-47.333 0 -87 18 -119 54c-7.33301 8.66699 -19.666 30 -36.999 64l-143 286l-144 -287c-8 -16 -20.667 -37 -38 -63
c-31.333 -36 -71 -54 -119 -54c-47.333 0 -87 18 -119 54c-7.33301 8 -19.666 29.333 -36.999 64l-437 872c-12.667 25.333 -19 51 -19 77c0 44 17 81.167 51 111.5s73 45.5 117 45.5c61.333 0 107 -30 137 -90l308 -615l121 242l-115 229c-12.667 25.333 -19 51 -19 77
c0 44 17 81.167 51 111.5s73 45.5 117 45.5c61.333 0 107 -30 137 -90l307 -614l307 614c30 60 76 90 138 90c44 0 83 -15.167 117 -45.5s51 -67.5 51 -111.5z" />
    <glyph glyph-name="x" unicode="x" horiz-adv-x="1176" 
d="M1126 160c0 -43.333 -16.667 -81.333 -50 -114s-72 -49 -116 -49c-46 0 -86 20.333 -120 61l-252 302l-251 -302c-34 -40.667 -74 -61 -120 -61c-44 0 -82.667 16.333 -116 49s-50 70.667 -50 114c0 36 13.333 70 40 102l289 348l-290 348c-26.667 32 -40 66 -40 102
c0 43.333 16.667 81.333 50 114s72 49 116 49c46 0 86 -20.333 120 -61l252 -302l251 302c34 40.667 74 61 120 61c44 0 82.667 -16.333 116 -49s50 -70.667 50 -114c0 -36 -13.333 -70 -40 -102l-289 -348l290 -348c26.667 -32 40 -66 40 -102z" />
    <glyph glyph-name="y" unicode="y" horiz-adv-x="1070" 
d="M1020 10c0 -127.333 -44.833 -235.831 -134.5 -325.498s-198.167 -134.5 -325.5 -134.5c-80.667 0 -157 20.333 -229 61c-74.667 42 -130.667 97.667 -168 167c-16.667 31.333 -25 59.666 -25 84.999c0 42.667 17.667 77 53 103c32 22.667 70.333 34 115 34
c40.667 0 83.5 -21.667 128.5 -65s86.833 -65 125.5 -65s71.667 15.5 99 46.5s41 66.167 41 105.5c-45.333 -14.667 -92 -22 -140 -22c-127.333 0 -235.833 44.667 -325.5 134s-134.5 197.666 -134.5 324.999v601c0 46.667 15 85 45 115s68.333 45 115 45s85 -15 115 -45
s45 -68.333 45 -115v-600c0 -38.667 13.667 -71.667 41 -99s60.333 -41 99 -41s71.667 13.667 99 41s41 60.333 41 99v600c0 46.667 15 85 45 115s68.333 45 115 45s85 -15 115 -45s45 -68.333 45 -115v-1050z" />
    <glyph glyph-name="z" unicode="z" horiz-adv-x="1176" 
d="M1126 1060c0 -36 -19.667 -77.667 -59 -125l-512 -615h408c46.667 0 85 -15 115 -45s45 -68.333 45 -115s-15 -85 -45 -115s-68.333 -45 -115 -45h-739c-48.667 -0 -89.334 14.333 -122.001 43c-34.667 30 -52 69 -52 117c0 36 19.667 77.667 59 125l512 615h-408
c-46.667 0 -85 15 -115 45s-45 68.333 -45 115s15 85 45 115s68.333 45 115 45h739c48.667 0 89.834 -14.667 123.501 -44s50.5 -68 50.5 -116z" />
    <glyph glyph-name="braceleft" unicode="{" horiz-adv-x="870" 
d="M820 1510c0 -46.667 -15 -85 -45 -115s-68.333 -45 -115 -45c-43.333 0 -65 -21.667 -65 -65v-450c0 -82.667 -24.333 -157.667 -73 -225c48.667 -67.333 73 -142.333 73 -225v-450c0 -43.333 21.667 -65 65 -65c46.667 0 85 -15 115 -45s45 -68.333 45 -115
s-15 -85 -45 -115s-68.333 -45 -115 -45c-106.667 0 -197.5 37.5 -272.5 112.5s-112.5 165.833 -112.5 272.5v450c0 43.333 -21.667 65 -65 65c-46.667 0 -85 15 -115 45s-45 68.333 -45 115s15 85 45 115s68.333 45 115 45c43.333 0 65 21.667 65 65v450
c0 106.667 37.5 197.5 112.5 272.5s165.833 112.5 272.5 112.5c46.667 0 85 -15 115 -45s45 -68.333 45 -115z" />
    <glyph glyph-name="bar" unicode="|" horiz-adv-x="620" 
d="M470 -290c0 -46.667 -15 -85 -45 -115s-68.333 -45 -115 -45s-85 15 -115 45s-45 68.333 -45 115v1800c0 46.667 15 85 45 115s68.333 45 115 45s85 -15 115 -45s45 -68.333 45 -115v-1800z" />
    <glyph glyph-name="braceright" unicode="}" horiz-adv-x="870" 
d="M820 610c0 -46.667 -15 -85 -45 -115s-68.333 -45 -115 -45c-43.333 0 -65 -21.667 -65 -65v-450c0 -106.667 -37.5 -197.5 -112.5 -272.5s-165.833 -112.5 -272.5 -112.5c-46.667 0 -85 15 -115 45s-45 68.333 -45 115s15 85 45 115s68.333 45 115 45
c43.333 0 65 21.667 65 65v450c0 82.667 24.333 157.667 73 225c-48.667 67.333 -73 142.333 -73 225v450c0 43.333 -21.667 65 -65 65c-46.667 0 -85 15 -115 45s-45 68.333 -45 115s15 85 45 115s68.333 45 115 45c106.667 0 197.5 -37.5 272.5 -112.5
s112.5 -165.833 112.5 -272.5v-450c0 -43.333 21.667 -65 65 -65c46.667 0 85 -15 115 -45s45 -68.333 45 -115z" />
    <glyph glyph-name="asciitilde" unicode="~" horiz-adv-x="1023" 
d="M973 616c0 -72.667 -34.668 -132.333 -104.001 -179c-61.333 -41.333 -130.666 -62 -207.999 -62c-56 0 -110 15.667 -162 47c-8 5.33301 -53.667 39.666 -137 102.999l-14 1c-28.667 -51.333 -72.667 -77 -132 -77c-44.667 0 -83.5 14.833 -116.5 44.5
s-49.5 66.5 -49.5 110.5c0 72.667 34.667 132.334 104 179.001c61.333 41.333 130.666 62 207.999 62c66.667 0 121.334 -15.667 164.001 -47l134 -101h16c29.333 49.333 73 74 131 74c44.667 0 83.5 -14.833 116.5 -44.5s49.5 -66.5 49.5 -110.5z" />
    <glyph glyph-name="exclamdown" unicode="&#xa1;" horiz-adv-x="582" 
d="M509 1021c0 -54.667 -19.333 -101 -58 -139s-85.667 -57 -141 -57s-102.333 19 -141 57s-58 84.333 -58 139c0 55.333 19.333 102.333 58 141s85.667 58 141 58s102.333 -19.333 141 -58s58 -85.667 58 -141zM470 -290c0 -46.667 -15 -85 -45 -115s-68.333 -45 -115 -45
s-85 15 -115 45s-45 68.333 -45 115v855c0 46.667 15 85 45 115s68.333 45 115 45s85 -15 115 -45s45 -68.333 45 -115v-855z" />
    <glyph glyph-name="cent" unicode="&#xa2;" horiz-adv-x="1191" 
d="M1141 930c0 -43.333 -16.5 -81.665 -49.5 -114.998s-71.167 -50 -114.5 -50c-30 0 -64.333 14 -103 42c-54 39.333 -85.333 61.666 -94 66.999v-528c3.33301 1.33301 34.333 23.666 93 66.999c37.333 27.333 71.666 41 102.999 41c43.333 0 81.5 -16.5 114.5 -49.5
s49.5 -71.167 49.5 -114.5c0 -66 -45 -127.667 -135 -185c-71.333 -45.333 -146.333 -76.333 -225 -93l1 -54c2 -112 -38.333 -168 -121 -168c-58 0 -94.667 25 -110 75c-7.33301 24 -10.666 73 -9.99902 147c-142.667 28 -260 98.333 -352 211s-138 241.667 -138 387
s46 274.166 138 386.499s209.333 182.833 352 211.5l-1 55c-2 111.333 38.333 167 121 167c58.667 0 95.667 -25 111 -75c6.66699 -22 9.66699 -71 9 -147c78.667 -16.667 154 -48 226 -94c90 -57.333 135 -118.666 135 -183.999zM540 346.001v528
c-113.333 -52 -170 -140 -170 -264s56.667 -212 170 -264z" />
    <glyph glyph-name="sterling" unicode="&#xa3;" horiz-adv-x="1327" 
d="M1277 160c0 -46.667 -14.999 -85.001 -44.999 -115.001s-68.333 -45 -115 -45h-900c-48 0 -87.833 14.667 -119.5 44s-47.5 68 -47.5 116s15.833 86.667 47.5 116s71.5 44 119.5 44c43.333 0 65 21.667 65 65v255c-82 0 -132.667 2.66699 -152 8
c-53.333 14.667 -80 52 -80 112s26.667 97.333 80 112c19.333 5.33301 70 8 152 8v60c-82 0 -132.667 2.66699 -152 8c-53.333 14.667 -80 52 -80 112s26.667 97.333 80 112c19.333 5.33301 70 8 152 8v105c0 106.667 37.5 197.5 112.5 272.5s165.833 112.5 272.5 112.5
c82 0 150.333 -17.333 205 -52c65.333 -41.333 98 -100.666 98 -177.999c0 -42 -11.667 -80 -35 -114c-25.333 -38 -58.333 -57 -99 -57c-28 0 -60.333 13.5 -97 40.5s-60.667 40.5 -72 40.5c-36.667 0 -58.334 -21.667 -65.001 -65v-105c82 0 132.667 -2.66699 152 -8
c53.333 -14.667 80 -52 80 -112s-26.667 -97.333 -80 -112c-19.333 -5.33301 -70 -8 -152 -8v-60c82 0 132.667 -2.66699 152 -8c53.333 -14.667 80 -52 80 -112s-26.667 -97.333 -80 -112c-19.333 -5.33301 -70 -8 -152 -8v-255c0 -22 -2 -43.667 -6 -65h521
c46.667 0 85 -15 115 -45s45 -68.333 45 -115z" />
    <glyph glyph-name="currency" unicode="&#xa4;" horiz-adv-x="1326" 
d="M1276 161c0 -43.333 -16.667 -81.5 -50 -114.5s-71.666 -49.5 -114.999 -49.5c-42.667 0 -91 28 -145 84c-93.333 -54 -194.333 -81 -303 -81s-209.667 27 -303 81c-54 -56 -102.667 -84 -146 -84s-81.5 16.5 -114.5 49.5s-49.5 71.167 -49.5 114.5s27.667 92 83 146
c-53.333 93.333 -80 194.333 -80 303s26.667 209.667 80 303c-55.333 54 -83 102.667 -83 146s16.5 81.5 49.5 114.5s71.167 49.5 114.5 49.5s92 -28 146 -84c93.333 54 194.333 81 303 81s209.667 -27 303 -81c54 56 102.333 84 145 84
c43.333 0 81.666 -16.5 114.999 -49.5s50 -71.167 50 -114.5s-28 -92 -84 -146c54 -93.333 81 -194.333 81 -303s-27 -209.667 -81 -303c56 -54 84 -102.667 84 -146zM953 610c0 80 -28.333 148.333 -85 205s-125 85 -205 85c-80.667 0 -149.167 -28.167 -205.5 -84.5
s-84.5 -124.833 -84.5 -205.5s28.167 -149.167 84.5 -205.5s124.833 -84.5 205.5 -84.5c80 0 148.333 28.333 205 85s85 125 85 205z" />
    <glyph glyph-name="yen" unicode="&#xa5;" horiz-adv-x="1476" 
d="M1426 1511c0 -34 -12.333 -67 -37 -99l-355 -457c82.667 0 124 -40 124 -120c0 -81.333 -57 -122 -171 -122c-10 0 -24.833 0.333008 -44.5 1s-34.5 1 -44.5 1v-60c10 0 25.167 0.333008 45.5 1s35.5 1 45.5 1c112.667 0 169 -40.667 169 -122s-57 -122 -171 -122
c-10 0 -24.833 0.333008 -44.5 1s-34.5 1 -44.5 1v-255c0 -46 -15.167 -84.167 -45.5 -114.5s-68.5 -45.5 -114.5 -45.5s-84.167 15.167 -114.5 45.5s-45.5 68.5 -45.5 114.5v255c-10 0 -25.167 -0.333008 -45.5 -1s-35.5 -1 -45.5 -1c-112.667 0 -169 40.667 -169 122
s56.667 122 170 122c10 0 25 -0.333008 45 -1s35 -1 45 -1v60c-10 0 -25.167 -0.333008 -45.5 -1s-35.5 -1 -45.5 -1c-112.667 0 -169 40.667 -169 122c0 80 41.333 120 124 120l-355 457c-24.667 32 -37 65 -37 99c0 43.333 16.833 81.166 50.5 113.499
s72.167 48.5 115.5 48.5c48 0 89 -21.667 123 -65l399 -512l399 512c34 43.333 74.667 65 122 65c44 0 82.833 -16.167 116.5 -48.5s50.5 -70.166 50.5 -113.499z" />
    <glyph glyph-name="brokenbar" unicode="&#xa6;" horiz-adv-x="620" 
d="M470 860c0 -46.667 -15 -85 -45 -115s-68.333 -45 -115 -45s-85 15 -115 45s-45 68.333 -45 115v650c0 46.667 15 85 45 115s68.333 45 115 45s85 -15 115 -45s45 -68.333 45 -115v-650zM470 -290c0 -46.667 -15 -85 -45 -115s-68.333 -45 -115 -45s-85 15 -115 45
s-45 68.333 -45 115v650c0 46.667 15 85 45 115s68.333 45 115 45s85 -15 115 -45s45 -68.333 45 -115v-650z" />
    <glyph glyph-name="section" unicode="&#xa7;" horiz-adv-x="1020" 
d="M970 10c0 -127.333 -44.833 -235.833 -134.5 -325.5s-198.167 -134.5 -325.5 -134.5c-80 0 -157 21 -231 63c-77.333 42.667 -133.333 98.667 -168 168c-16 31.333 -24 59.333 -24 84c0 44 17 81.333 51 112s73 46 117 46c41.333 0 84.333 -25.5 129 -76.5
s86.667 -76.5 126 -76.5c38 0 70.833 13.833 98.5 41.5s41.5 60.5 41.5 98.5s-13.833 70.833 -41.5 98.5s-60.5 41.5 -98.5 41.5c-127.333 0 -235.833 44.833 -325.5 134.5s-134.5 198.167 -134.5 325.5c0 114 37 214 111 300c-74 86 -111 186 -111 300
c0 127.333 44.833 235.833 134.5 325.5s198.167 134.5 325.5 134.5c80 0 157 -21 231 -63c77.333 -42.667 133.333 -98.667 168 -168c16 -31.333 24 -59.333 24 -84c0 -44 -17 -81.333 -51 -112s-73 -46 -117 -46c-41.333 0 -84.333 25.5 -129 76.5s-86.667 76.5 -126 76.5
c-38 0 -70.833 -13.833 -98.5 -41.5s-41.5 -60.5 -41.5 -98.5s13.833 -70.833 41.5 -98.5s60.5 -41.5 98.5 -41.5c127.333 0 235.833 -44.833 325.5 -134.5s134.5 -198.167 134.5 -325.5c0 -114 -37 -214 -111 -300c74 -86 111 -186 111 -300zM650 610
c0 38 -13.833 70.833 -41.5 98.5s-60.5 41.5 -98.5 41.5s-70.833 -13.833 -98.5 -41.5s-41.5 -60.5 -41.5 -98.5s13.833 -70.833 41.5 -98.5s60.5 -41.5 98.5 -41.5s70.833 13.833 98.5 41.5s41.5 60.5 41.5 98.5z" />
    <glyph glyph-name="dieresis" unicode="&#xa8;" horiz-adv-x="1045" 
d="M995 1398c0 -55.333 -19.167 -102.166 -57.5 -140.499s-85.166 -57.5 -140.499 -57.5s-102 19.167 -140 57.5s-57 85.166 -57 140.499s19 102 57 140s84.667 57 140 57s102.166 -19 140.499 -57s57.5 -84.667 57.5 -140zM445 1398
c0 -55.333 -19.167 -102.166 -57.5 -140.499s-85.166 -57.5 -140.499 -57.5s-102 19.167 -140 57.5s-57 85.166 -57 140.499s19 102 57 140s84.667 57 140 57s102.166 -19 140.499 -57s57.5 -84.667 57.5 -140z" />
    <glyph glyph-name="copyright" unicode="&#xa9;" horiz-adv-x="1690" 
d="M1640 835c0 -220.667 -77.333 -408.334 -232 -563.001s-342.334 -232 -563.001 -232s-408.334 77.333 -563.001 232s-232 342.334 -232 563.001s77.333 408.334 232 563.001s342.334 232 563.001 232s408.334 -77.333 563.001 -232s232 -342.334 232 -563.001zM1400 835
c0 154.667 -53.833 285.834 -161.5 393.501s-238.834 161.5 -393.501 161.5s-285.834 -53.833 -393.501 -161.5s-161.5 -238.834 -161.5 -393.501s53.833 -285.834 161.5 -393.501s238.834 -161.5 393.501 -161.5s285.834 53.833 393.501 161.5s161.5 238.834 161.5 393.501
zM1223 619c0 -71.333 -47 -132.335 -141 -183.002c-80 -43.333 -159 -65 -237 -65c-128.667 0 -238.167 45.167 -328.5 135.5s-135.5 199.833 -135.5 328.5s45.167 238.167 135.5 328.5s199.833 135.5 328.5 135.5c78 0 157 -21.667 237 -65
c94 -50.667 141 -111.667 141 -183c0 -43.333 -16.667 -81.5 -50 -114.5s-71.666 -49.5 -114.999 -49.5c-28 0 -63.5 15.333 -106.5 46s-78.5 46 -106.5 46c-39.333 0 -73.166 -14.167 -101.499 -42.5s-42.5 -62.166 -42.5 -101.499s14.167 -73.166 42.5 -101.499
s62.166 -42.5 101.499 -42.5c28 0 63.5 15.333 106.5 46s78.5 46 106.5 46c43.333 0 81.666 -16.5 114.999 -49.5s50 -71.167 50 -114.5z" />
    <glyph glyph-name="ordfeminine" unicode="&#xaa;" horiz-adv-x="790" 
d="M740 928c0 -74.667 -40.002 -112.002 -120.002 -112.002c-32.667 0 -60.334 9.33301 -83.001 28c-39.333 -18.667 -86.666 -28 -141.999 -28c-93.333 0 -172.333 24 -237 72c-72 52.667 -108 124.334 -108 215.001s36 162.334 108 215.001c64.667 48 143.667 72 237 72
c38.667 0 73.667 -4.66699 105 -14v7c0 28 -10.5 51.333 -31.5 70s-45.5 28 -73.5 28c-20.667 0 -48.5 -11.5 -83.5 -34.5s-64.5 -34.5 -88.5 -34.5c-27.333 0 -51.666 8 -72.999 24c-24 17.333 -36 39.333 -36 66c0 48 36 89.333 108 124
c60.667 29.333 118.334 44 173.001 44c92.667 0 172.667 -30 240 -90c70 -62.667 105 -140 105 -232v-420zM739.998 609.998c0 -34.667 -11.333 -63.334 -34 -86.001s-51.334 -34 -86.001 -34h-450c-34.667 0 -63.334 11.333 -86.001 34s-34 51.334 -34 86.001
s11.333 63.334 34 86.001s51.334 34 86.001 34h450c34.667 0 63.334 -11.333 86.001 -34s34 -51.334 34 -86.001zM499.998 1103c0 28 -10.5 51.333 -31.5 70s-45.5 28 -73.5 28s-52.5 -9.33301 -73.5 -28s-31.5 -42 -31.5 -70s10.5 -51.333 31.5 -70s45.5 -28 73.5 -28
s52.5 9.33301 73.5 28s31.5 42 31.5 70z" />
    <glyph glyph-name="guillemotleft" unicode="&#xab;" horiz-adv-x="1125" 
d="M1075 155c0 -44 -17 -81.167 -51 -111.5s-73 -45.5 -117 -45.5c-62 0 -108 30 -138 90l-215 430c-19.333 38.667 -29 69.334 -29 92.001s9.66699 53.334 29 92.001l215 430c30 60 76 90 138 90c44 0 83 -15.167 117 -45.5s51 -67.5 51 -111.5
c0 -24.667 -6.66699 -50.334 -20 -77.001l-189 -378l189 -378c13.333 -26.667 20 -52.334 20 -77.001zM600 155c0 -44 -17 -81.167 -51 -111.5s-73 -45.5 -117 -45.5c-62 0 -108 30 -138 90l-215 430c-19.333 38.667 -29 69.334 -29 92.001s9.66699 53.334 29 92.001
l215 430c30 60 76 90 138 90c44 0 83 -15.167 117 -45.5s51 -67.5 51 -111.5c0 -24.667 -6.66699 -50.334 -20 -77.001l-189 -378l189 -378c13.333 -26.667 20 -52.334 20 -77.001z" />
    <glyph glyph-name="logicalnot" unicode="&#xac;" 
d="M1170 160c0 -46.667 -15 -85 -45 -115s-68.333 -45 -115 -45s-85 15 -115 45s-45 68.333 -45 115v290h-640c-46.667 0 -85 15 -115 45s-45 68.333 -45 115s15 85 45 115s68.333 45 115 45h800c42.667 0 80 -16 112 -48s48 -69.333 48 -112v-450z" />
    <glyph glyph-name="sfthyphen" unicode="&#xad;" horiz-adv-x="1710" 
d="M1660 356c0 -38.667 -16.667 -76 -50 -112c-70.667 -76 -160.667 -136 -270 -180c-105.333 -42.667 -212 -64 -320 -64c-179.333 -0 -341.5 51.833 -486.5 155.5s-246.167 240.167 -303.5 409.5h-60c-34.667 0 -63.334 11.333 -86.001 34s-34 51.334 -34 86.001
c0 80.667 45.333 120.667 136 120l-1 30l1 30c-90.667 -0.666992 -136 39.333 -136 120c0 80 40 120 120 120h60c57.333 169.333 158.5 305.833 303.5 409.5s307.167 155.5 486.5 155.5c108 0 214.667 -21.333 320 -64c109.333 -44 199.333 -104 270 -180
c33.333 -36 50 -73.333 50 -112c0 -43.333 -16.5 -81.5 -49.5 -114.5s-71.167 -49.5 -114.5 -49.5c-37.333 0 -74.666 16.333 -111.999 49c-115.333 100.667 -236.666 151 -363.999 151c-191.333 0 -337.666 -81.667 -438.999 -245h589c34.667 0 63.334 -11.333 86.001 -34
s34 -51.334 34 -86.001c0 -80 -40 -120 -120 -120h-664c-0.666992 -10 -1 -20 -1 -30s0.333008 -20 1 -30h514c80 0 120 -40 120 -120s-40 -120 -120 -120h-439c101.333 -163.333 247.666 -245 438.999 -245c127.333 0 248.666 50.333 363.999 151
c37.333 32.667 74.666 49 111.999 49c43.333 0 81.5 -16.5 114.5 -49.5s49.5 -71.167 49.5 -114.5z" />
    <glyph glyph-name="registered" unicode="&#xae;" horiz-adv-x="1690" 
d="M1640 835c0 -220.667 -77.333 -408.334 -232 -563.001s-342.334 -232 -563.001 -232s-408.334 77.333 -563.001 232s-232 342.334 -232 563.001s77.333 408.334 232 563.001s342.334 232 563.001 232s408.334 -77.333 563.001 -232s232 -342.334 232 -563.001zM1400 835
c0 154.667 -53.833 285.834 -161.5 393.501s-238.834 161.5 -393.501 161.5s-285.834 -53.833 -393.501 -161.5s-161.5 -238.834 -161.5 -393.501s53.833 -285.834 161.5 -393.501s238.834 -161.5 393.501 -161.5s285.834 53.833 393.501 161.5s161.5 238.834 161.5 393.501
zM1223 524c0 -38.667 -15.834 -71.5 -47.501 -98.5s-67.167 -40.5 -106.5 -40.5c-38.667 0 -73.667 14 -105 42l-119 107c0 -97.333 -50 -146 -150 -146c-42 0 -77 12 -105 36c-30 24.667 -45 57.667 -45 99v607c0 38 15.333 70 46 96s65.334 39 104.001 39h187
c89.333 0 167 -28 233 -84c70 -58.667 105 -132 105 -220c0 -106 -49 -189.333 -147 -250l103 -93c31.333 -28 47 -59.333 47 -94zM919.999 961c0 34 -18 51 -54 51h-21v-100l20 -1h20c23.333 0 35 16.667 35 50z" />
    <glyph glyph-name="overscore" unicode="&#xaf;" 
d="M1270 1790c0 -46.667 -15 -85 -45 -115s-68.333 -45 -115 -45h-900c-46.667 0 -85 15 -115 45s-45 68.333 -45 115s15 85 45 115s68.333 45 115 45h900c46.667 0 85 -15 115 -45s45 -68.333 45 -115z" />
    <glyph glyph-name="degree" unicode="&#xb0;" horiz-adv-x="1020" 
d="M970 1210c0 -127.333 -44.833 -235.833 -134.5 -325.5s-198.167 -134.5 -325.5 -134.5s-235.833 44.833 -325.5 134.5s-134.5 198.167 -134.5 325.5s44.833 235.833 134.5 325.5s198.167 134.5 325.5 134.5s235.833 -44.833 325.5 -134.5s134.5 -198.167 134.5 -325.5z
M650 1210c0 38.667 -13.667 71.667 -41 99s-60.333 41 -99 41s-71.667 -13.667 -99 -41s-41 -60.333 -41 -99s13.667 -71.667 41 -99s60.333 -41 99 -41s71.667 13.667 99 41s41 60.333 41 99z" />
    <glyph glyph-name="plusminus" unicode="&#xb1;" 
d="M1270 1010c0 -46.667 -15 -85 -45 -115s-68.333 -45 -115 -45h-290v-290c0 -46.667 -15 -85 -45 -115s-68.333 -45 -115 -45s-85 15 -115 45s-45 68.333 -45 115v290h-290c-46.667 0 -85 15 -115 45s-45 68.333 -45 115s15 85 45 115s68.333 45 115 45h290v290
c0 46.667 15 85 45 115s68.333 45 115 45s85 -15 115 -45s45 -68.333 45 -115v-290h290c46.667 0 85 -15 115 -45s45 -68.333 45 -115zM1270 160c0 -46.667 -15 -85 -45 -115s-68.333 -45 -115 -45h-900c-46.667 0 -85 15 -115 45s-45 68.333 -45 115s15 85 45 115
s68.333 45 115 45h900c46.667 0 85 -15 115 -45s45 -68.333 45 -115z" />
    <glyph glyph-name="twosuperior" unicode="&#xb2;" horiz-adv-x="920" 
d="M870 1293c0 -99.333 -34 -182.333 -102 -249c-14.667 -14 -89 -68.667 -223 -164h205c80 0 120 -37.333 120 -112s-40 -112 -120 -112h-562c-92 0 -138 32.667 -138 98c0 37.333 21.667 72 65 104l128 63c88.667 44.667 168 95.667 238 153
c99.333 81.333 149 154.333 149 219c0 42.667 -16 78.5 -48 107.5s-69.667 43.5 -113 43.5s-81 -14.5 -113 -43.5s-48 -64.833 -48 -107.5c0 -74.667 -40 -112 -120 -112s-120 37.333 -120 112c0 106.667 40.333 196.667 121 270c78.667 70 172 105 280 105
s201.333 -35 280 -105c80.667 -73.333 121 -163.333 121 -270z" />
    <glyph glyph-name="threesuperior" unicode="&#xb3;" horiz-adv-x="935" 
d="M885 1572c0 -34.667 -18.3369 -67.6689 -55.0039 -99.002l-234 -200c80.667 -29.333 146.334 -77.666 197.001 -144.999s76 -143.333 76 -228c0 -114.667 -43.333 -211 -130 -289c-83.333 -74.667 -183 -112 -299 -112c-73.333 0 -144 17.667 -212 53
c-71.333 36.667 -124.666 85.667 -159.999 147c-12 20.667 -18 40.334 -18 59.001c0 31.333 13 57.666 39 78.999s55 32 87 32c28 0 65.667 -24.333 113 -73s97.666 -73 150.999 -73c50.667 0 94.834 16.833 132.501 50.5s56.5 75.834 56.5 126.501s-18.667 92.667 -56 126
s-81.666 50 -132.999 50c-36.667 0 -77.667 -14.667 -123 -44s-79 -44 -101 -44c-31.333 0 -59.166 10.833 -83.499 32.5s-36.5 48.167 -36.5 79.5c0 32 15 61 45 87l300 257h-269c-80 0 -120 37.333 -120 112s40 112 120 112h577c90.667 0 136 -32 136 -96z" />
    <glyph glyph-name="acute" unicode="&#xb4;" horiz-adv-x="723" 
d="M673 1505c0 -62 -30 -108 -90 -138l-300 -150c-25.333 -12.667 -50.666 -19 -75.999 -19c-43.333 0 -80.333 16.833 -111 50.5s-46 72.5 -46 116.5c0 62 30 108 90 138l300 150c25.333 12.667 50.666 19 75.999 19c43.333 0 80.333 -16.833 111 -50.5s46 -72.5 46 -116.5
z" />
    <glyph glyph-name="mu1" unicode="&#xb5;" horiz-adv-x="1220" 
d="M1070 160c0 -46.667 -15 -85 -45 -115s-68.333 -45 -115 -45c-44 0 -81 13.667 -111 41c-60 -27.333 -123 -41 -189 -41c-48 -0 -94.667 7.33301 -140 22v-312c0 -46.667 -15 -85 -45 -115s-68.333 -45 -115 -45s-85 15 -115 45s-45 68.333 -45 115v1350
c0 46.667 15 85 45 115s68.333 45 115 45s85 -15 115 -45s45 -68.333 45 -115v-600c0 -38 13.833 -70.833 41.5 -98.5s60.5 -41.5 98.5 -41.5s70.833 13.833 98.5 41.5s41.5 60.5 41.5 98.5v600c0 46.667 15 85 45 115s68.333 45 115 45s85 -15 115 -45s45 -68.333 45 -115
v-900z" />
    <glyph glyph-name="paragraph" unicode="&#xb6;" horiz-adv-x="1430" 
d="M1280 160c0 -46.667 -15 -85 -45 -115s-68.333 -45 -115 -45s-85 15 -115 45s-45 68.333 -45 115v1190h-130v-1190c0 -46.667 -15 -85 -45 -115s-68.333 -45 -115 -45s-85 15 -115 45s-45 68.333 -45 115v590c-127.333 0 -235.833 44.833 -325.5 134.5
s-134.5 198.167 -134.5 325.5s44.833 235.833 134.5 325.5s198.167 134.5 325.5 134.5h610c42.667 0 80 -16 112 -48s48 -69.333 48 -112v-1350zM510 1070v280c-38.667 0 -71.667 -13.667 -99 -41s-41 -60.333 -41 -99c0 -38 13.833 -70.833 41.5 -98.5
s60.5 -41.5 98.5 -41.5z" />
    <glyph glyph-name="middot" unicode="&#xb7;" 
d="M859 722c0 -55.333 -19.333 -102.333 -58 -141s-85.667 -58 -141 -58s-102.333 19.333 -141 58s-58 85.667 -58 141s19.333 101.833 58 139.5s85.667 56.5 141 56.5s102.333 -18.833 141 -56.5s58 -84.167 58 -139.5z" />
    <glyph glyph-name="cedilla" unicode="&#xb8;" horiz-adv-x="843" 
d="M793 -65c0 -106.667 -37.501 -197.5 -112.501 -272.5s-165.833 -112.5 -272.5 -112.5c-67.333 0 -131.666 17.333 -192.999 52c-64 35.333 -111 82.333 -141 141c-16 30.667 -24 58.667 -24 84c0 44 17 81.333 51 112s73 46 117 46c40 0 78.167 -19.167 114.5 -57.5
s61.5 -57.5 75.5 -57.5c43.333 0 65 21.667 65 65s-21.667 65 -65 65c-46.667 0 -85 15 -115 45s-45 68.333 -45 115s15 85 45 115s68.333 45 115 45c106.667 0 197.5 -37.5 272.5 -112.5s112.5 -165.833 112.5 -272.5z" />
    <glyph glyph-name="onesuperior" unicode="&#xb9;" horiz-adv-x="717" 
d="M667 768c0 -74.667 -40 -112 -120 -112h-300c-80 0 -120 37.333 -120 112s50 112 150 112v406c-38 -36 -72.667 -54 -104 -54c-32 0 -60.5 11.333 -85.5 34s-37.5 49.667 -37.5 81c0 28.667 12.333 54.667 37 78l210 196c34.667 32.667 67.667 49 99 49
c58 0 96 -24.667 114 -74c4.66699 -12.667 7 -33 7 -61v-655c100 0 150 -37.333 150 -112z" />
    <glyph glyph-name="ordmasculine" unicode="&#xba;" horiz-adv-x="1015" 
d="M965 1243c0 -122 -46 -224.335 -138 -307.002c-88.667 -80 -195 -120 -319 -120s-230.667 39.667 -320 119c-92 82.667 -138 185.334 -138 308.001s46 225.334 138 308.001c89.333 79.333 196 119 320 119s230.333 -40 319 -120c92 -82.667 138 -185 138 -307z
M965 609.998c0 -34.667 -11.333 -63.334 -34 -86.001s-51.334 -34 -86.001 -34h-675c-34.667 0 -63.334 11.333 -86.001 34s-34 51.334 -34 86.001s11.333 63.334 34 86.001s51.334 34 86.001 34h675c34.667 0 63.334 -11.333 86.001 -34s34 -51.334 34 -86.001zM725 1243
c0 58 -21.5 106.334 -64.5 145.001s-93.833 58 -152.5 58c-59.333 0 -110 -19 -152 -57c-44 -38.667 -66 -87.334 -66 -146.001c0 -58 21.667 -106.333 65 -145s94.333 -58 153 -58s109.5 19.333 152.5 58s64.5 87 64.5 145z" />
    <glyph glyph-name="guillemotright" unicode="&#xbb;" horiz-adv-x="1125" 
d="M1075 610c0 -21.333 -10 -52 -30 -92l-215 -430c-30 -60 -75.667 -90 -137 -90c-44 0 -83 15.167 -117 45.5s-51 67.5 -51 111.5c0 26 6.33301 51.667 19 77l189 378l-189 378c-12.667 25.333 -19 51 -19 77c0 44 17 81.167 51 111.5s73 45.5 117 45.5
c61.333 0 107 -30 137 -90l215 -430c20 -40 30 -70.667 30 -92zM600 610c0 -21.333 -10 -52 -30 -92l-215 -430c-30 -60 -75.667 -90 -137 -90c-44 0 -83 15.167 -117 45.5s-51 67.5 -51 111.5c0 26 6.33301 51.667 19 77l189 378l-189 378c-12.667 25.333 -19 51 -19 77
c0 44 17 81.167 51 111.5s73 45.5 117 45.5c61.333 0 107 -30 137 -90l215 -430c20 -40 30 -70.667 30 -92z" />
    <glyph glyph-name="onequarter" unicode="&#xbc;" horiz-adv-x="2047" 
d="M1997 269c0 -55.333 -26.6689 -90 -80.002 -104c-20 -5.33301 -68.333 -8 -145 -8v-203c0 -74 -40 -111 -120 -111s-120 37 -120 111v203h-307c-25.333 0 -43.666 1.33301 -54.999 4c-60 14 -90 49.667 -90 107c0 21.333 11.667 48.333 35 81l427 599
c30.667 43.333 66.334 65 107.001 65c82 0 123 -43.667 123 -131v-501c78.667 0 127 -2.33301 145 -7c53.333 -14 80 -49 80 -105zM1917 1509c0 -39.333 -15.333 -74.333 -46 -105l-1350 -1350c-31.333 -31.333 -66.333 -47 -105 -47c-40.667 0 -76.5 15.5 -107.5 46.5
s-46.5 66.833 -46.5 107.5c0 38.667 15.667 73.667 47 105l1350 1350c31.333 31.333 66 47 104 47c40.667 0 76.5 -15.5 107.5 -46.5s46.5 -66.833 46.5 -107.5zM666.998 768c0 -74.667 -40 -112 -120 -112h-300c-80 0 -120 37.333 -120 112s50 112 150 112v406
c-38 -36 -72.667 -54 -104 -54c-32 0 -60.5 11.333 -85.5 34s-37.5 49.667 -37.5 81c0 28.667 12.333 54.667 37 78l210 196c34.667 32.667 67.667 49 99 49c58 0 96 -24.667 114 -74c4.66699 -12.667 7 -33 7 -61v-655c100 0 150 -37.333 150 -112zM1532 381v149l-106 -149
h106z" />
    <glyph glyph-name="onehalf" unicode="&#xbd;" horiz-adv-x="2203" 
d="M2153 637c0 -98 -34.001 -180.998 -102.001 -248.998c-17.333 -17.333 -91.666 -72 -222.999 -164h205c80 0 120 -37.333 120 -112s-40 -112 -120 -112h-562c-92 0 -138 32.667 -138 98c0 36.667 21.667 71 65 103l128 64c88.667 44.667 168 95.667 238 153
c99.333 81.333 149 154.333 149 219c0 43.333 -16 79.166 -48 107.499s-69.667 42.5 -113 42.5s-81 -14.333 -113 -43s-48 -64.334 -48 -107.001c0 -74.667 -40 -112 -120 -112s-120 37.333 -120 112c0 107.333 40.333 197 121 269c78 70 171.333 105 280 105
s202 -35 280 -105c80.667 -72 121 -161.667 121 -269zM1917 1509c0 -39.333 -15.333 -74.333 -46 -105l-1350 -1350c-31.333 -31.333 -66.333 -47 -105 -47c-40.667 0 -76.5 15.5 -107.5 46.5s-46.5 66.833 -46.5 107.5c0 38.667 15.667 73.667 47 105l1350 1350
c31.333 31.333 66 47 104 47c40.667 0 76.5 -15.5 107.5 -46.5s46.5 -66.833 46.5 -107.5zM666.999 768.002c0 -74.667 -40 -112 -120 -112h-300c-80 0 -120 37.333 -120 112s50 112 150 112v406c-38 -36 -72.667 -54 -104 -54c-32 0 -60.5 11.333 -85.5 34
s-37.5 49.667 -37.5 81c0 28.667 12.333 54.667 37 78l210 196c34.667 32.667 67.667 49 99 49c58 0 96 -24.667 114 -74c4.66699 -12.667 7 -33 7 -61v-655c100 0 150 -37.333 150 -112z" />
    <glyph glyph-name="threequarters" unicode="&#xbe;" horiz-adv-x="2244" 
d="M2194 269c0 -55.333 -26.6689 -90 -80.002 -104c-20 -5.33301 -68.333 -8 -145 -8v-203c0 -74 -40 -111 -120 -111s-120 37 -120 111v203h-307c-25.333 0 -43.666 1.33301 -54.999 4c-60 14 -90 49.667 -90 107c0 21.333 11.667 48.333 35 81l427 599
c30.667 43.333 66.334 65 107.001 65c82 0 123 -43.667 123 -131v-501c78.667 0 127 -2.33301 145 -7c53.333 -14 80 -49 80 -105zM2114 1509c0 -39.333 -15.333 -74.333 -46 -105l-1350 -1350c-31.333 -31.333 -66.333 -47 -105 -47c-40.667 0 -76.5 15.5 -107.5 46.5
s-46.5 66.833 -46.5 107.5c0 38.667 15.667 73.667 47 105l1350 1350c31.333 31.333 66 47 104 47c40.667 0 76.5 -15.5 107.5 -46.5s46.5 -66.833 46.5 -107.5zM884.998 1572c0 -34.667 -18.3369 -67.6689 -55.0039 -99.002l-234 -200
c80.667 -29.333 146.334 -77.666 197.001 -144.999s76 -143.333 76 -228c0 -114.667 -43.333 -211 -130 -289c-83.333 -74.667 -183 -112 -299 -112c-73.333 0 -144 17.667 -212 53c-71.333 36.667 -124.666 85.667 -159.999 147c-12 20.667 -18 40.334 -18 59.001
c0 31.333 13 57.666 39 78.999s55 32 87 32c28 0 65.667 -24.333 113 -73s97.666 -73 150.999 -73c50.667 0 94.834 16.833 132.501 50.5s56.5 75.834 56.5 126.501s-18.667 92.667 -56 126s-81.666 50 -132.999 50c-36.667 0 -77.667 -14.667 -123 -44s-79 -44 -101 -44
c-31.333 0 -59.166 10.833 -83.499 32.5s-36.5 48.167 -36.5 79.5c0 32 15 61 45 87l300 257h-269c-80 0 -120 37.333 -120 112s40 112 120 112h577c90.667 0 136 -32 136 -96zM1728.99 380.998v149l-106 -149h106z" />
    <glyph glyph-name="questiondown" unicode="&#xbf;" horiz-adv-x="1020" 
d="M709 1031c0 -54.667 -19.333 -99.334 -58 -134.001s-85.667 -52 -141 -52s-102.333 17.333 -141 52s-58 79.334 -58 134.001s19.333 99.834 58 135.501s85.667 53.5 141 53.5s102.333 -17.833 141 -53.5s58 -80.834 58 -135.501zM970 -20
c0 -126.667 -45.334 -230.665 -136.001 -311.998c-88 -78.667 -196 -118 -324 -118s-236 39.333 -324 118c-90.667 81.333 -136 185.333 -136 312c0 127.333 45.333 231.666 136 312.999c86.667 78 194.334 117 323.001 117c18.667 0 28 9 28 27c0 16 -13.667 24 -41 24
c-17.333 -9.33301 -45.333 -14 -84 -14c-43.333 0 -80.5 15.5 -111.5 46.5s-46.5 68.167 -46.5 111.5c0 57.333 29.333 103 88 137c50 28.667 106 43 168 43c96.667 0 178.667 -33.833 246 -101.5s101 -149.834 101 -246.501c0 -95.333 -33.667 -177 -101 -245
s-148.5 -102 -243.5 -102s-142.5 -36.667 -142.5 -110s46.667 -110 140 -110s140 36.667 140 110c0 86.667 53.333 130 160 130s160 -43.333 160 -130z" />
    <glyph glyph-name="Agrave" unicode="&#xc0;" horiz-adv-x="1775" 
d="M1214 1815c0 -44 -15.333 -82.833 -46 -116.5s-67.667 -50.5 -111 -50.5c-25.333 0 -50.666 6.33301 -75.999 19l-300 150c-60 30 -90 76 -90 138c0 44 15.333 82.833 46 116.5s67.667 50.5 111 50.5c25.333 0 50.666 -6.33301 75.999 -19l300 -150
c60 -30 90 -76 90 -138zM1725 155c0 -44 -16.999 -81.166 -50.999 -111.499s-73 -45.5 -117 -45.5c-62 0 -108 30 -138 90l-181 362h-702l-181 -362c-30 -60 -75.667 -90 -137 -90c-44 0 -83 15.167 -117 45.5s-51 67.5 -51 111.5c0 26 6.33301 51.667 19 77l662 1322
c39.333 78.667 91.333 118 156 118c65.333 0 117.666 -39.333 156.999 -118l661 -1322c13.333 -26.667 20 -52.334 20 -77.001zM1078 770.001l-191 382l-191 -382h382z" />
    <glyph glyph-name="Aacute" unicode="&#xc1;" horiz-adv-x="1775" 
d="M1214 1955c0 -62 -30 -108 -90 -138l-300 -150c-25.333 -12.667 -50.666 -19 -75.999 -19c-43.333 0 -80.333 16.833 -111 50.5s-46 72.5 -46 116.5c0 62 30 108 90 138l300 150c25.333 12.667 50.666 19 75.999 19c43.333 0 80.333 -16.833 111 -50.5
s46 -72.5 46 -116.5zM1725 155c0 -44 -16.999 -81.166 -50.999 -111.499s-73 -45.5 -117 -45.5c-62 0 -108 30 -138 90l-181 362h-702l-181 -362c-30 -60 -75.667 -90 -137 -90c-44 0 -83 15.167 -117 45.5s-51 67.5 -51 111.5c0 26 6.33301 51.667 19 77l662 1322
c39.333 78.667 91.333 118 156 118c65.333 0 117.666 -39.333 156.999 -118l661 -1322c13.333 -26.667 20 -52.334 20 -77.001zM1078 770.001l-191 382l-191 -382h382z" />
    <glyph glyph-name="Acircumflex" unicode="&#xc2;" horiz-adv-x="1775" 
d="M1275 1814c0 -44 -15.833 -82.833 -47.5 -116.5s-69.167 -50.5 -112.5 -50.5c-30.667 0 -61 10 -91 30l-137 91l-136 -91c-30 -20 -60.333 -30 -91 -30c-43.333 0 -80.833 16.833 -112.5 50.5s-47.5 72.5 -47.5 116.5c0 52.667 24.667 95.667 74 129l212 142
c38 25.333 71.667 38 101 38s63 -12.667 101 -38l213 -142c49.333 -32.667 74 -75.667 74 -129zM1725 155c0 -43.333 -16.999 -80.332 -50.999 -110.999s-73 -46 -117 -46c-62 0 -108 30 -138 90l-181 362h-702l-181 -362c-30 -60 -75.667 -90 -137 -90
c-44 0 -83 15.167 -117 45.5s-51 67.5 -51 111.5c0 26 6.33301 51.667 19 77l662 1322c39.333 78.667 91.333 118 156 118c65.333 0 117.666 -39.333 156.999 -118l661 -1322c13.333 -26.667 20 -52.334 20 -77.001zM1078 770.001l-191 382l-191 -382h382z" />
    <glyph glyph-name="Atilde" unicode="&#xc3;" horiz-adv-x="1775" 
d="M1364 1891c0 -72.667 -34.666 -132.334 -103.999 -179.001c-62 -41.333 -131.333 -62 -208 -62c-56 0 -110 16 -162 48c-4.66699 2.66699 -50.667 36.667 -138 102l-13 1c-28.667 -51.333 -72.667 -77 -132 -77c-44.667 0 -83.5 14.833 -116.5 44.5
s-49.5 66.5 -49.5 110.5c0 72.667 34.667 132.334 104 179.001c61.333 41.333 130.333 62 207 62c67.333 0 122.333 -15.667 165 -47l134 -101h16c29.333 49.333 72.666 74 129.999 74c44.667 0 83.667 -14.833 117 -44.5s50 -66.5 50 -110.5zM1725 155
c0 -44 -16.999 -81.166 -50.999 -111.499s-73 -45.5 -117 -45.5c-62 0 -108 30 -138 90l-181 362h-702l-181 -362c-30 -60 -75.667 -90 -137 -90c-44 0 -83 15.167 -117 45.5s-51 67.5 -51 111.5c0 26 6.33301 51.667 19 77l662 1322c39.333 78.667 91.333 118 156 118
c65.333 0 117.666 -39.333 156.999 -118l661 -1322c13.333 -26.667 20 -52.334 20 -77.001zM1078 770.001l-191 382l-191 -382h382z" />
    <glyph glyph-name="Adieresis" unicode="&#xc4;" horiz-adv-x="1775" 
d="M1325 1848c0 -55.333 -19.167 -102.166 -57.5 -140.499s-85.166 -57.5 -140.499 -57.5s-102 19.167 -140 57.5s-57 85.166 -57 140.499s19 102 57 140s84.667 57 140 57s102.166 -19 140.499 -57s57.5 -84.667 57.5 -140zM844 1848
c0 -55.333 -19.167 -102.166 -57.5 -140.499s-85.166 -57.5 -140.499 -57.5s-102 19.167 -140 57.5s-57 85.166 -57 140.499s19 102 57 140s84.667 57 140 57s102.166 -19 140.499 -57s57.5 -84.667 57.5 -140zM1725 155c0 -44 -16.999 -81.166 -50.999 -111.499
s-73 -45.5 -117 -45.5c-62 0 -108 30 -138 90l-181 362h-702l-181 -362c-30 -60 -75.667 -90 -137 -90c-44 0 -83 15.167 -117 45.5s-51 67.5 -51 111.5c0 26 6.33301 51.667 19 77l662 1322c39.333 78.667 91.333 118 156 118c65.333 0 117.666 -39.333 156.999 -118
l661 -1322c13.333 -26.667 20 -52.334 20 -77.001zM1078 770.001l-191 382l-191 -382h382z" />
    <glyph glyph-name="Aring" unicode="&#xc5;" horiz-adv-x="1775" 
d="M1725 155c0 -43.333 -17 -80.332 -51 -110.999s-73 -46 -117 -46c-62 0 -108 30 -138 90l-181 362h-702l-181 -362c-30 -60 -75.667 -90 -137 -90c-44 0 -83 15.167 -117 45.5s-51 67.5 -51 111.5c0 26 6.33301 51.667 19 77l641 1281c-104 63.333 -156 156 -156 278
c0 92.667 32.5 171.5 97.5 236.5s143.5 97.5 235.5 97.5c92.667 0 171.5 -32.5 236.5 -97.5s97.5 -143.833 97.5 -236.5c0 -122 -52 -214.667 -156 -278l640 -1281c13.333 -26.667 20 -52.334 20 -77.001zM981 1791c0 26 -9.16797 48.167 -27.501 66.5
s-40.5 27.5 -66.5 27.5c-25.333 0 -47.166 -9.33301 -65.499 -28s-27.5 -40.667 -27.5 -66c0 -58.667 31 -88 93 -88c62.667 0 94 29.333 94 88zM1078 770.001l-191 382l-191 -382h382z" />
    <glyph glyph-name="AE" unicode="&#xc6;" horiz-adv-x="2073" 
d="M2023 1510c0 -46.667 -15 -84.999 -45 -114.999s-68.333 -45 -115 -45h-590v-355h440c46.667 0 85 -15 115 -45s45 -68.333 45 -115s-15 -85 -45 -115s-68.333 -45 -115 -45h-440v-355l589 -1c46.667 0 85 -15 115 -45s45 -68.333 45 -115s-15 -85 -45 -115
s-68.333 -45 -115 -45l-749 1c-42.667 0 -80 16 -112 48s-48 69.333 -48 112v290h-355l-252 -379c-32.667 -48.667 -75.667 -73 -129 -73c-43.333 0 -82 15.667 -116 47s-51 68.666 -51 111.999c0 31.333 10 62 30 92l900 1350c31.333 47.333 74 71 128 71h755
c46.667 0 85 -15 115 -45s45 -68.333 45 -115zM953 770.001v212l-141 -212h141z" />
    <glyph glyph-name="Ccedilla" unicode="&#xc7;" horiz-adv-x="1575" 
d="M1525 356c0 -94.667 -94.334 -186.669 -283.001 -276.002c18.667 -46 28 -94.333 28 -145c0 -106.667 -37.5 -197.5 -112.5 -272.5s-165.833 -112.5 -272.5 -112.5c-67.333 0 -131.666 17.333 -192.999 52c-63.333 35.333 -110.333 82.333 -141 141
c-16 30.667 -24 58.667 -24 84c0 82 56 123 168 123c39.333 0 77.333 -13.333 114 -40s62 -40 76 -40c43.333 0 65 21.667 65 65s-21.667 65 -65 65c-231.333 0 -428.333 81.333 -591 244s-244 359.667 -244 591s81.333 428.333 244 591s359.667 244 591 244
c191.333 0 364 -60 518 -180c81.333 -63.333 122 -122 122 -176c0 -43.333 -16.5 -81.5 -49.5 -114.5s-71.167 -49.5 -114.5 -49.5c-36.667 0 -74 16.333 -112 49c-8.66699 8.66699 -25.334 23.334 -50.001 44.001c-90 71.333 -194.667 107 -314 107
c-142.667 0 -264.167 -50.167 -364.5 -150.5s-150.5 -221.833 -150.5 -364.5s50.167 -264.167 150.5 -364.5s221.833 -150.5 364.5 -150.5c118.667 0 223.334 35.667 314.001 107c9.33301 8.66699 26 23.334 50 44.001c38.667 32.667 76 49 112 49
c43.333 0 81.5 -16.5 114.5 -49.5s49.5 -71.167 49.5 -114.5z" />
    <glyph glyph-name="Egrave" unicode="&#xc8;" horiz-adv-x="1270" 
d="M1220 1510c0 -46.667 -15 -85.001 -45 -115.001s-68.333 -45 -115 -45h-590v-355h440c46.667 0 85 -15 115 -45s45 -68.333 45 -115s-15 -85 -45 -115s-68.333 -45 -115 -45h-440v-355h590c46.667 0 85 -15 115 -45s45 -68.333 45 -115s-15 -85 -45 -115
s-68.333 -45 -115 -45h-750c-42.667 0 -80 16 -112 48s-48 69.333 -48 112v1350c0 42.667 16 80 48 112s69.333 48 112 48h447l-294 147c-60 30 -90 76 -90 138c0 44 15.333 82.833 46 116.5s67.667 50.5 111 50.5c26 0 51.667 -6.33301 77 -19l300 -150
c60 -30 90 -76 90 -138c0 -63.333 -26.667 -111.666 -80 -144.999h143c46.667 0 85 -15 115 -45s45 -68.333 45 -115z" />
    <glyph glyph-name="Eacute" unicode="&#xc9;" horiz-adv-x="1270" 
d="M1220 1510c0 -46.667 -15 -84.999 -45 -114.999s-68.333 -45 -115 -45h-590v-355h440c46.667 0 85 -15 115 -45s45 -68.333 45 -115s-15 -85 -45 -115s-68.333 -45 -115 -45h-440v-355h590c46.667 0 85 -15 115 -45s45 -68.333 45 -115s-15 -85 -45 -115
s-68.333 -45 -115 -45h-750c-42.667 0 -80 16 -112 48s-48 69.333 -48 112v1350c0 42.667 16 80 48 112s69.333 48 112 48h143c-53.333 33.333 -80 81.666 -80 144.999c0 62 30 108 90 138l300 150c25.333 12.667 51 19 77 19c43.333 0 80.333 -16.833 111 -50.5
s46 -72.5 46 -116.5c0 -62 -30 -108 -90 -138l-294 -147h447c46.667 0 85 -15 115 -45s45 -68.333 45 -115z" />
    <glyph glyph-name="Ecircumflex" unicode="&#xca;" horiz-adv-x="1270" 
d="M1220 1510c0 -46.667 -15 -85 -45 -115s-68.333 -45 -115 -45h-590v-355h440c46.667 0 85 -15 115 -45s45 -68.333 45 -115s-15 -85 -45 -115s-68.333 -45 -115 -45h-440v-355h590c46.667 0 85 -15 115 -45s45 -68.333 45 -115s-15 -85 -45 -115s-68.333 -45 -115 -45
h-750c-42.667 0 -80 16 -112 48s-48 69.333 -48 112v1350c0 42.667 16 80 48 112s69.333 48 112 48h70c-54.667 34 -82 82 -82 144c0 53.333 24.333 96.333 73 129l213 142c38 25.333 71.667 38 101 38s63 -12.667 101 -38l213 -142c48.667 -32.667 73 -75.667 73 -129
c0 -62 -27.333 -110 -82 -144h70c46.667 0 85 -15 115 -45s45 -68.333 45 -115zM832 1670l-147 98.001c-32 -22.667 -81 -55.334 -147 -98.001h294z" />
    <glyph glyph-name="Edieresis" unicode="&#xcb;" horiz-adv-x="1270" 
d="M1220 1510c0 -46.667 -14.998 -85 -44.998 -115s-68.333 -45 -115 -45h-590v-355h440c46.667 0 85 -15 115 -45s45 -68.333 45 -115s-15 -85 -45 -115s-68.333 -45 -115 -45h-440v-355h590c46.667 0 85 -15 115 -45s45 -68.333 45 -115s-15 -85 -45 -115
s-68.333 -45 -115 -45h-750c-42.667 0 -80 16 -112 48s-48 69.333 -48 112v1350c0 42.667 16 80 48 112s69.333 48 112 48h63c-73.333 36 -110 95.333 -110 178c0 55.333 19 102 57 140s84.667 57 140 57s102.166 -19 140.499 -57s57.5 -84.667 57.5 -140
c0 -82.667 -37 -142 -111 -178h276c-73.333 36 -110 95.333 -110 178c0 55.333 19 102 57 140s84.667 57 140 57s102.166 -19 140.499 -57s57.5 -84.667 57.5 -140c0 -82.667 -37 -142 -111 -178h63c46.667 0 85 -15 115 -45s45 -68.333 45 -115z" />
    <glyph glyph-name="Igrave" unicode="&#xcc;" horiz-adv-x="620" 
d="M622 1815c0 -44 -15.333 -82.833 -46 -116.5s-67.667 -50.5 -111 -50.5c-26 0 -51.667 6.33301 -77 19l-300 150c-60 30 -90 76 -90 138c0 44 15.333 82.833 46 116.5s67.667 50.5 111 50.5c26 0 51.667 -6.33301 77 -19l300 -150c60 -30 90 -76 90 -138zM467 160
c0 -46.667 -15 -85 -45 -115s-68.333 -45 -115 -45s-85 15 -115 45s-45 68.333 -45 115v1350c0 46.667 15 85 45 115s68.333 45 115 45s85 -15 115 -45s45 -68.333 45 -115v-1350z" />
    <glyph glyph-name="Iacute" unicode="&#xcd;" horiz-adv-x="620" 
d="M622 1955c0 -62 -30 -108 -90 -138l-300 -150c-25.333 -12.667 -51 -19 -77 -19c-43.333 0 -80.333 16.833 -111 50.5s-46 72.5 -46 116.5c0 62 30 108 90 138l300 150c25.333 12.667 51 19 77 19c43.333 0 80.333 -16.833 111 -50.5s46 -72.5 46 -116.5zM467 160
c0 -46.667 -15 -85 -45 -115s-68.333 -45 -115 -45s-85 15 -115 45s-45 68.333 -45 115v1350c0 46.667 15 85 45 115s68.333 45 115 45s85 -15 115 -45s45 -68.333 45 -115v-1350z" />
    <glyph glyph-name="Icircumflex" unicode="&#xce;" horiz-adv-x="620" 
d="M697 1814c0 -43.333 -15.6689 -82 -47.002 -116s-68.666 -51 -111.999 -51c-31.333 0 -62 10 -92 30l-136 91l-136 -91c-30 -20 -60.667 -30 -92 -30c-43.333 0 -80.666 17 -111.999 51s-47 72.667 -47 116c0 53.333 24.333 96.333 73 129l213 142
c38 25.333 71.667 38 101 38s63 -12.667 101 -38l213 -142c48.667 -32.667 73 -75.667 73 -129zM469.998 160c0 -46.667 -15 -85 -45 -115s-68.333 -45 -115 -45s-85 15 -115 45s-45 68.333 -45 115v1350c0 46.667 15 85 45 115s68.333 45 115 45s85 -15 115 -45
s45 -68.333 45 -115v-1350z" />
    <glyph glyph-name="Idieresis" unicode="&#xcf;" horiz-adv-x="620" 
d="M732 1848c0 -55.333 -19.167 -102.166 -57.5 -140.499s-85.166 -57.5 -140.499 -57.5s-102 19.167 -140 57.5s-57 85.166 -57 140.499s19 102 57 140s84.667 57 140 57s102.166 -19 140.499 -57s57.5 -84.667 57.5 -140zM283 1848
c0 -54.667 -19.3311 -101.332 -57.998 -139.999s-85.334 -58 -140.001 -58c-55.333 0 -102 19.167 -140 57.5s-57 85.166 -57 140.499s19 102 57 140s84.667 57 140 57s102.166 -19 140.499 -57s57.5 -84.667 57.5 -140zM469.002 160.002
c0 -46.667 -14.832 -85 -44.499 -115s-67.834 -45 -114.501 -45c-47.333 0 -86 14.833 -116 44.5s-45 68.167 -45 115.5v1350c0 46.667 15 85 45 115s68.333 45 115 45c47.333 0 85.833 -14.833 115.5 -44.5s44.5 -68.167 44.5 -115.5v-1350z" />
    <glyph glyph-name="Eth" unicode="&#xd0;" horiz-adv-x="1680" 
d="M1630 835c0 -232 -81.167 -429.167 -243.5 -591.5s-359.5 -243.5 -591.5 -243.5h-450c-43.333 -0 -80.833 15.833 -112.5 47.5s-47.5 69.167 -47.5 112.5v555c-60 0 -101.667 5 -125 15c-40 17.333 -60 52.333 -60 105s20 87.667 60 105c23.333 10 65 15 125 15v555
c0 43.333 15.833 80.833 47.5 112.5s69.167 47.5 112.5 47.5h450c232 0 429.167 -81.167 591.5 -243.5s243.5 -359.5 243.5 -591.5zM1310 835c0 142.667 -50.167 264.169 -150.5 364.502s-221.833 150.5 -364.5 150.5h-290v-395h65c34.667 0 63.334 -11.333 86.001 -34
s34 -51.334 34 -86.001s-11.333 -63.334 -34 -86.001s-51.334 -34 -86.001 -34h-65v-395h290c142.667 0 264.167 50.167 364.5 150.5s150.5 221.833 150.5 364.5z" />
    <glyph glyph-name="Ntilde" unicode="&#xd1;" horiz-adv-x="1670" 
d="M1297 1891c0 -72.667 -35 -132.333 -105 -179c-62 -41.333 -131 -62 -207 -62c-56.667 0 -110.667 15.667 -162 47c-8.66699 5.33301 -54.667 39.666 -138 102.999l-13 1c-28.667 -51.333 -72.667 -77 -132 -77c-44.667 0 -83.5 14.833 -116.5 44.5
s-49.5 66.5 -49.5 110.5c0 72.667 34.667 132.334 104 179.001c61.333 41.333 130.333 62 207 62c68 0 123 -15.667 165 -47l133 -101h17c28.667 49.333 72 74 130 74c44.667 0 83.667 -14.833 117 -44.5s50 -66.5 50 -110.5zM1520 159.001
c0 -46 -15.833 -84.5 -47.5 -115.5s-70.5 -46.5 -116.5 -46.5c-48 0 -94 28.333 -138 85l-748 962v-884c0 -46.667 -15 -85 -45 -115s-68.333 -45 -115 -45s-85 15 -115 45s-45 68.333 -45 115v1351c0 46 15.833 84.5 47.5 115.5s70.5 46.5 116.5 46.5
c48 0 94 -28.333 138 -85l748 -962v884c0 46.667 15 85 45 115s68.333 45 115 45s85 -15 115 -45s45 -68.333 45 -115v-1351z" />
    <glyph glyph-name="Ograve" unicode="&#xd2;" horiz-adv-x="1770" 
d="M1720 835c0 -231.333 -81.333 -428.334 -244 -591.001s-359.667 -244 -591 -244s-428.333 81.333 -591 244s-244 359.667 -244 591s81.333 428.333 244 591s359.667 244 591 244c33.333 0 66.333 -2 99 -6c-34.667 16 -102.667 49.667 -204 101
c-19.333 9.33301 -53.333 26.666 -102 51.999c-60 33.333 -90 79.333 -90 138c0 44 15.333 82.833 46 116.5s67.667 50.5 111 50.5c26 0 51.667 -6.33301 77 -19l300 -150c60 -30 90 -76 90 -138c0 -40.667 -13.333 -77.167 -40 -109.5s-59.667 -51.166 -99 -56.499
c190 -43.333 345.333 -141.166 466 -293.499s181 -325.833 181 -520.5zM1400 834.999c0 142.667 -50.167 264.167 -150.5 364.5s-221.833 150.5 -364.5 150.5s-264.167 -50.167 -364.5 -150.5s-150.5 -221.833 -150.5 -364.5s50.167 -264.167 150.5 -364.5
s221.833 -150.5 364.5 -150.5s264.167 50.167 364.5 150.5s150.5 221.833 150.5 364.5z" />
    <glyph glyph-name="Oacute" unicode="&#xd3;" horiz-adv-x="1770" 
d="M1720 835c0 -231.333 -81.334 -428.332 -244.001 -590.999s-359.667 -244 -591 -244s-428.333 81.333 -591 244s-244 359.667 -244 591c0 198 61.833 373.333 185.5 526s282.167 249.667 475.5 291c-82 21.333 -123 75.666 -123 162.999c0 62 30 108 90 138l300 150
c25.333 12.667 51 19 77 19c43.333 0 80.333 -16.833 111 -50.5s46 -72.5 46 -116.5c0 -62 -30 -108 -90 -138l-299 -149c20.667 1.33301 41.334 2 62.001 2c231.333 0 428.333 -81.333 591 -244s244 -359.667 244 -591zM1400 835.001
c0 142.667 -50.167 264.167 -150.5 364.5s-221.833 150.5 -364.5 150.5s-264.167 -50.167 -364.5 -150.5s-150.5 -221.833 -150.5 -364.5s50.167 -264.167 150.5 -364.5s221.833 -150.5 364.5 -150.5s264.167 50.167 364.5 150.5s150.5 221.833 150.5 364.5z" />
    <glyph glyph-name="Ocircumflex" unicode="&#xd4;" horiz-adv-x="1770" 
d="M1272 1814c0 -43.333 -15.6689 -82 -47.002 -116s-68.666 -51 -111.999 -51c-31.333 0 -62 10 -92 30l-136 91l-136 -91c-30 -20 -60.667 -30 -92 -30c-43.333 0 -80.666 17 -111.999 51s-47 72.667 -47 116c0 53.333 24.333 96.333 73 129l213 142
c38 25.333 71.667 38 101 38s63 -12.667 101 -38l213 -142c48.667 -32.667 73 -75.667 73 -129zM1720 835c0 -231.333 -81.333 -428.333 -244 -591s-359.667 -244 -591 -244s-428.333 81.333 -591 244s-244 359.667 -244 591s81.333 428.333 244 591s359.667 244 591 244
s428.333 -81.333 591 -244s244 -359.667 244 -591zM1400 835c0 142.667 -50.167 264.167 -150.5 364.5s-221.833 150.5 -364.5 150.5s-264.167 -50.167 -364.5 -150.5s-150.5 -221.833 -150.5 -364.5s50.167 -264.167 150.5 -364.5s221.833 -150.5 364.5 -150.5
s264.167 50.167 364.5 150.5s150.5 221.833 150.5 364.5z" />
    <glyph glyph-name="Otilde" unicode="&#xd5;" horiz-adv-x="1770" 
d="M1720 835c0 -231.333 -81.332 -428.334 -243.999 -591.001s-359.667 -244 -591 -244s-428.333 81.333 -591 244s-244 359.667 -244 591c0 232 81.167 429.167 243.5 591.5s359.5 243.5 591.5 243.5c17.333 0 34.666 -0.666992 51.999 -2c-26.667 12 -58.667 33 -96 63
c-46 36.667 -76.333 59.667 -91 69l-13 1c-28.667 -51.333 -72.667 -77 -132 -77c-44 0 -82.833 15 -116.5 45s-50.5 66.667 -50.5 110c0 72.667 35 132.334 105 179.001c62 41.333 131 62 207 62c66.667 0 121.334 -15.667 164.001 -47l134 -101h17
c28.667 49.333 72 74 130 74c44.667 0 83.667 -14.833 117 -44.5s50 -66.5 50 -110.5c0 -70.667 -32.667 -129 -98 -175c-57.333 -40 -123.333 -62 -198 -66c191.333 -42 348.166 -139.333 470.499 -292s183.5 -327 183.5 -523zM1400 834.999
c0 142.667 -50.167 264.167 -150.5 364.5s-221.833 150.5 -364.5 150.5s-264.167 -50.167 -364.5 -150.5s-150.5 -221.833 -150.5 -364.5s50.167 -264.167 150.5 -364.5s221.833 -150.5 364.5 -150.5s264.167 50.167 364.5 150.5s150.5 221.833 150.5 364.5z" />
    <glyph glyph-name="Odieresis" unicode="&#xd6;" horiz-adv-x="1770" 
d="M1324 1848c0 -55.333 -19.167 -102.166 -57.5 -140.499s-85.166 -57.5 -140.499 -57.5s-102 19.167 -140 57.5s-57 85.166 -57 140.499s19 102 57 140s84.667 57 140 57s102.166 -19 140.499 -57s57.5 -84.667 57.5 -140zM841 1848
c0 -55.333 -19.167 -102.166 -57.5 -140.499s-85.166 -57.5 -140.499 -57.5s-102 19.167 -140 57.5s-57 85.166 -57 140.499s19 102 57 140s84.667 57 140 57s102.166 -19 140.499 -57s57.5 -84.667 57.5 -140zM1720 835c0 -231.333 -81.333 -428.333 -244 -591
s-359.667 -244 -591 -244s-428.333 81.333 -591 244s-244 359.667 -244 591s81.333 428.333 244 591s359.667 244 591 244s428.333 -81.333 591 -244s244 -359.667 244 -591zM1400 835c0 142.667 -50.167 264.167 -150.5 364.5s-221.833 150.5 -364.5 150.5
s-264.167 -50.167 -364.5 -150.5s-150.5 -221.833 -150.5 -364.5s50.167 -264.167 150.5 -364.5s221.833 -150.5 364.5 -150.5s264.167 50.167 364.5 150.5s150.5 221.833 150.5 364.5z" />
    <glyph glyph-name="multiply" unicode="&#xd7;" 
d="M1141 406c0 -44 -16.333 -82.5 -49 -115.5s-71 -49.5 -115 -49.5c-41.333 0 -78.666 16.667 -111.999 50l-205 205l-205 -205c-33.333 -33.333 -70.666 -50 -111.999 -50c-44 0 -82.333 16.5 -115 49.5s-49 71.5 -49 115.5c0 40.667 16.667 77.667 50 111l205 205
l-205 206c-33.333 33.333 -50 70.333 -50 111c0 44 16.333 82.5 49 115.5s71 49.5 115 49.5c41.333 0 78.666 -16.667 111.999 -50l205 -205l205 205c33.333 33.333 70.666 50 111.999 50c44 0 82.333 -16.5 115 -49.5s49 -71.5 49 -115.5
c0 -40.667 -16.667 -77.667 -50 -111l-205 -206l205 -205c33.333 -33.333 50 -70.333 50 -111z" />
    <glyph glyph-name="Oslash" unicode="&#xd8;" horiz-adv-x="1776" 
d="M1726 1509c0 -36.667 -17.333 -75.333 -52 -116c-8 -9.33301 -39.333 -40 -94 -92c95.333 -140.667 143 -296 143 -466c0 -231.333 -81.333 -428.333 -244 -591s-359.667 -244 -591 -244c-170 -0 -325.333 47.333 -466 142c-49.333 -52 -80 -83 -92 -93
c-41.333 -34.667 -80 -52 -116 -52c-43.333 0 -81.5 16.5 -114.5 49.5s-49.5 71.167 -49.5 114.5c0 36 17.333 74.667 52 116c10 12 41 42.667 93 92c-94.667 140.667 -142 296 -142 466c0 231.333 81.333 428.333 244 591s359.667 244 591 244
c170 0 325.333 -47.333 466 -142c48.667 51.333 79.334 82.333 92.001 93c40.667 34.667 79 52 115 52c43.333 0 81.666 -16.5 114.999 -49.5s50 -71.167 50 -114.5zM1403 835.001c0 82.667 -18.668 160.333 -56.001 233l-692 -692c72.667 -37.333 150.334 -56 233.001 -56
c142.667 0 264.167 50.167 364.5 150.5s150.5 221.833 150.5 364.5zM1121 1294c-73.333 37.333 -151 56.001 -233 56.001c-142.667 0 -264.167 -50.167 -364.5 -150.5s-150.5 -221.833 -150.5 -364.5c0 -82.667 18.667 -160.334 56 -233.001z" />
    <glyph glyph-name="Ugrave" unicode="&#xd9;" horiz-adv-x="1420" 
d="M1022 1815c0 -44 -15.333 -82.833 -46 -116.5s-67.667 -50.5 -111 -50.5c-26 0 -51.667 6.33301 -77 19l-300 150c-60 30 -90 76 -90 138c0 44 15.333 82.833 46 116.5s67.667 50.5 111 50.5c26 0 51.667 -6.33301 77 -19l300 -150c60 -30 90 -76 90 -138zM1320 610
c0 -169.333 -59.333 -313.333 -178 -432s-262.667 -178 -432 -178s-313.333 59.333 -432 178s-178 262.667 -178 432v900c0 46.667 15 85 45 115s68.333 45 115 45s85 -15 115 -45s45 -68.333 45 -115v-900c0 -80.667 28.167 -149.167 84.5 -205.5
s124.833 -84.5 205.5 -84.5s149.167 28.167 205.5 84.5s84.5 124.833 84.5 205.5v900c0 46.667 15 85 45 115s68.333 45 115 45s85 -15 115 -45s45 -68.333 45 -115v-900z" />
    <glyph glyph-name="Uacute" unicode="&#xda;" horiz-adv-x="1420" 
d="M1022 1955c0 -62 -30 -108 -90 -138l-300 -150c-25.333 -12.667 -51 -19 -77 -19c-43.333 0 -80.333 16.833 -111 50.5s-46 72.5 -46 116.5c0 62 30 108 90 138l300 150c25.333 12.667 51 19 77 19c43.333 0 80.333 -16.833 111 -50.5s46 -72.5 46 -116.5zM1320 610
c0 -169.333 -59.333 -313.333 -178 -432s-262.667 -178 -432 -178s-313.333 59.333 -432 178s-178 262.667 -178 432v900c0 46.667 15 85 45 115s68.333 45 115 45s85 -15 115 -45s45 -68.333 45 -115v-900c0 -80.667 28.167 -149.167 84.5 -205.5
s124.833 -84.5 205.5 -84.5s149.167 28.167 205.5 84.5s84.5 124.833 84.5 205.5v900c0 46.667 15 85 45 115s68.333 45 115 45s85 -15 115 -45s45 -68.333 45 -115v-900z" />
    <glyph glyph-name="Ucircumflex" unicode="&#xdb;" horiz-adv-x="1420" 
d="M1097 1814c0 -43.333 -15.6689 -82 -47.002 -116s-68.666 -51 -111.999 -51c-31.333 0 -62 10 -92 30l-136 91l-136 -91c-30 -20 -60.667 -30 -92 -30c-43.333 0 -80.666 17 -111.999 51s-47 72.667 -47 116c0 53.333 24.333 96.333 73 129l213 142
c38 25.333 71.667 38 101 38s63 -12.667 101 -38l213 -142c48.667 -32.667 73 -75.667 73 -129zM1320 610c0 -169.333 -59.333 -313.333 -178 -432s-262.667 -178 -432 -178s-313.333 59.333 -432 178s-178 262.667 -178 432v900c0 46.667 15 85 45 115s68.333 45 115 45
s85 -15 115 -45s45 -68.333 45 -115v-900c0 -80.667 28.167 -149.167 84.5 -205.5s124.833 -84.5 205.5 -84.5s149.167 28.167 205.5 84.5s84.5 124.833 84.5 205.5v900c0 46.667 15 85 45 115s68.333 45 115 45s85 -15 115 -45s45 -68.333 45 -115v-900z" />
    <glyph glyph-name="Udieresis" unicode="&#xdc;" horiz-adv-x="1420" 
d="M1135 1848c0 -55.333 -19.167 -102.166 -57.5 -140.499s-85.166 -57.5 -140.499 -57.5s-102 19.167 -140 57.5s-57 85.166 -57 140.499s19 102 57 140s84.667 57 140 57s102.166 -19 140.499 -57s57.5 -84.667 57.5 -140zM680 1848
c0 -55.333 -19.167 -102.166 -57.5 -140.499s-85.166 -57.5 -140.499 -57.5s-102 19.167 -140 57.5s-57 85.166 -57 140.499s19 102 57 140s84.667 57 140 57s102.166 -19 140.499 -57s57.5 -84.667 57.5 -140zM1320 610c0 -169.333 -59.333 -313.333 -178 -432
s-262.667 -178 -432 -178s-313.333 59.333 -432 178s-178 262.667 -178 432v900c0 46.667 15 85 45 115s68.333 45 115 45s85 -15 115 -45s45 -68.333 45 -115v-900c0 -80.667 28.167 -149.167 84.5 -205.5s124.833 -84.5 205.5 -84.5s149.167 28.167 205.5 84.5
s84.5 124.833 84.5 205.5v900c0 46.667 15 85 45 115s68.333 45 115 45s85 -15 115 -45s45 -68.333 45 -115v-900z" />
    <glyph glyph-name="Yacute" unicode="&#xdd;" horiz-adv-x="1476" 
d="M1050 1955c0 -62 -30.334 -108 -91.001 -138l-300 -150c-25.333 -12.667 -50.666 -19 -75.999 -19c-43.333 0 -80.333 16.833 -111 50.5s-46 72.5 -46 116.5c0 62 30 108 90 138l300 150c25.333 12.667 51 19 77 19c43.333 0 80.333 -16.833 111 -50.5
s46 -72.5 46 -116.5zM1426 1511c0 -34 -12.333 -67 -37 -99l-491 -632v-620c0 -46.667 -15 -85 -45 -115s-68.333 -45 -115 -45s-85 15 -115 45s-45 68.333 -45 115v620l-491 632c-24.667 32 -37 65 -37 99c0 43.333 16.833 81.166 50.5 113.499s72.167 48.5 115.5 48.5
c48 0 89 -21.667 123 -65l399 -512l399 512c34 43.333 74.667 65 122 65c44 0 82.833 -16.167 116.5 -48.5s50.5 -70.166 50.5 -113.499z" />
    <glyph glyph-name="Thorn" unicode="&#xde;" horiz-adv-x="1420" 
d="M1370 835c0 -169.333 -59.333 -313.333 -178 -432s-262.667 -178 -432 -178h-290v-65c0 -46.667 -15 -85 -45 -115s-68.333 -45 -115 -45s-85 15 -115 45s-45 68.333 -45 115v1350c0 46.667 15 85 45 115s68.333 45 115 45s85 -15 115 -45s45 -68.333 45 -115v-65h290
c169.333 0 313.333 -59.333 432 -178s178 -262.667 178 -432zM1050 835c0 80.667 -28.167 149.167 -84.5 205.5s-124.833 84.5 -205.5 84.5h-290v-580h290c80.667 0 149.167 28.167 205.5 84.5s84.5 124.833 84.5 205.5z" />
    <glyph glyph-name="germandbls" unicode="&#xdf;" horiz-adv-x="1428" 
d="M1378 422c0 -117.333 -41.168 -216.998 -123.501 -298.998s-182.166 -123 -299.499 -123c-89.333 0 -172.333 27.167 -249 81.5s-127 123.833 -151 208.5c-4.66699 17.333 -7 32.333 -7 45c0 43.333 16.833 80 50.5 110s72.5 45 116.5 45
c50.667 0 95.5 -28.333 134.5 -85s74.167 -85 105.5 -85c28 0 52.167 10 72.5 30s30.5 44 30.5 72c0 63.333 -36 97.666 -108 102.999c-44 3.33301 -79.333 9.33301 -106 18c-72.667 24 -131 65.667 -175 125s-66 127.333 -66 204c0 97.333 35 179.333 105 246l50.5 45.5
c24.333 22.333 36.5 51.833 36.5 88.5c0 27.333 -18.333 51.333 -55 72c-32 17.333 -63 26 -93 26c-36 0 -73.333 -12 -112 -36c-43.333 -26.667 -65 -57.334 -65 -92.001v-1062c0 -46.667 -15 -85 -45 -115s-68.333 -45 -115 -45s-85 15 -115 45s-45 68.333 -45 115v1062
c0 122.667 53 229 159 319c101.333 86 214 129 338 129c118 0 224.333 -39.667 319 -119c99.333 -84 149 -183.667 149 -299c0 -121.333 -47.333 -229 -142 -323c-33.333 -33.333 -50 -52.333 -50 -57c0 -16 10.667 -25 32 -27c28.667 -2.66699 72 -9.66699 130 -21
c88.667 -28.667 159.667 -79.5 213 -152.5s80 -156.167 80 -249.5z" />
    <glyph glyph-name="agrave" unicode="&#xe0;" horiz-adv-x="1070" 
d="M970 160c0 -46.667 -15 -84.999 -45 -114.999s-68.333 -45 -115 -45c-44 0 -81 13.333 -111 40c-51.333 -26.667 -114.333 -40 -189 -40c-128.667 0 -236 35.333 -322 106c-92 76 -138 177.333 -138 304s46 228 138 304c86 70.667 193.333 106 322 106
c52 0 98.667 -6.66699 140 -20v10c0 38 -13.833 70.833 -41.5 98.5s-60.5 41.5 -98.5 41.5c-27.333 0 -63.833 -16.5 -109.5 -49.5s-85.5 -49.5 -119.5 -49.5c-38 0 -71.333 12 -100 36c-30.667 25.333 -46 56.333 -46 93c0 34.667 16.667 69.667 50 105
c84 90 192.333 135 325 135c31.333 0 62 -3 92 -9l-14 6l-300 150c-60 30 -90 76 -90 138c0 44 15.333 82.833 46 116.5s67.667 50.5 111 50.5c26 0 51.667 -6.33301 77 -19l300 -150c60 -30 90 -76 90 -138c0 -43.333 -14.667 -81.666 -44 -114.999
c-31.333 -34.667 -68.333 -52 -111 -52c-6 0 -12 0.333008 -18 1c96 -30.667 173.5 -86.334 232.5 -167.001s88.5 -171.334 88.5 -272.001v-600zM650 410.001c0 38 -13.833 70.833 -41.5 98.5s-60.5 41.5 -98.5 41.5s-70.833 -13.833 -98.5 -41.5s-41.5 -60.5 -41.5 -98.5
s13.833 -70.833 41.5 -98.5s60.5 -41.5 98.5 -41.5s70.833 13.833 98.5 41.5s41.5 60.5 41.5 98.5z" />
    <glyph glyph-name="aacute" unicode="&#xe1;" horiz-adv-x="1070" 
d="M970 160c0 -46.667 -15.001 -85 -45.001 -115s-68.333 -45 -115 -45c-44 -0 -81 13.333 -111 40c-51.333 -26.667 -114.333 -40 -189 -40c-129.333 -0 -236.666 35.333 -321.999 106c-92 76 -138 177.333 -138 304s46 228 138 304c85.333 70.667 192.666 106 321.999 106
c52 0 98.667 -6.66699 140 -20v10c0 38.667 -13.667 71.667 -41 99s-60.333 41 -99 41c-28 0 -64.667 -16.5 -110 -49.5s-85 -49.5 -119 -49.5c-38 0 -71.333 12 -100 36c-30.667 25.333 -46 56.333 -46 93c0 47.333 28.333 93.333 85 138
c46.667 36.667 97.334 63.667 152.001 81c-6 -0.666992 -11.667 -1 -17 -1c-43.333 0 -80.333 16.833 -111 50.5s-46 72.5 -46 116.5c0 62 30 108 90 138l300 150c25.333 12.667 51 19 77 19c43.333 0 80.333 -16.833 111 -50.5s46 -72.5 46 -116.5c0 -62 -30 -108 -90 -138
l-315 -157c31.333 6.66699 62.333 10 93 10c127.333 0 235.833 -44.833 325.5 -134.5s134.5 -198.167 134.5 -325.5v-600zM649.999 410c0 38.667 -13.667 71.667 -41 99s-60.333 41 -99 41s-71.667 -13.667 -99 -41s-41 -60.333 -41 -99s13.667 -71.667 41 -99
s60.333 -41 99 -41s71.667 13.667 99 41s41 60.333 41 99z" />
    <glyph glyph-name="acircumflex" unicode="&#xe2;" horiz-adv-x="1070" 
d="M897 1364c0 -43.333 -15.6689 -82 -47.002 -116s-68.666 -51 -111.999 -51c-31.333 0 -62 10 -92 30l-136 91l-136 -91c-30 -20 -60.667 -30 -92 -30c-43.333 0 -80.666 17 -111.999 51s-47 72.667 -47 116c0 53.333 24.333 96.333 73 129l213 142
c38 25.333 71.667 38 101 38s63 -12.667 101 -38l213 -142c48.667 -32.667 73 -75.667 73 -129zM969.998 160c0 -46.667 -15 -85 -45 -115s-68.333 -45 -115 -45c-44 -0 -81 13.333 -111 40c-51.333 -26.667 -114.333 -40 -189 -40
c-129.333 -0 -236.666 35.333 -321.999 106c-92 76 -138 177.333 -138 304s46 228 138 304c85.333 70.667 192.666 106 321.999 106c52 0 98.667 -6.66699 140 -20v10c0 38.667 -13.667 71.667 -41 99s-60.333 41 -99 41c-28 0 -64.667 -16.5 -110 -49.5
s-85 -49.5 -119 -49.5c-38 0 -71.333 12 -100 36c-30.667 25.333 -46 56.333 -46 93c0 34.667 16.667 69.667 50 105c84.667 90 193 135 325 135c127.333 0 235.833 -44.833 325.5 -134.5s134.5 -198.167 134.5 -325.5v-600zM649.998 410c0 38.667 -13.667 71.667 -41 99
s-60.333 41 -99 41s-71.667 -13.667 -99 -41s-41 -60.333 -41 -99s13.667 -71.667 41 -99s60.333 -41 99 -41s71.667 13.667 99 41s41 60.333 41 99z" />
    <glyph glyph-name="atilde" unicode="&#xe3;" horiz-adv-x="1070" 
d="M1022 1441c0 -72.667 -34.999 -132.334 -104.999 -179.001c-62 -41.333 -131 -62 -207 -62c-56.667 0 -111 15.667 -163 47c-6.66699 4.66699 -52.334 39 -137.001 103l-13 1c-28.667 -51.333 -72.667 -77 -132 -77c-44.667 0 -83.667 14.667 -117 44s-50 66.333 -50 111
c0 72.667 35 132.334 105 179.001c62 41.333 131 62 207 62c67.333 0 122.333 -15.667 165 -47l133 -101h17c28.667 49.333 72 74 130 74c44.667 0 83.667 -14.667 117 -44s50 -66.333 50 -111zM970.001 160c0 -46.667 -14.999 -85 -44.999 -115s-68.333 -45 -115 -45
c-44 -0 -81 13.333 -111 40c-51.333 -26.667 -114.333 -40 -189 -40c-128.667 -0 -236 35.333 -322 106c-92 76 -138 177.333 -138 304s46 228 138 304c86 70.667 193.333 106 322 106c52 0 98.667 -6.66699 140 -20v10c0 38 -13.833 70.833 -41.5 98.5
s-60.5 41.5 -98.5 41.5c-27.333 0 -63.833 -16.5 -109.5 -49.5s-85.5 -49.5 -119.5 -49.5c-38 0 -71.333 12 -100 36c-30.667 25.333 -46 56.333 -46 93c0 34 16.667 69 50 105c83.333 90 191.666 135 324.999 135c127.333 0 235.833 -44.833 325.5 -134.5
s134.5 -198.167 134.5 -325.5v-600zM650.002 410c0 38 -13.833 70.833 -41.5 98.5s-60.5 41.5 -98.5 41.5s-70.833 -13.833 -98.5 -41.5s-41.5 -60.5 -41.5 -98.5s13.833 -70.833 41.5 -98.5s60.5 -41.5 98.5 -41.5s70.833 13.833 98.5 41.5s41.5 60.5 41.5 98.5z" />
    <glyph glyph-name="adieresis" unicode="&#xe4;" horiz-adv-x="1070" 
d="M933 1398c0 -55.333 -19.167 -102.166 -57.5 -140.499s-85.166 -57.5 -140.499 -57.5s-102 19.167 -140 57.5s-57 85.166 -57 140.499s19 102 57 140s84.667 57 140 57s102.166 -19 140.499 -57s57.5 -84.667 57.5 -140zM483 1398
c0 -55.333 -19.167 -102.166 -57.5 -140.499s-85.166 -57.5 -140.499 -57.5s-102 19.167 -140 57.5s-57 85.166 -57 140.499s19 102 57 140s84.667 57 140 57s102.166 -19 140.499 -57s57.5 -84.667 57.5 -140zM970 160c0 -46.667 -15 -85 -45 -115s-68.333 -45 -115 -45
c-44 -0 -81 13.333 -111 40c-51.333 -26.667 -114.333 -40 -189 -40c-129.333 -0 -236.666 35.333 -321.999 106c-92 76 -138 177.333 -138 304s46 228 138 304c85.333 70.667 192.666 106 321.999 106c52 0 98.667 -6.66699 140 -20v10c0 38.667 -13.667 71.667 -41 99
s-60.333 41 -99 41c-28 0 -64.667 -16.5 -110 -49.5s-85 -49.5 -119 -49.5c-38 0 -71.333 12 -100 36c-30.667 25.333 -46 56.333 -46 93c0 34.667 16.667 69.667 50 105c84.667 90 193 135 325 135c127.333 0 235.833 -44.833 325.5 -134.5s134.5 -198.167 134.5 -325.5
v-600zM650 410c0 38.667 -13.667 71.667 -41 99s-60.333 41 -99 41s-71.667 -13.667 -99 -41s-41 -60.333 -41 -99s13.667 -71.667 41 -99s60.333 -41 99 -41s71.667 13.667 99 41s41 60.333 41 99z" />
    <glyph glyph-name="aring" unicode="&#xe5;" horiz-adv-x="1070" 
d="M970 160c0 -46.667 -14.998 -85.001 -44.998 -115.001s-68.333 -45 -115 -45c-44 0 -81 13.333 -111 40c-52 -26.667 -115 -40 -189 -40c-128.667 0 -236 35.333 -322 106c-92 76 -138 177.333 -138 304s46 228 138 304c86 70.667 193.333 106 322 106
c51.333 0 98 -6.66699 140 -20v10c0 38 -13.833 70.833 -41.5 98.5s-60.5 41.5 -98.5 41.5c-27.333 0 -64 -16.5 -110 -49.5s-85.667 -49.5 -119 -49.5c-38 0 -71.333 12 -100 36c-30.667 25.333 -46 56.333 -46 93c0 62.667 42 118.334 126 167.001
c71.333 41.333 142 65 212 71c-84.667 9.33301 -155.334 45 -212.001 107s-85 135.333 -85 220c0 92 32.667 170.5 98 235.5s144 97.5 236 97.5s170.667 -32.5 236 -97.5s98 -143.5 98 -235.5c0 -84.667 -28.333 -158 -85 -220s-127.334 -97.333 -212.001 -106
c120 -10 220.5 -59 301.5 -147s121.5 -192 121.5 -312v-600zM604.002 1545c0 25.333 -9.33301 47.166 -28 65.499s-40.667 27.5 -66 27.5s-47.333 -9.16699 -66 -27.5s-28 -40.166 -28 -65.499c0 -58.667 31.333 -88 94 -88s94 29.333 94 88zM650.002 409.999
c0 38 -13.833 70.833 -41.5 98.5s-60.5 41.5 -98.5 41.5s-70.833 -13.833 -98.5 -41.5s-41.5 -60.5 -41.5 -98.5s13.833 -70.833 41.5 -98.5s60.5 -41.5 98.5 -41.5s70.833 13.833 98.5 41.5s41.5 60.5 41.5 98.5z" />
    <glyph glyph-name="ae" unicode="&#xe6;" horiz-adv-x="1862" 
d="M1812 389c0 -24.667 -8.00293 -52.666 -24.0029 -83.999c-47.333 -92.667 -121.333 -167.334 -222 -224.001c-96.667 -54 -198.667 -81 -306 -81c-147.333 -0 -277.666 47.333 -390.999 142c-88 -94.667 -207.667 -142 -359 -142c-128.667 -0 -236 35.333 -322 106
c-92 76 -138 177.333 -138 304s46 228 138 304c86 70.667 193.333 106 322 106c52 0 98.667 -6.66699 140 -20v10c0 38 -13.833 70.833 -41.5 98.5s-60.5 41.5 -98.5 41.5c-27.333 0 -63.833 -16.5 -109.5 -49.5s-85.5 -49.5 -119.5 -49.5c-38 0 -71.333 12 -100 36
c-30.667 25.333 -46 56.333 -46 93c0 34 16.667 69 50 105c84 90 192.333 135 325 135c138 0 252.667 -51.667 344 -155c116 103.333 251.333 155 406 155c180.667 0 333.334 -68.667 458.001 -206c61.333 -67.333 92 -130.666 92 -189.999
c0 -54.667 -26.667 -97.334 -80 -128.001l-599 -345c40.667 -20.667 83.667 -31 129 -31c68.667 0 126.334 19.667 173.001 59l97 109c34.667 39.333 73 59 115 59c43.333 0 82 -15.5 116 -46.5s51 -68.167 51 -111.5zM1390 870.001c-40.667 20 -83.998 30 -129.998 30
c-76.667 0 -142.834 -26.167 -198.501 -78.5s-85.834 -116.833 -90.501 -193.5zM649.999 410.001c0 38 -13.833 70.833 -41.5 98.5s-60.5 41.5 -98.5 41.5s-70.833 -13.833 -98.5 -41.5s-41.5 -60.5 -41.5 -98.5s13.833 -70.833 41.5 -98.5s60.5 -41.5 98.5 -41.5
s70.833 13.833 98.5 41.5s41.5 60.5 41.5 98.5z" />
    <glyph glyph-name="ccedilla" unicode="&#xe7;" horiz-adv-x="1191" 
d="M1141 930c0 -43.333 -16.5029 -81.667 -49.5029 -115s-71.167 -50 -114.5 -50c-24.667 0 -69.334 22.5 -134.001 67.5s-125.667 67.5 -183 67.5c-80.667 0 -149.167 -28.167 -205.5 -84.5s-84.5 -124.833 -84.5 -205.5s28.167 -149.167 84.5 -205.5
s124.833 -84.5 205.5 -84.5c56.667 0 117.334 22.333 182.001 67s109.334 67 134.001 67c43.333 0 81.5 -16.5 114.5 -49.5s49.5 -71.167 49.5 -114.5c0 -62 -45 -123.333 -135 -184c26.667 -54 40 -111 40 -171c0 -106.667 -37.5 -197.5 -112.5 -272.5
s-165.833 -112.5 -272.5 -112.5c-67.333 0 -131.666 17.333 -192.999 52c-64 35.333 -111 82.333 -141 141c-16 30.667 -24 58.667 -24 84c0 82 56 123 168 123c39.333 0 77.5 -13.333 114.5 -40s62.167 -40 75.5 -40c43.333 0 65 21.667 65 65s-22 65 -66 65
c-169.333 -0 -313.166 59.333 -431.499 178s-177.5 262.667 -177.5 432s59.333 313.333 178 432s262.667 178 432 178c78 0 156 -15.667 234 -47c82 -32.667 147.667 -76.334 197 -131.001c33.333 -37.333 50 -74.666 50 -111.999z" />
    <glyph glyph-name="egrave" unicode="&#xe8;" horiz-adv-x="1262" 
d="M1212 389c0 -24 -8 -51.998 -24 -83.998c-46 -92 -120 -166.333 -222 -223c-97.333 -54.667 -199.333 -82 -306 -82c-169.333 0 -313.333 59.333 -432 178s-178 262.667 -178 432s59.333 313.333 178 432s262.667 178 432 178c28.667 0 57.667 -2.33301 87 -7
c-84 37.333 -187 88.666 -309 153.999c-60 32 -90 78 -90 138c0 44 15.333 82.833 46 116.5s67.667 50.5 111 50.5c26 0 51.667 -6.33301 77 -19l300 -150c60 -30 90 -76 90 -138c0 -44 -15.333 -82.833 -46 -116.5s-67.667 -50.5 -111 -50.5
c90 -26 174.667 -71.667 254 -137c94 -77.333 141 -156.333 141 -237c0 -54.667 -26.667 -97.334 -80 -128.001l-599 -345c40.667 -20.667 83.667 -31 129 -31c68.667 0 126.334 19.667 173.001 59l97 109c35.333 39.333 73.666 59 114.999 59c43.333 0 82 -15.5 116 -46.5
s51 -68.167 51 -111.5zM790 870.002c-40.667 20 -83.998 30 -129.998 30c-76.667 0 -142.834 -26.167 -198.501 -78.5s-85.834 -116.833 -90.501 -193.5z" />
    <glyph glyph-name="eacute" unicode="&#xe9;" horiz-adv-x="1262" 
d="M1212 389c0 -24.667 -8.00098 -52.666 -24.001 -83.999c-47.333 -92.667 -121.333 -167 -222 -223c-96.667 -54.667 -198.667 -82 -306 -82c-169.333 0 -313.333 59.333 -432 178s-178 262.667 -178 432c0 137.333 41.333 260.5 124 369.5s190.334 181.833 323.001 218.5
c-42 2.66699 -77.333 20.667 -106 54s-43 71 -43 113c0 62 30 108 90 138l300 150c25.333 12.667 51 19 77 19c43.333 0 80.333 -16.833 111 -50.5s46 -72.5 46 -116.5c0 -59.333 -30 -105.333 -90 -138c-93.333 -50.667 -195.333 -101.667 -306 -153c28 4 56 6 84 6
c158.667 0 302.667 -60 432 -180c78.667 -72.667 118 -144.667 118 -216c0 -54.667 -26.667 -97.334 -80 -128.001l-599 -345c40.667 -20.667 83.667 -31 129 -31c69.333 0 127 19.667 173 59l97 109c34.667 39.333 73 59 115 59c44 0 82.833 -15.5 116.5 -46.5
s50.5 -68.167 50.5 -111.5zM789.999 870.001c-40.667 20 -84 30 -130 30c-76.667 0 -143 -26.167 -199 -78.5s-86 -116.833 -90 -193.5z" />
    <glyph glyph-name="ecircumflex" unicode="&#xea;" horiz-adv-x="1262" 
d="M1047 1364c0 -43.333 -15.6689 -82 -47.002 -116s-68.666 -51 -111.999 -51c-31.333 0 -62 10 -92 30l-136 91l-136 -91c-30 -20 -60.667 -30 -92 -30c-43.333 0 -80.666 17 -111.999 51s-47 72.667 -47 116c0 53.333 24.333 96.333 73 129l213 142
c38 25.333 71.667 38 101 38s63 -12.667 101 -38l213 -142c48.667 -32.667 73 -75.667 73 -129zM1212 389c0 -24 -8.00098 -51.999 -24.001 -83.999c-46.667 -92 -120.667 -166.333 -222 -223c-97.333 -54.667 -199.333 -82 -306 -82c-169.333 0 -313.333 59.333 -432 178
s-178 262.667 -178 432s59.333 313.333 178 432s262.667 178 432 178c158.667 0 302.667 -60 432 -180c78.667 -73.333 118 -145.333 118 -216c0 -54.667 -26.667 -97.334 -80 -128.001l-599 -345c40.667 -20.667 83.667 -31 129 -31c68.667 0 126.334 19.667 173.001 59
l97 109c34.667 39.333 73 59 115 59c44 0 82.833 -15.5 116.5 -46.5s50.5 -68.167 50.5 -111.5zM789.997 870.001c-40.667 20 -84 30 -130 30c-76.667 0 -143 -26.167 -199 -78.5s-86 -116.833 -90 -193.5z" />
    <glyph glyph-name="edieresis" unicode="&#xeb;" horiz-adv-x="1262" 
d="M1083 1398c0 -55.333 -19.167 -102.166 -57.5 -140.499s-85.166 -57.5 -140.499 -57.5s-102 19.167 -140 57.5s-57 85.166 -57 140.499s19 102 57 140s84.667 57 140 57s102.166 -19 140.499 -57s57.5 -84.667 57.5 -140zM633 1398
c0 -55.333 -19.167 -102.166 -57.5 -140.499s-85.166 -57.5 -140.499 -57.5s-102 19.167 -140 57.5s-57 85.166 -57 140.499s19 102 57 140s84.667 57 140 57s102.166 -19 140.499 -57s57.5 -84.667 57.5 -140zM1212 389c0 -24 -8.00098 -51.999 -24.001 -83.999
c-46.667 -92 -120.667 -166.333 -222 -223c-97.333 -54.667 -199.333 -82 -306 -82c-169.333 0 -313.333 59.333 -432 178s-178 262.667 -178 432s59.333 313.333 178 432s262.667 178 432 178c158.667 0 302.667 -60 432 -180c78.667 -73.333 118 -145.333 118 -216
c0 -54.667 -26.667 -97.334 -80 -128.001l-599 -345c40.667 -20.667 83.667 -31 129 -31c68.667 0 126.334 19.667 173.001 59l97 109c34.667 39.333 73 59 115 59c44 0 82.833 -15.5 116.5 -46.5s50.5 -68.167 50.5 -111.5zM789.999 870.001c-40.667 20 -84 30 -130 30
c-76.667 0 -143 -26.167 -199 -78.5s-86 -116.833 -90 -193.5z" />
    <glyph glyph-name="igrave" unicode="&#xec;" horiz-adv-x="620" 
d="M622 1365c0 -44 -15.333 -82.833 -46 -116.5s-67.667 -50.5 -111 -50.5c-26 0 -51.667 6.33301 -77 19l-300 150c-60 30 -90 76 -90 138c0 44 15.333 82.833 46 116.5s67.667 50.5 111 50.5c26 0 51.667 -6.33301 77 -19l300 -150c60 -30 90 -76 90 -138zM470 1060v-900
c0 -46.667 -15 -85 -45 -115s-68.333 -45 -115 -45s-85 15 -115 45s-45 68.333 -45 115v900c0 46.667 15 85 45 115s68.333 45 115 45s85 -15 115 -45s45 -68.333 45 -115z" />
    <glyph glyph-name="iacute" unicode="&#xed;" horiz-adv-x="620" 
d="M622 1505c0 -62 -30 -108 -90 -138l-300 -150c-25.333 -12.667 -51 -19 -77 -19c-43.333 0 -80.333 16.833 -111 50.5s-46 72.5 -46 116.5c0 62 30 108 90 138l300 150c25.333 12.667 51 19 77 19c43.333 0 80.333 -16.833 111 -50.5s46 -72.5 46 -116.5zM470 1060v-900
c0 -46.667 -15 -85 -45 -115s-68.333 -45 -115 -45s-85 15 -115 45s-45 68.333 -45 115v900c0 46.667 15 85 45 115s68.333 45 115 45s85 -15 115 -45s45 -68.333 45 -115z" />
    <glyph glyph-name="icircumflex" unicode="&#xee;" horiz-adv-x="620" 
d="M697 1364c0 -43.333 -15.6689 -82 -47.002 -116s-68.666 -51 -111.999 -51c-31.333 0 -62 10 -92 30l-136 91l-136 -91c-30 -20 -60.667 -30 -92 -30c-43.333 0 -80.666 17 -111.999 51s-47 72.667 -47 116c0 53.333 24.333 96.333 73 129l213 142
c38 25.333 71.667 38 101 38s63 -12.667 101 -38l213 -142c48.667 -32.667 73 -75.667 73 -129zM469.998 1060v-900c0 -46.667 -15 -85 -45 -115s-68.333 -45 -115 -45s-85 15 -115 45s-45 68.333 -45 115v900c0 46.667 15 85 45 115s68.333 45 115 45s85 -15 115 -45
s45 -68.333 45 -115z" />
    <glyph glyph-name="idieresis" unicode="&#xef;" horiz-adv-x="620" 
d="M732 1398c0 -55.333 -19.167 -102.166 -57.5 -140.499s-85.166 -57.5 -140.499 -57.5s-102 19.167 -140 57.5s-57 85.166 -57 140.499s19 102 57 140s84.667 57 140 57s102.166 -19 140.499 -57s57.5 -84.667 57.5 -140zM283 1398
c0 -54.667 -19.3311 -101.332 -57.998 -139.999s-85.334 -58 -140.001 -58c-55.333 0 -102 19.167 -140 57.5s-57 85.166 -57 140.499s19 102 57 140s84.667 57 140 57s102.166 -19 140.499 -57s57.5 -84.667 57.5 -140zM469.002 1060v-900
c0 -46.667 -14.833 -85 -44.5 -115s-67.834 -45 -114.501 -45c-47.333 0 -86 14.833 -116 44.5s-45 68.167 -45 115.5l1 900c0 47.333 14.833 85.833 44.5 115.5s68.167 44.5 115.5 44.5c46.667 0 84.834 -15 114.501 -45s44.5 -68.333 44.5 -115z" />
    <glyph glyph-name="eth" unicode="&#xf0;" 
d="M1270 610c0 -169.333 -59.333 -313.332 -178 -431.999s-262.667 -178 -432 -178s-313.333 59.333 -432 178s-178 262.667 -178 432c0 135.333 40.333 257 121 365s185.667 181.333 315 220l-45 45h-156c-34.667 0 -63.334 11.333 -86.001 34s-34 51.334 -34 86.001
c0 56.667 24.667 94 74 112c-3.33301 12 -5 24.333 -5 37c0 43.333 16.5 81.5 49.5 114.5s71.167 49.5 114.5 49.5c41.333 0 78.666 -16.667 111.999 -50l144 -143h381c34.667 0 63.334 -11.333 86.001 -34s34 -51.334 34 -86.001c0 -81.333 -57 -122 -171 -122
c-10 0 -25 0.333008 -45 1s-35 1 -45 1c146.667 -146.667 233.334 -238.334 260.001 -275.001c77.333 -106 116 -224.333 116 -355zM950 610.001c0 80.667 -28.167 149.167 -84.5 205.5s-124.833 84.5 -205.5 84.5s-149.167 -28.167 -205.5 -84.5
s-84.5 -124.833 -84.5 -205.5s28.167 -149.167 84.5 -205.5s124.833 -84.5 205.5 -84.5s149.167 28.167 205.5 84.5s84.5 124.833 84.5 205.5z" />
    <glyph glyph-name="ntilde" unicode="&#xf1;" horiz-adv-x="1172" 
d="M1073 1441c0 -77.333 -36.668 -138.67 -110.001 -184.003c-64 -39.333 -136.667 -58.333 -218 -57c96.667 -29.333 175.334 -84.666 236.001 -165.999s91 -172.666 91 -273.999v-600c0 -46.667 -15 -85 -45 -115s-68.333 -45 -115 -45s-85 15 -115 45s-45 68.333 -45 115
v600c0 38 -13.833 70.833 -41.5 98.5s-60.5 41.5 -98.5 41.5c-38.667 0 -71.667 -13.667 -99 -41s-41 -60.333 -41 -99v-600c0 -46.667 -15 -85 -45 -115s-68.333 -45 -115 -45s-85 15 -115 45s-45 68.333 -45 115v900c0 46.667 15 85 45 115s68.333 45 115 45
c44 0 80.667 -13.667 110 -41c60.667 27.333 124 41 190 41c12 0 24 -0.333008 36 -1c-26 10 -57.667 30.667 -95 62c-42.667 35.333 -73 58.333 -91 69l-14 1c-28.667 -51.333 -72.667 -77 -132 -77c-44.667 0 -83.5 14.833 -116.5 44.5s-49.5 66.5 -49.5 110.5
c0 72.667 34.667 132.334 104 179.001c61.333 41.333 130.666 62 207.999 62c66.667 0 121.334 -15.667 164.001 -47l134 -101h16c29.333 49.333 73 74 131 74c44.667 0 83.5 -14.833 116.5 -44.5s49.5 -66.5 49.5 -110.5z" />
    <glyph glyph-name="ograve" unicode="&#xf2;" 
d="M1270 610c0 -169.333 -59.334 -313.333 -178.001 -432s-262.667 -178 -432 -178s-313.333 59.333 -432 178s-178 262.667 -178 432s59.333 313.333 178 432s262.667 178 432 178c28 0 56 -2 84 -6c-125.333 58.667 -227.333 109.667 -306 153
c-60 33.333 -90 79.333 -90 138c0 44 15.333 82.833 46 116.5s67.667 50.5 111 50.5c26 0 51.667 -6.33301 77 -19l300 -150c60 -30 90 -76 90 -138c0 -42.667 -14.333 -80.5 -43 -113.5s-64 -50.833 -106 -53.5c132.667 -36.667 240.334 -109.5 323.001 -218.5
s124 -232.167 124 -369.5zM949.999 610c0 80.667 -28.167 149.167 -84.5 205.5s-124.833 84.5 -205.5 84.5s-149.167 -28.167 -205.5 -84.5s-84.5 -124.833 -84.5 -205.5s28.167 -149.167 84.5 -205.5s124.833 -84.5 205.5 -84.5s149.167 28.167 205.5 84.5
s84.5 124.833 84.5 205.5z" />
    <glyph glyph-name="oacute" unicode="&#xf3;" 
d="M1270 610c0 -169.333 -59.334 -313.333 -178.001 -432s-262.667 -178 -432 -178s-313.333 59.333 -432 178s-178 262.667 -178 432c0 137.333 41.333 260.5 124 369.5s190.334 181.833 323.001 218.5c-42 2.66699 -77.333 20.5 -106 53.5s-43 70.833 -43 113.5
c0 62 30 108 90 138l300 150c25.333 12.667 51 19 77 19c43.333 0 80.333 -16.833 111 -50.5s46 -72.5 46 -116.5c0 -58.667 -30 -104.667 -90 -138c-78.667 -43.333 -180.667 -94.333 -306 -153c28 4 56 6 84 6c169.333 0 313.333 -59.333 432 -178s178 -262.667 178 -432z
M949.999 610c0 80.667 -28.167 149.167 -84.5 205.5s-124.833 84.5 -205.5 84.5s-149.167 -28.167 -205.5 -84.5s-84.5 -124.833 -84.5 -205.5s28.167 -149.167 84.5 -205.5s124.833 -84.5 205.5 -84.5s149.167 28.167 205.5 84.5s84.5 124.833 84.5 205.5z" />
    <glyph glyph-name="ocircumflex" unicode="&#xf4;" 
d="M1047 1364c0 -43.333 -15.6689 -82 -47.002 -116s-68.666 -51 -111.999 -51c-31.333 0 -62 10 -92 30l-136 91l-136 -91c-30 -20 -60.667 -30 -92 -30c-43.333 0 -80.666 17 -111.999 51s-47 72.667 -47 116c0 53.333 24.333 96.333 73 129l213 142
c38 25.333 71.667 38 101 38s63 -12.667 101 -38l213 -142c48.667 -32.667 73 -75.667 73 -129zM1270 610c0 -169.333 -59.333 -313.333 -178 -432s-262.667 -178 -432 -178s-313.333 59.333 -432 178s-178 262.667 -178 432s59.333 313.333 178 432s262.667 178 432 178
s313.333 -59.333 432 -178s178 -262.667 178 -432zM949.998 610c0 80.667 -28.167 149.167 -84.5 205.5s-124.833 84.5 -205.5 84.5s-149.167 -28.167 -205.5 -84.5s-84.5 -124.833 -84.5 -205.5s28.167 -149.167 84.5 -205.5s124.833 -84.5 205.5 -84.5
s149.167 28.167 205.5 84.5s84.5 124.833 84.5 205.5z" />
    <glyph glyph-name="otilde" unicode="&#xf5;" 
d="M1270 610c0 -169.333 -59.334 -313.333 -178.001 -432s-262.667 -178 -432 -178s-313.333 59.333 -432 178s-178 262.667 -178 432s59.333 313.333 178 432s262.667 178 432 178c12 0 24 -0.333008 36 -1c-25.333 10 -57 30.667 -95 62c-41.333 34 -71.666 57 -90.999 69
l-13 1c-28.667 -51.333 -72.667 -77 -132 -77c-44.667 0 -83.667 14.667 -117 44s-50 66.333 -50 111c0 72.667 35 132.334 105 179.001c62 41.333 131 62 207 62c67.333 0 122.333 -15.667 165 -47l133 -101h17c28.667 49.333 72 74 130 74
c44.667 0 83.667 -14.667 117 -44s50 -66.333 50 -111c0 -72 -34.333 -131.333 -103 -178c-60.667 -41.333 -128.667 -62.333 -204 -63c134.667 -35.333 244.167 -107.833 328.5 -217.5s126.5 -233.834 126.5 -372.501zM949.999 610c0 80.667 -28.167 149.167 -84.5 205.5
s-124.833 84.5 -205.5 84.5s-149.167 -28.167 -205.5 -84.5s-84.5 -124.833 -84.5 -205.5s28.167 -149.167 84.5 -205.5s124.833 -84.5 205.5 -84.5s149.167 28.167 205.5 84.5s84.5 124.833 84.5 205.5z" />
    <glyph glyph-name="odieresis" unicode="&#xf6;" 
d="M1083 1398c0 -55.333 -19.167 -102.166 -57.5 -140.499s-85.166 -57.5 -140.499 -57.5s-102 19.167 -140 57.5s-57 85.166 -57 140.499s19 102 57 140s84.667 57 140 57s102.166 -19 140.499 -57s57.5 -84.667 57.5 -140zM632 1398
c0 -55.333 -19.167 -102.166 -57.5 -140.499s-85.166 -57.5 -140.499 -57.5s-102 19.167 -140 57.5s-57 85.166 -57 140.499s19 102 57 140s84.667 57 140 57s102.166 -19 140.499 -57s57.5 -84.667 57.5 -140zM1270 610c0 -170 -59.167 -314.167 -177.5 -432.5
s-262.5 -177.5 -432.5 -177.5s-314.167 59.167 -432.5 177.5s-177.5 262.5 -177.5 432.5s59.167 314.167 177.5 432.5s262.5 177.5 432.5 177.5s314.167 -59.167 432.5 -177.5s177.5 -262.5 177.5 -432.5zM950 610c0 80.667 -28.167 149.167 -84.5 205.5
s-124.833 84.5 -205.5 84.5s-149.167 -28.167 -205.5 -84.5s-84.5 -124.833 -84.5 -205.5s28.167 -149.167 84.5 -205.5s124.833 -84.5 205.5 -84.5s149.167 28.167 205.5 84.5s84.5 124.833 84.5 205.5z" />
    <glyph glyph-name="divide" unicode="&#xf7;" 
d="M859 1136c0 -55.333 -19.333 -102.333 -58 -141s-85.667 -58 -141 -58s-102.333 19.333 -141 58s-58 85.667 -58 141c0 54.667 19.333 101 58 139s85.667 57 141 57s102.333 -19 141 -57s58 -84.333 58 -139zM1120 722c0 -46.667 -15 -85 -45 -115s-68.333 -45 -115 -45
h-600c-46.667 0 -85 15 -115 45s-45 68.333 -45 115c0 47.333 14.833 85.833 44.5 115.5s68.167 44.5 115.5 44.5h600c47.333 0 85.833 -14.833 115.5 -44.5s44.5 -68.167 44.5 -115.5zM859 311c0 -55.333 -19.333 -102.166 -58 -140.499s-85.667 -57.5 -141 -57.5
s-102.333 19.167 -141 57.5s-58 85.166 -58 140.499c0 54.667 19.333 101 58 139s85.667 57 141 57s102.333 -19 141 -57s58 -84.333 58 -139z" />
    <glyph glyph-name="oslash" unicode="&#xf8;" 
d="M1270 610c0 -170 -59.167 -314.167 -177.5 -432.5s-262.5 -177.5 -432.5 -177.5c-123.333 0 -236 34 -338 102c-66 -68 -115.667 -102 -149 -102c-32 0 -60.5 12.5 -85.5 37.5s-37.5 53.5 -37.5 85.5c0 33.333 34 83 102 149c-68 102 -102 214.667 -102 338
c0 170 59.167 314.167 177.5 432.5s262.5 177.5 432.5 177.5c123.333 0 236 -34 338 -102c66 68 115.667 102 149 102c32 0 60.5 -12.5 85.5 -37.5s37.5 -53.5 37.5 -85.5c0 -33.333 -34 -83 -102 -149c68 -102 102 -214.667 102 -338zM762 882
c-32.667 12 -66.667 18 -102 18c-80.667 0 -149.167 -28.167 -205.5 -84.5s-84.5 -124.833 -84.5 -205.5c0 -35.333 6 -69.333 18 -102zM950 610c0 35.333 -6 69.333 -18 102l-374 -374c32.667 -12 66.667 -18 102 -18c80.667 0 149.167 28.167 205.5 84.5
s84.5 124.833 84.5 205.5z" />
    <glyph glyph-name="ugrave" unicode="&#xf9;" horiz-adv-x="1120" 
d="M872 1365c0 -44 -15.333 -82.833 -46 -116.5s-67.667 -50.5 -111 -50.5c-26 0 -51.667 6.33301 -77 19l-300 150c-60 30 -90 76 -90 138c0 44 15.333 82.833 46 116.5s67.667 50.5 111 50.5c26 0 51.667 -6.33301 77 -19l300 -150c60 -30 90 -76 90 -138zM1020 1060
v-601.001c0 -127.333 -44.833 -235.666 -134.5 -324.999s-198.167 -134 -325.5 -134s-235.833 44.833 -325.5 134.5s-134.5 198.167 -134.5 325.5v600c0 46.667 15 85 45 115s68.333 45 115 45s85 -15 115 -45s45 -68.333 45 -115v-600c0 -38.667 13.667 -71.667 41 -99
s60.333 -41 99 -41c38 0 70.833 13.833 98.5 41.5s41.5 60.5 41.5 98.5v600c0 46.667 15 85 45 115s68.333 45 115 45s85 -15 115 -45s45 -68.333 45 -115z" />
    <glyph glyph-name="uacute" unicode="&#xfa;" horiz-adv-x="1120" 
d="M872 1505c0 -62 -30 -108 -90 -138l-300 -150c-25.333 -12.667 -51 -19 -77 -19c-43.333 0 -80.333 16.833 -111 50.5s-46 72.5 -46 116.5c0 62 30 108 90 138l300 150c25.333 12.667 51 19 77 19c43.333 0 80.333 -16.833 111 -50.5s46 -72.5 46 -116.5zM1020 1060v-601
c0 -127.333 -44.833 -235.666 -134.5 -324.999s-198.167 -134 -325.5 -134s-235.833 44.667 -325.5 134s-134.5 197.666 -134.5 324.999v601c0 46.667 15 85 45 115s68.333 45 115 45s85 -15 115 -45s45 -68.333 45 -115v-600c0 -38.667 13.667 -71.667 41 -99
s60.333 -41 99 -41c38 0 70.833 13.833 98.5 41.5s41.5 60.5 41.5 98.5v600c0 46.667 15 85 45 115s68.333 45 115 45s85 -15 115 -45s45 -68.333 45 -115z" />
    <glyph glyph-name="ucircumflex" unicode="&#xfb;" horiz-adv-x="1120" 
d="M1020 1060v-600.998c0 -126.667 -45 -234.834 -135 -324.501s-198.333 -134.5 -325 -134.5c-127.333 0 -235.833 44.667 -325.5 134s-134.5 197.666 -134.5 324.999v601c0 45.333 14.5 83 43.5 113s66.167 45.667 111.5 47c-54.667 34 -82 82 -82 144
c0 53.333 24.333 96.333 73 129l213 142c38 25.333 71.667 38 101 38s63 -12.667 101 -38l213 -142c48.667 -32.667 73 -75.667 73 -129c0 -62 -27.333 -110 -82 -144c45.333 -1.33301 82.5 -17 111.5 -47s43.5 -67.667 43.5 -113zM774 1198
c-27.333 2.66699 -98.667 42.667 -214 120l-103 -72c-43.333 -29.333 -80.333 -45.333 -111 -48c49.333 -29.333 74 -75.333 74 -138v-600c0 -38 13.833 -70.833 41.5 -98.5s60.5 -41.5 98.5 -41.5s70.833 13.833 98.5 41.5s41.5 60.5 41.5 98.5v600
c0 62.667 24.667 108.667 74 138z" />
    <glyph glyph-name="udieresis" unicode="&#xfc;" horiz-adv-x="1120" 
d="M1020 1060l0.00195312 -601.002c0 -127.333 -44.833 -235.666 -134.5 -324.999s-198.167 -134 -325.5 -134s-235.833 44.667 -325.5 134s-134.5 197.666 -134.5 324.999v601c0 44.667 13.667 81.834 41 111.501s63.333 45.834 108 48.501c-74 36 -111 95.333 -111 178
c0 55.333 19 102 57 140s84.667 57 140 57s102.166 -19 140.499 -57s57.5 -84.667 57.5 -140c0 -54 -18.5 -100 -55.5 -138s-82.167 -58 -135.5 -60c52 -28.667 78 -75.334 78 -140.001v-600c0 -38.667 13.667 -71.667 41 -99s60.333 -41 99 -41
c38 0 70.833 13.833 98.5 41.5s41.5 60.5 41.5 98.5v600c0 64.667 26 111.334 78 140.001c-53.333 2 -98.333 22 -135 60s-55 84 -55 138c0 55.333 19 102 57 140s84.667 57 140 57s102.166 -19 140.499 -57s57.5 -84.667 57.5 -140c0 -82.667 -37.333 -142 -112 -178
c44 -2.66699 79.833 -19 107.5 -49s41.5 -67 41.5 -111z" />
    <glyph glyph-name="yacute" unicode="&#xfd;" horiz-adv-x="1170" 
d="M872 1505c0 -62 -30 -108 -90 -138l-300 -150c-25.333 -12.667 -51 -19 -77 -19c-43.333 0 -80.333 16.833 -111 50.5s-46 72.5 -46 116.5c0 62 30 108 90 138l300 150c25.333 12.667 51 19 77 19c43.333 0 80.333 -16.833 111 -50.5s46 -72.5 46 -116.5zM1020 10
c0 -127.333 -44.8311 -235.831 -134.498 -325.498s-198.167 -134.5 -325.5 -134.5c-80.667 0 -157 20.333 -229 61c-74.667 42 -130.667 97.667 -168 167c-16.667 31.333 -25 59.666 -25 84.999c0 44 17 81.333 51 112s73 46 117 46c41.333 0 84.166 -25.167 128.499 -75.5
s86.166 -75.5 125.499 -75.5c38.667 0 71.667 15.5 99 46.5s41 66.167 41 105.5c-45.333 -14.667 -92 -22 -140 -22c-127.333 0 -235.833 44.667 -325.5 134s-134.5 197.666 -134.5 324.999v601c0 46.667 15 85 45 115s68.333 45 115 45s85 -15 115 -45s45 -68.333 45 -115
v-600c0 -38 13.833 -70.833 41.5 -98.5s60.5 -41.5 98.5 -41.5s70.833 13.833 98.5 41.5s41.5 60.5 41.5 98.5v600c0 46.667 15 85 45 115s68.333 45 115 45s85 -15 115 -45s45 -68.333 45 -115v-1050z" />
    <glyph glyph-name="thorn" unicode="&#xfe;" horiz-adv-x="1420" 
d="M1370 610c0 -169.333 -59.333 -313.333 -178 -432s-262.667 -178 -432 -178c-103.333 -0 -200 24.333 -290 73v-363c0 -46.667 -15 -85 -45 -115s-68.333 -45 -115 -45s-85 15 -115 45s-45 68.333 -45 115v1800c0 46.667 15 85 45 115s68.333 45 115 45s85 -15 115 -45
s45 -68.333 45 -115v-363c90 48.667 186.667 73 290 73c169.333 0 313.333 -59.333 432 -178s178 -262.667 178 -432zM1050 610c0 80.667 -28.167 149.167 -84.5 205.5s-124.833 84.5 -205.5 84.5s-149.167 -28.167 -205.5 -84.5s-84.5 -124.833 -84.5 -205.5
s28.167 -149.167 84.5 -205.5s124.833 -84.5 205.5 -84.5s149.167 28.167 205.5 84.5s84.5 124.833 84.5 205.5z" />
    <glyph glyph-name="ydieresis" unicode="&#xff;" horiz-adv-x="1170" 
d="M1020 10c0 -127.333 -44.8301 -235.83 -134.497 -325.497s-198.167 -134.5 -325.5 -134.5c-80.667 0 -157.667 20.667 -231 62s-128.666 96.666 -165.999 165.999c-16.667 31.333 -25 59.666 -25 84.999c0 43.333 17 80.5 51 111.5s73 46.5 117 46.5
c41.333 0 84.166 -25.167 128.499 -75.5s86.166 -75.5 125.499 -75.5c38 0 70.833 15.667 98.5 47s41.5 66.333 41.5 105c-45.333 -14.667 -92 -22 -140 -22c-127.333 0 -235.833 44.667 -325.5 134s-134.5 197.666 -134.5 324.999v601c0 90.667 43 143.334 129 158.001
c-60.667 38.667 -91 94.334 -91 167.001c0 55.333 19 102 57 140s84.667 57 140 57s102.166 -19 140.499 -57s57.5 -84.667 57.5 -140c0 -50 -16.333 -93.667 -49 -131s-74 -59 -124 -65c40 -30.667 60 -73.667 60 -129v-600c0 -38 13.833 -70.833 41.5 -98.5
s60.5 -41.5 98.5 -41.5s70.833 13.833 98.5 41.5s41.5 60.5 41.5 98.5v600c0 55.333 20 98.333 60 129c-50 6 -91.167 27.667 -123.5 65s-48.5 81 -48.5 131c0 55.333 19 102 57 140s84.667 57 140 57s102.166 -19 140.499 -57s57.5 -84.667 57.5 -140
c0 -72.667 -30.667 -128.334 -92 -167.001c86 -14.667 129 -67.334 129 -158.001v-1050z" />
    <glyph glyph-name="Amacron" unicode="&#x100;" horiz-adv-x="1775" 
d="M1497 1885c0 -46.667 -15 -85 -45 -115s-68.333 -45 -115 -45h-900c-46.667 0 -85 15 -115 45s-45 68.333 -45 115s15 85 45 115s68.333 45 115 45h900c46.667 0 85 -15 115 -45s45 -68.333 45 -115zM1725 155c0 -44 -16.999 -81.166 -50.999 -111.499
s-73 -45.5 -117 -45.5c-62 0 -108 30 -138 90l-181 362h-702l-181 -362c-30 -60 -75.667 -90 -137 -90c-44 0 -83 15.167 -117 45.5s-51 67.5 -51 111.5c0 26 6.33301 51.667 19 77l662 1322c39.333 78.667 91.333 118 156 118c65.333 0 117.666 -39.333 156.999 -118
l661 -1322c13.333 -26.667 20 -52.334 20 -77.001zM1078 770.001l-191 382l-191 -382h382z" />
    <glyph glyph-name="amacron" unicode="&#x101;" horiz-adv-x="1070" 
d="M970 1435c0 -46.667 -15 -85 -45 -115s-68.333 -45 -115 -45h-600c-46.667 0 -85 15 -115 45s-45 68.333 -45 115s15 85 45 115s68.333 45 115 45h600c46.667 0 85 -15 115 -45s45 -68.333 45 -115zM970 150c0 -46.667 -15 -85 -45 -115s-68.333 -45 -115 -45
c-44 0 -81 13.333 -111 40c-51.333 -26.667 -114.333 -40 -189 -40c-129.333 0 -236.666 35.333 -321.999 106c-92 76 -138 177.333 -138 304s46 228 138 304c85.333 70.667 192.666 106 321.999 106c52 0 98.667 -6.66699 140 -20v10c0 38.667 -13.667 71.667 -41 99
s-60.333 41 -99 41c-28 0 -64.667 -16.5 -110 -49.5s-85 -49.5 -119 -49.5c-38 0 -71.333 12 -100 36c-30.667 25.333 -46 56.333 -46 93c0 34.667 16.667 69.667 50 105c84.667 90 193 135 325 135c127.333 0 235.833 -44.833 325.5 -134.5s134.5 -198.167 134.5 -325.5
v-600zM650 400c0 38.667 -13.667 71.667 -41 99s-60.333 41 -99 41s-71.667 -13.667 -99 -41s-41 -60.333 -41 -99s13.667 -71.667 41 -99s60.333 -41 99 -41s71.667 13.667 99 41s41 60.333 41 99z" />
    <glyph glyph-name="Abreve" unicode="&#x102;" horiz-adv-x="1775" 
d="M1725 155c0 -43.333 -17.167 -80.333 -51.5 -111s-73.166 -46 -116.499 -46c-62 0 -108 30 -138 90l-181 362h-702l-181 -362c-30 -60 -75.667 -90 -137 -90c-44 0 -83 15.333 -117 46s-51 67.667 -51 111c0 26 6.33301 51.667 19 77l662 1322
c28 55.333 58.333 90.333 91 105c-63.333 14 -130.333 51.667 -201 113c-77.333 66.667 -116 129.667 -116 189c0 43.333 16.667 81.166 50 113.499s72 48.5 116 48.5c39.333 0 85 -25.5 137 -76.5s79.667 -76.5 83 -76.5c5.33301 0 34.166 25.333 86.499 76
s97.833 76 136.5 76c44 0 83.167 -16.167 117.5 -48.5s51.5 -70.166 51.5 -113.499c0 -38.667 -22.667 -82.667 -68 -132c-86 -93.333 -173.333 -149.666 -262 -168.999c32.667 -14.667 63 -49.667 91 -105l661 -1322c13.333 -26.667 20 -52.334 20 -77.001zM1078 770
l-191 382l-191 -382h382z" />
    <glyph glyph-name="abreve" unicode="&#x103;" horiz-adv-x="1070" 
d="M906 1525c0 -38 -22.667 -82 -68 -132c-107.333 -117.333 -216.666 -176 -327.999 -176c-126 0 -241 69.667 -345 209c-24.667 32.667 -37 66 -37 100c0 43.333 16.667 81.166 50 113.499s72 48.5 116 48.5c39.333 0 84.833 -25.5 136.5 -76.5s79.5 -76.5 83.5 -76.5
c4.66699 0 33.167 25.333 85.5 76s98.166 76 137.499 76c44 0 83.167 -16.167 117.5 -48.5s51.5 -70.166 51.5 -113.499zM970 150c0 -46.667 -15 -85 -45 -115s-68.333 -45 -115 -45c-44 0 -81 13.333 -111 40c-51.333 -26.667 -114.333 -40 -189 -40
c-129.333 0 -236.666 35.333 -321.999 106c-92 76 -138 177.333 -138 304s46 228 138 304c85.333 70.667 192.666 106 321.999 106c52 0 98.667 -6.66699 140 -20v10c0 38.667 -13.667 71.667 -41 99s-60.333 41 -99 41c-28 0 -64.667 -16.5 -110 -49.5
s-85 -49.5 -119 -49.5c-38 0 -71.333 12 -100 36c-30.667 25.333 -46 56.333 -46 93c0 34.667 16.667 69.667 50 105c84.667 90 193 135 325 135c127.333 0 235.833 -44.833 325.5 -134.5s134.5 -198.167 134.5 -325.5v-600zM650 400c0 38.667 -13.667 71.667 -41 99
s-60.333 41 -99 41s-71.667 -13.667 -99 -41s-41 -60.333 -41 -99s13.667 -71.667 41 -99s60.333 -41 99 -41s71.667 13.667 99 41s41 60.333 41 99z" />
    <glyph glyph-name="Aogonek" unicode="&#x104;" horiz-adv-x="1775" 
d="M1915 -173c0 -25.333 -7.99805 -53.3311 -23.998 -83.998c-30.667 -59.333 -77 -106.333 -139 -141s-127 -52 -195 -52c-106 0 -196.667 37.667 -272 113s-113 166 -113 272c0 133.333 55.333 238.666 166 315.999l-100 199h-702l-181 -362c-30 -60 -75.667 -90 -137 -90
c-44 0 -83 15.333 -117 46s-51 67.667 -51 111c0 26 6.33301 51.667 19 77l662 1322c39.333 78.667 91.333 118 156 118c65.333 0 117.666 -39.333 156.999 -118l661 -1322c13.333 -26.667 20 -52.334 20 -77.001c0 -46.667 -17.833 -84.167 -53.5 -112.5
s-77.167 -42.5 -124.5 -42.5c-14.667 0 -27.5 -7 -38.5 -21s-16.5 -28.667 -16.5 -44c0 -43.333 21.667 -65 65 -65c14 0 39.333 19.167 76 57.5s74.667 57.5 114 57.5c43.333 0 82.166 -15.5 116.499 -46.5s51.5 -68.167 51.5 -111.5zM1078 770.002l-191 382l-191 -382h382
z" />
    <glyph glyph-name="aogonek" unicode="&#x105;" horiz-adv-x="1070" 
d="M1168 -173c0 -25.333 -8 -53.332 -24 -83.999c-30 -58.667 -77 -105.667 -141 -141c-61.333 -34.667 -125.666 -52 -192.999 -52c-106.667 0 -197.5 37.5 -272.5 112.5s-112.5 165.833 -112.5 272.5c0 24 2 47.333 6 70c-112.667 15.333 -203.334 58 -272.001 128
c-72.667 73.333 -109 165.666 -109 276.999c0 126.667 46 228 138 304c86 70.667 193.333 106 322 106c52 0 98.667 -6.66699 140 -20v10c0 38 -13.833 70.833 -41.5 98.5s-60.5 41.5 -98.5 41.5c-27.333 0 -63.833 -16.5 -109.5 -49.5s-85.5 -49.5 -119.5 -49.5
c-38 0 -71.333 12 -100 36c-30.667 25.333 -46 56.333 -46 93c0 34.667 16.667 69.667 50 105c84 90 192.333 135 325 135c127.333 0 235.833 -44.833 325.5 -134.5s134.5 -198.167 134.5 -325.5v-600c0 -46.667 -15 -85 -45 -115s-68.333 -45 -115 -45
c-43.333 -0 -65 -21.667 -65 -65s21.667 -65 65 -65c14 0 39.167 19.167 75.5 57.5s74.5 57.5 114.5 57.5c44 0 83 -15.333 117 -46s51 -68 51 -112zM650 410.001c0 38 -13.833 70.833 -41.5 98.5s-60.5 41.5 -98.5 41.5s-70.833 -13.833 -98.5 -41.5
s-41.5 -60.5 -41.5 -98.5s13.833 -70.833 41.5 -98.5s60.5 -41.5 98.5 -41.5s70.833 13.833 98.5 41.5s41.5 60.5 41.5 98.5z" />
    <glyph glyph-name="Cacute" unicode="&#x106;" horiz-adv-x="1575" 
d="M1525 356c0 -54 -40.667 -112.67 -122 -176.003c-154 -120 -326.667 -180 -518 -180c-231.333 0 -428.333 81.333 -591 244s-244 359.667 -244 591c0 196 61.167 370.333 183.5 523s279.166 250 470.499 292c-38 7.33301 -69.333 26.833 -94 58.5s-37 67.167 -37 106.5
c0 62 30 108 90 138l300 150c25.333 12.667 51 19 77 19c43.333 0 80.333 -16.833 111 -50.5s46 -72.5 46 -116.5c0 -59.333 -30 -105.333 -90 -138c-25.333 -13.333 -126 -63.666 -302 -150.999c26.667 2.66699 53.334 4 80.001 4c191.333 0 364 -60 518 -180
c81.333 -63.333 122 -122 122 -176c0 -43.333 -16.5 -81.5 -49.5 -114.5s-71.167 -49.5 -114.5 -49.5c-36.667 0 -74 16.333 -112 49c-8.66699 8.66699 -25.334 23.334 -50.001 44.001c-90 71.333 -194.667 107 -314 107c-142.667 0 -264.167 -50.167 -364.5 -150.5
s-150.5 -221.833 -150.5 -364.5s50.167 -264.167 150.5 -364.5s221.833 -150.5 364.5 -150.5c118.667 0 223.334 35.667 314.001 107c9.33301 8.66699 26 23.334 50 44.001c38.667 32.667 76 49 112 49c43.333 0 81.5 -16.5 114.5 -49.5s49.5 -71.167 49.5 -114.5z" />
    <glyph glyph-name="cacute" unicode="&#x107;" horiz-adv-x="1191" 
d="M1141 930c0 -43.333 -16.502 -81.666 -49.502 -114.999s-71.167 -50 -114.5 -50c-25.333 0 -70.5 22.5 -135.5 67.5s-125.5 67.5 -181.5 67.5c-80 0 -148.333 -28.333 -205 -85s-85 -125 -85 -205s28.333 -148.333 85 -205s125 -85 205 -85c56 0 116.5 22.333 181.5 67
s109.833 67 134.5 67c43.333 0 81.5 -16.5 114.5 -49.5s49.5 -71.167 49.5 -114.5c0 -36.667 -16.667 -74 -50 -112c-49.333 -55.333 -114.666 -99.333 -195.999 -132c-77.333 -30.667 -155.333 -46 -234 -46c-169.333 0 -313.333 59.333 -432 178s-178 262.667 -178 432
c0 137.333 41.333 260.5 124 369.5s190.334 181.833 323.001 218.5c-42 2.66699 -77.333 20.667 -106 54s-43 71 -43 113c0 62 30 108 90 138l300 150c25.333 12.667 51 19 77 19c43.333 0 80.333 -16.833 111 -50.5s46 -72.5 46 -116.5c0 -60 -30 -106 -90 -138
c-100 -54 -202 -105 -306 -153c28 4 56 6 84 6c77.333 0 155.333 -15.667 234 -47c83.333 -32.667 149 -76.334 197 -131.001c33.333 -38 50 -75.333 50 -112z" />
    <glyph glyph-name="Ccircumflex" unicode="&#x108;" horiz-adv-x="1575" 
d="M1272 1814c0 -43.333 -15.6689 -82 -47.002 -116s-68.666 -51 -111.999 -51c-31.333 0 -62 10 -92 30l-136 91l-136 -91c-30 -20 -60.667 -30 -92 -30c-43.333 0 -80.666 17 -111.999 51s-47 72.667 -47 116c0 53.333 24.333 96.333 73 129l213 142
c38 25.333 71.667 38 101 38s63 -12.667 101 -38l213 -142c48.667 -32.667 73 -75.667 73 -129zM1525 356c0 -54 -40.665 -112.669 -121.998 -176.002c-154 -120 -326.667 -180 -518 -180c-231.333 0 -428.333 81.333 -591 244s-244 359.667 -244 591
s81.333 428.333 244 591s359.667 244 591 244c191.333 0 364 -60 518 -180c81.333 -63.333 122 -122 122 -176c0 -43.333 -16.5 -81.5 -49.5 -114.5s-71.167 -49.5 -114.5 -49.5c-36 0 -73.333 16.333 -112 49c-8.66699 8.66699 -25.334 23.334 -50.001 44.001
c-90.667 71.333 -195.334 107 -314.001 107c-142.667 0 -264.167 -50.167 -364.5 -150.5s-150.5 -221.833 -150.5 -364.5s50.167 -264.167 150.5 -364.5s221.833 -150.5 364.5 -150.5c118 0 222.667 35.667 314 107c9.33301 8.66699 26 23.334 50 44.001
c38.667 32.667 76 49 112 49c43.333 0 81.5 -16.5 114.5 -49.5s49.5 -71.167 49.5 -114.5z" />
    <glyph glyph-name="ccircumflex" unicode="&#x109;" horiz-adv-x="1191" 
d="M1047 1364c0 -43.333 -15.6689 -82 -47.002 -116s-68.666 -51 -111.999 -51c-31.333 0 -62 10 -92 30l-136 91l-136 -91c-30 -20 -60.667 -30 -92 -30c-43.333 0 -80.666 17 -111.999 51s-47 72.667 -47 116c0 53.333 24.333 96.333 73 129l213 142
c38 25.333 71.667 38 101 38s63 -12.667 101 -38l213 -142c48.667 -32.667 73 -75.667 73 -129zM1141 930c0 -43.333 -16.5029 -81.666 -49.5029 -114.999s-71.167 -50 -114.5 -50c-24.667 0 -69.334 22.5 -134.001 67.5s-125.667 67.5 -183 67.5
c-80.667 0 -149.167 -28.167 -205.5 -84.5s-84.5 -124.833 -84.5 -205.5s28.167 -149.167 84.5 -205.5s124.833 -84.5 205.5 -84.5c56.667 0 117.334 22.333 182.001 67s109.334 67 134.001 67c43.333 0 81.5 -16.5 114.5 -49.5s49.5 -71.167 49.5 -114.5
c0 -36.667 -16.667 -74 -50 -112c-49.333 -55.333 -114.666 -99.333 -195.999 -132c-77.333 -30.667 -155.333 -46 -234 -46c-169.333 0 -313.333 59.333 -432 178s-178 262.667 -178 432s59.333 313.333 178 432s262.667 178 432 178c77.333 0 155.333 -15.667 234 -47
c82.667 -32.667 148.334 -76.334 197.001 -131.001c33.333 -38 50 -75.333 50 -112z" />
    <glyph glyph-name="Cdot" unicode="&#x10a;" horiz-adv-x="1575" 
d="M1083 1898c0 -55.333 -19.167 -102.166 -57.5 -140.499s-85.166 -57.5 -140.499 -57.5s-102 19.167 -140 57.5s-57 85.166 -57 140.499s19 102 57 140s84.667 57 140 57s102.166 -19 140.499 -57s57.5 -84.667 57.5 -140zM1525 356
c0 -54 -40.665 -112.669 -121.998 -176.002c-154 -120 -326.667 -180 -518 -180c-231.333 0 -428.333 81.333 -591 244s-244 359.667 -244 591s81.333 428.333 244 591s359.667 244 591 244c191.333 0 364 -60 518 -180c81.333 -63.333 122 -122 122 -176
c0 -43.333 -16.5 -81.5 -49.5 -114.5s-71.167 -49.5 -114.5 -49.5c-36 0 -73.333 16.333 -112 49c-8.66699 8.66699 -25.334 23.334 -50.001 44.001c-90.667 71.333 -195.334 107 -314.001 107c-142.667 0 -264.167 -50.167 -364.5 -150.5s-150.5 -221.833 -150.5 -364.5
s50.167 -264.167 150.5 -364.5s221.833 -150.5 364.5 -150.5c118 0 222.667 35.667 314 107c9.33301 8.66699 26 23.334 50 44.001c38.667 32.667 76 49 112 49c43.333 0 81.5 -16.5 114.5 -49.5s49.5 -71.167 49.5 -114.5z" />
    <glyph glyph-name="cdot" unicode="&#x10b;" horiz-adv-x="1191" 
d="M859 1471c0 -54.667 -19.333 -101 -58 -139s-85.667 -57 -141 -57s-102.333 19 -141 57s-58 84.333 -58 139c0 55.333 19.333 102.333 58 141s85.667 58 141 58s102.333 -19.333 141 -58s58 -85.667 58 -141zM1141 930c0 -43.333 -16.5029 -81.666 -49.5029 -114.999
s-71.167 -50 -114.5 -50c-24.667 0 -69.334 22.5 -134.001 67.5s-125.667 67.5 -183 67.5c-80.667 0 -149.167 -28.167 -205.5 -84.5s-84.5 -124.833 -84.5 -205.5s28.167 -149.167 84.5 -205.5s124.833 -84.5 205.5 -84.5c56.667 0 117.334 22.333 182.001 67
s109.334 67 134.001 67c43.333 0 81.5 -16.5 114.5 -49.5s49.5 -71.167 49.5 -114.5c0 -36.667 -16.667 -74 -50 -112c-49.333 -55.333 -114.666 -99.333 -195.999 -132c-77.333 -30.667 -155.333 -46 -234 -46c-169.333 0 -313.333 59.333 -432 178s-178 262.667 -178 432
s59.333 313.333 178 432s262.667 178 432 178c77.333 0 155.333 -15.667 234 -47c82.667 -32.667 148.334 -76.334 197.001 -131.001c33.333 -38 50 -75.333 50 -112z" />
    <glyph glyph-name="Ccaron" unicode="&#x10c;" horiz-adv-x="1575" 
d="M1525 356c0 -54 -40.6631 -112.668 -121.996 -176.001c-154.667 -120 -327.334 -180 -518.001 -180c-231.333 0 -428.333 81.333 -591 244s-244 359.667 -244 591c0 216.667 72.667 404.667 218 564s326 248.666 542 267.999l-239 160c-48.667 32.667 -73 75.667 -73 129
c0 43.333 15.667 82 47 116s68.666 51 111.999 51c33.333 0 73 -15 119 -45c9.33301 -6 45.666 -31.333 108.999 -76l109 76c46 30 85.667 45 119 45c43.333 0 80.666 -17 111.999 -51s47 -72.667 47 -116c0 -52.667 -24.333 -95.667 -73 -129l-239 -160
c162.667 -14.667 310.334 -73.667 443.001 -177c81.333 -63.333 122 -122 122 -176c0 -43.333 -16.5 -81.5 -49.5 -114.5s-71.167 -49.5 -114.5 -49.5c-36.667 0 -74 16.333 -112 49c-8.66699 8.66699 -25.334 23.334 -50.001 44.001
c-88.667 71.333 -193.334 107 -314.001 107c-142.667 0 -264.167 -50.167 -364.5 -150.5s-150.5 -221.833 -150.5 -364.5s50.167 -264.167 150.5 -364.5s221.833 -150.5 364.5 -150.5c120.667 0 225.334 35.667 314.001 107c9.33301 8.66699 26 23.334 50 44.001
c38.667 32.667 76 49 112 49c43.333 0 81.5 -16.5 114.5 -49.5s49.5 -71.167 49.5 -114.5z" />
    <glyph glyph-name="ccaron" unicode="&#x10d;" horiz-adv-x="1191" 
d="M1141 930c0 -43.333 -16.499 -81.666 -49.499 -114.999s-71.167 -50 -114.5 -50c-25.333 0 -70 22.5 -134 67.5s-125 67.5 -183 67.5c-80.667 0 -149.167 -28.167 -205.5 -84.5s-84.5 -124.833 -84.5 -205.5s28.167 -149.167 84.5 -205.5s124.833 -84.5 205.5 -84.5
c58 0 118.833 22.333 182.5 67s108.167 67 133.5 67c43.333 0 81.5 -16.5 114.5 -49.5s49.5 -71.167 49.5 -114.5c0 -38.667 -16.667 -76 -50 -112c-109.333 -118.667 -252.666 -178 -429.999 -178c-169.333 0 -313.333 59.333 -432 178s-178 262.667 -178 432
c0 154.667 51 289.667 153 405s230 182.333 384 201c-5.33301 3.33301 -14.666 9.66602 -27.999 18.999l-213 142c-48.667 32.667 -73 75.667 -73 129c0 43.333 15.667 82 47 116s68.666 51 111.999 51c33.333 0 73.333 -15.333 120 -46
c13.333 -8.66699 49.333 -33.667 108 -75l108 75c46.667 30.667 86.667 46 120 46c43.333 0 80.666 -17 111.999 -51s47 -72.667 47 -116c0 -53.333 -24.333 -96.333 -73 -129l-213 -142l-28 -20c83.333 -10 167.666 -39.667 252.999 -89c103.333 -60 155 -125.333 155 -196
z" />
    <glyph glyph-name="Dcaron" unicode="&#x10e;" horiz-adv-x="1645" 
d="M1275 835c0 142.667 -50.167 264.167 -150.5 364.5s-221.833 150.5 -364.5 150.5h-290v-1030h290c142.667 0 264.167 50.167 364.5 150.5s150.5 221.833 150.5 364.5zM1147 1956c0 -49.333 -24.3311 -92.333 -72.998 -129c-109.333 -82 -195.333 -135 -258 -159
c220 -14.667 404.833 -102 554.5 -262s224.5 -350.333 224.5 -571c0 -232 -81.167 -429.167 -243.5 -591.5s-359.5 -243.5 -591.5 -243.5h-450c-43.333 -0 -80.833 15.833 -112.5 47.5s-47.5 69.167 -47.5 112.5v1350c0 43.333 15.833 80.833 47.5 112.5
s69.167 47.5 112.5 47.5h389c-62 24.667 -146.333 77 -253 157c-48.667 36.667 -73 79.667 -73 129c0 43.333 15.667 82 47 116s68.666 51 111.999 51c31.333 0 62 -10 92 -30l136 -91l136 91c30 20 60.667 30 92 30c43.333 0 80.666 -17 111.999 -51s47 -72.667 47 -116z
" />
    <glyph glyph-name="dcaron" unicode="&#x10f;" horiz-adv-x="1420" 
d="M1270 160c0 -46.667 -15 -85 -45 -115s-68.333 -45 -115 -45c-67.333 0 -115 27.667 -143 83c-94.667 -55.333 -197 -83 -307 -83c-169.333 -0 -313.333 59.333 -432 178s-178 262.667 -178 432s59.333 313.333 178 432s262.667 178 432 178
c103.333 0 200 -24.333 290 -73v363c0 46.667 15 85 45 115s68.333 45 115 45s85 -15 115 -45s45 -68.333 45 -115v-1350zM950 610c0 80.667 -28.167 149.167 -84.5 205.5s-124.833 84.5 -205.5 84.5s-149.167 -28.167 -205.5 -84.5s-84.5 -124.833 -84.5 -205.5
s28.167 -149.167 84.5 -205.5s124.833 -84.5 205.5 -84.5s149.167 28.167 205.5 84.5s84.5 124.833 84.5 205.5zM1062 1956c0 -49.333 -24.332 -92.333 -72.999 -129c-153.333 -114.667 -258 -172 -314 -172s-160.667 57.333 -314 172c-48.667 36.667 -73 79.667 -73 129
c0 44 15.833 82.833 47.5 116.5s69.167 50.5 112.5 50.5c30.667 0 61 -10 91 -30l136 -91l136 91c30 20 60.667 30 92 30c43.333 0 80.666 -17 111.999 -51s47 -72.667 47 -116z" />
    <glyph glyph-name="Dslash" unicode="&#x110;" horiz-adv-x="1680" 
d="M1630 835c0 -232 -81.167 -429.167 -243.5 -591.5s-359.5 -243.5 -591.5 -243.5h-450c-43.333 -0 -80.833 15.833 -112.5 47.5s-47.5 69.167 -47.5 112.5v555c-60 0 -101.667 5 -125 15c-40 17.333 -60 52.333 -60 105s20 87.667 60 105c23.333 10 65 15 125 15v555
c0 43.333 15.833 80.833 47.5 112.5s69.167 47.5 112.5 47.5h450c232 0 429.167 -81.167 591.5 -243.5s243.5 -359.5 243.5 -591.5zM1310 835c0 142.667 -50.167 264.169 -150.5 364.502s-221.833 150.5 -364.5 150.5h-290v-395h65c34.667 0 63.334 -11.333 86.001 -34
s34 -51.334 34 -86.001s-11.333 -63.334 -34 -86.001s-51.334 -34 -86.001 -34h-65v-395h290c142.667 0 264.167 50.167 364.5 150.5s150.5 221.833 150.5 364.5z" />
    <glyph glyph-name="dcroat" unicode="&#x111;" horiz-adv-x="1455" 
d="M950 610c0 80 -28.333 148.333 -85 205s-125 85 -205 85s-148.333 -28.333 -205 -85s-85 -125 -85 -205s28.333 -148.333 85 -205s125 -85 205 -85s148.333 28.333 205 85s85 125 85 205zM950 1320v190c0 46.667 15 85 45 115s68.333 45 115 45s85 -15 115 -45
s45 -68.333 45 -115v-190h65c80 0 120 -40 120 -120s-40 -120 -120 -120h-65v-920c0 -46.667 -15 -85 -45 -115s-68.333 -45 -115 -45c-67.333 0 -115 27.667 -143 83c-94.667 -55.333 -197 -83 -307 -83c-169.333 -0 -313.333 59.333 -432 178s-178 262.667 -178 432
c0 145.333 46 274.333 138 387s209.333 183 352 211c4.66699 74.667 44.667 112 120 112h290z" />
    <glyph glyph-name="Emacron" unicode="&#x112;" horiz-adv-x="1270" 
d="M1220 1885c0 -46.667 -15 -85 -45 -115s-68.333 -45 -115 -45h-750c-46.667 0 -85 15 -115 45s-45 68.333 -45 115s15 85 45 115s68.333 45 115 45h750c46.667 0 85 -15 115 -45s45 -68.333 45 -115zM1220 1510c0 -46.667 -15 -85 -45 -115s-68.333 -45 -115 -45h-590
v-355h440c46.667 0 85 -15 115 -45s45 -68.333 45 -115s-15 -85 -45 -115s-68.333 -45 -115 -45h-440v-355l590 -1c46.667 0 85 -15 115 -45s45 -68.333 45 -115s-15.167 -85 -45.5 -115s-68.833 -45 -115.5 -45l-749 1c-42.667 0 -80 16 -112 48s-48 69.333 -48 112v1350
c0 42.667 16 80 48 112s69.333 48 112 48h750c46.667 0 85 -15 115 -45s45 -68.333 45 -115z" />
    <glyph glyph-name="emacron" unicode="&#x113;" horiz-adv-x="1262" 
d="M1210 1435c0 -46.667 -15 -85 -45 -115s-68.333 -45 -115 -45h-840c-46.667 0 -85 15 -115 45s-45 68.333 -45 115s15 85 45 115s68.333 45 115 45h840c46.667 0 85 -15 115 -45s45 -68.333 45 -115zM1212 389c0 -24.667 -8 -52.667 -24 -84
c-47.333 -92.667 -121.333 -167 -222 -223c-96.667 -54.667 -198.667 -82 -306 -82c-169.333 -0 -313.333 59.333 -432 178s-178 262.667 -178 432s59.333 313.333 178 432s262.667 178 432 178c82.667 0 165.667 -18.833 249 -56.5s153 -87.5 209 -149.5
c61.333 -67.333 92 -130.666 92 -189.999c0 -54.667 -26.667 -97.334 -80 -128.001l-599 -345c40.667 -20.667 83.667 -31 129 -31c69.333 0 127 19.667 173 59l93 106c42 41.333 81.667 62 119 62c44 0 82.833 -15.5 116.5 -46.5s50.5 -68.167 50.5 -111.5zM790 870
c-40.667 20 -84 30 -130 30c-76.667 0 -143 -26.167 -199 -78.5s-86 -116.833 -90 -193.5z" />
    <glyph glyph-name="Ebreve" unicode="&#x114;" horiz-adv-x="1270" 
d="M1220 1510c0 -46.667 -14.999 -85.002 -44.999 -115.002s-68.333 -45 -115 -45h-590v-355h440c46.667 0 85 -15 115 -45s45 -68.333 45 -115s-15 -85 -45 -115s-68.333 -45 -115 -45h-440v-355l590 -1c46.667 0 85 -15 115 -45s45 -68.333 45 -115
s-15.167 -85 -45.5 -115s-68.833 -45 -115.5 -45l-749 1c-42.667 0 -80 16 -112 48s-48 69.333 -48 112v1350c0 42.667 16 80 48 112s69.333 48 112 48h268c-57.333 20 -116 58.333 -176 115c-68.667 64.667 -103 123.334 -103 176.001c0 43.333 16.833 81.166 50.5 113.499
s72.167 48.5 115.5 48.5c39.333 0 85 -25.5 137 -76.5s79.667 -76.5 83 -76.5c5.33301 0 34.166 25.333 86.499 76s97.833 76 136.5 76c44 0 83.167 -16.167 117.5 -48.5s51.5 -70.166 51.5 -113.499c0 -51.333 -36.333 -109.666 -109 -174.999
c-63.333 -56.667 -124 -95 -182 -115h274c46.667 0 85 -15 115 -45s45 -68.333 45 -115z" />
    <glyph glyph-name="ebreve" unicode="&#x115;" horiz-adv-x="1262" 
d="M1212 389c0 -24 -8 -51.998 -24 -83.998c-46 -92 -120 -166.333 -222 -223c-97.333 -54.667 -199.333 -82 -306 -82c-169.333 0 -313.333 59.333 -432 178s-178 262.667 -178 432c0 162 55.167 301.667 165.5 419s246.5 180.666 408.5 189.999
c-120.667 13.333 -225 82.333 -313 207c-24.667 35.333 -37 68.666 -37 99.999c0 43.333 16.833 81.166 50.5 113.499s72.167 48.5 115.5 48.5c39.333 0 85 -25.5 137 -76.5s79.667 -76.5 83 -76.5c5.33301 0 34.166 25.333 86.499 76s97.833 76 136.5 76
c44 0 83.167 -16.167 117.5 -48.5s51.5 -70.166 51.5 -113.499c0 -38.667 -22.667 -82.667 -68 -132c-96 -104.667 -194 -162.667 -294 -174c171.333 -10.667 314 -79 428 -205c61.333 -67.333 92 -130.666 92 -189.999c0 -54.667 -26.667 -97.334 -80 -128.001l-599 -345
c40.667 -20.667 83.667 -31 129 -31c68.667 0 126.334 19.667 173.001 59l97 109c34.667 39.333 73 59 115 59c43.333 0 82 -15.5 116 -46.5s51 -68.167 51 -111.5zM790 870.002c-40.667 20 -83.998 30 -129.998 30c-76.667 0 -142.834 -26.167 -198.501 -78.5
s-85.834 -116.833 -90.501 -193.5z" />
    <glyph glyph-name="Edot" unicode="&#x116;" horiz-adv-x="1270" 
d="M883 1898c0 -55.333 -19.167 -102.166 -57.5 -140.499s-85.166 -57.5 -140.499 -57.5s-102 19.167 -140 57.5s-57 85.166 -57 140.499s19 102 57 140s84.667 57 140 57s102.166 -19 140.499 -57s57.5 -84.667 57.5 -140zM1220 1510c0 -46.667 -15 -85 -45 -115
s-68.333 -45 -115 -45h-590v-355h440c46.667 0 85 -15 115 -45s45 -68.333 45 -115s-15 -85 -45 -115s-68.333 -45 -115 -45h-440v-355l590 -1c46.667 0 85 -15 115 -45s45 -68.333 45 -115s-15.167 -85 -45.5 -115s-68.833 -45 -115.5 -45l-749 1c-42.667 0 -80 16 -112 48
s-48 69.333 -48 112v1350c0 42.667 16 80 48 112s69.333 48 112 48h750c46.667 0 85 -15 115 -45s45 -68.333 45 -115z" />
    <glyph glyph-name="edot" unicode="&#x117;" horiz-adv-x="1262" 
d="M859 1471c0 -54.667 -19.333 -101 -58 -139s-85.667 -57 -141 -57s-102.333 19 -141 57s-58 84.333 -58 139c0 55.333 19.333 102.333 58 141s85.667 58 141 58s102.333 -19.333 141 -58s58 -85.667 58 -141zM1212 389c0 -24.667 -8 -52.667 -24 -84
c-47.333 -92.667 -121.333 -167 -222 -223c-96.667 -54.667 -198.667 -82 -306 -82c-169.333 -0 -313.333 59.333 -432 178s-178 262.667 -178 432s59.333 313.333 178 432s262.667 178 432 178c82.667 0 165.667 -18.833 249 -56.5s153 -87.5 209 -149.5
c61.333 -67.333 92 -130.666 92 -189.999c0 -54.667 -26.667 -97.334 -80 -128.001l-599 -345c40.667 -20.667 83.667 -31 129 -31c69.333 0 127 19.667 173 59l93 106c42 41.333 81.667 62 119 62c44 0 82.833 -15.5 116.5 -46.5s50.5 -68.167 50.5 -111.5zM790 870
c-40.667 20 -84 30 -130 30c-76.667 0 -143 -26.167 -199 -78.5s-86 -116.833 -90 -193.5z" />
    <glyph glyph-name="Eogonek" unicode="&#x118;" horiz-adv-x="1270" 
d="M1418 -173c0 -25.333 -8.00098 -53.333 -24.001 -84c-30.667 -58.667 -77.167 -105.5 -139.5 -140.5s-127.166 -52.5 -194.499 -52.5c-106.667 0 -197.5 37.5 -272.5 112.5s-112.5 165.833 -112.5 272.5c0 22 1.66699 43.667 5 65h-370c-42.667 0 -80 16 -112 48
s-48 69.333 -48 112v1350c0 42.667 16 80 48 112s69.333 48 112 48h750c46.667 0 85 -15 115 -45s45 -68.333 45 -115s-15 -85 -45 -115s-68.333 -45 -115 -45h-590v-355h440c46.667 0 85 -15 115 -45s45 -68.333 45 -115s-15 -85 -45 -115s-68.333 -45 -115 -45h-440v-355
h590c46.667 0 85 -15 115 -45s45 -68.333 45 -115s-15.167 -85.167 -45.5 -115.5s-68.833 -45.5 -115.5 -45.5c-42.667 0 -64 -21.333 -64 -64c0 -43.333 21.667 -65 65 -65c14 0 39.167 19.167 75.5 57.5s74.5 57.5 114.5 57.5c44 0 83 -15.333 117 -46s51 -68 51 -112z
" />
    <glyph glyph-name="eogonek" unicode="&#x119;" horiz-adv-x="1262" 
d="M1212 389c0 -24.667 -8.00098 -52.667 -24.001 -84c-46.667 -92.667 -120.667 -167 -222 -223c-97.333 -54.667 -199.333 -82 -306 -82c-43.333 -0 -65 -21.667 -65 -65s21.667 -65 65 -65c14 0 39.167 19.167 75.5 57.5s74.5 57.5 114.5 57.5c44 0 83 -15.333 117 -46
s51 -68 51 -112c0 -25.333 -8 -53.333 -24 -84c-30.667 -58.667 -77.167 -105.5 -139.5 -140.5s-127.166 -52.5 -194.499 -52.5c-106.667 0 -197.5 37.5 -272.5 112.5s-112.5 165.833 -112.5 272.5c0 60.667 13.667 118 41 172c-177.333 121.333 -266 289 -266 503
c0 169.333 59.333 313.333 178 432s262.667 178 432 178c180 0 332.667 -68.667 458 -206c61.333 -67.333 92 -130.666 92 -189.999c0 -54.667 -26.667 -97.334 -80 -128.001l-599 -345c40.667 -20.667 83.667 -31 129 -31c69.333 0 127 19.667 173 59l97 109
c34.667 39.333 73 59 115 59c43.333 0 82 -15.5 116 -46.5s51 -68.167 51 -111.5zM789.999 870c-40.667 20 -83.998 30 -129.998 30c-76.667 0 -142.834 -26.167 -198.501 -78.5s-85.834 -116.833 -90.501 -193.5z" />
    <glyph glyph-name="Ecaron" unicode="&#x11a;" horiz-adv-x="1270" 
d="M1220 160c0 -46.667 -14.9971 -84.999 -44.9971 -114.999s-68.333 -45 -115 -45h-750c-42.667 0 -80 16 -112 48s-48 69.333 -48 112v1350c0 42.667 16 80 48 112s69.333 48 112 48h294c-52.667 33.333 -130.334 85.666 -233.001 156.999c-48.667 34 -73 77 -73 129
c0 43.333 15.667 82 47 116s68.666 51 111.999 51c31.333 0 62 -10 92 -30l136 -91l136 91c30 20 60.667 30 92 30c43.333 0 80.666 -17 111.999 -51s47 -72.667 47 -116c0 -51.333 -40 -107 -120 -167l-186 -119h294c46.667 0 85 -15 115 -45s45 -68.333 45 -115
s-15 -85 -45 -115s-68.333 -45 -115 -45h-590v-355h440c46.667 0 85 -15 115 -45s45 -68.333 45 -115s-15 -85 -45 -115s-68.333 -45 -115 -45h-440v-355h590c46.667 0 85 -15 115 -45s45 -68.333 45 -115z" />
    <glyph glyph-name="ecaron" unicode="&#x11b;" horiz-adv-x="1262" 
d="M1212 389c0 -25.333 -7.99805 -53.3301 -23.998 -83.9971c-48 -92.667 -122 -167.334 -222 -224.001c-96.667 -54 -198.667 -81 -306 -81c-169.333 0 -313.333 59.333 -432 178s-178 262.667 -178 432c0 154.667 51 289.667 153 405s230 182.333 384 201
c-5.33301 3.33301 -14.666 9.66602 -27.999 18.999l-213 142c-48.667 32.667 -73 75.667 -73 129c0 43.333 15.667 82 47 116s68.666 51 111.999 51c33.333 0 73 -15 119 -45c9.33301 -6 45.666 -31.333 108.999 -76l109 76c46 30 85.667 45 119 45
c43.333 0 80.666 -17 111.999 -51s47 -72.667 47 -116c0 -53.333 -24.333 -96.333 -73 -129l-213 -142l-29 -20c101.333 -14 202.333 -56.667 303 -128c116.667 -82 175 -169.667 175 -263c0 -54.667 -26.667 -97.334 -80 -128.001l-599 -345
c40.667 -20.667 83.667 -31 129 -31c69.333 0 127 19.667 173 59l97 109c34.667 39.333 73 59 115 59c44 0 82.833 -15.5 116.5 -46.5s50.5 -68.167 50.5 -111.5zM790.002 870.003c-40.667 20 -84 30 -130 30c-76.667 0 -143 -26.167 -199 -78.5s-86 -116.833 -90 -193.5z
" />
    <glyph glyph-name="Gcircumflex" unicode="&#x11c;" horiz-adv-x="1625" 
d="M1272 1814c0 -43.333 -15.6689 -82 -47.002 -116s-68.666 -51 -111.999 -51c-31.333 0 -62 10 -92 30l-136 91l-136 -91c-30 -20 -60.667 -30 -92 -30c-43.333 0 -80.666 17 -111.999 51s-47 72.667 -47 116c0 53.333 24.333 96.333 73 129l212 142
c38 25.333 72 38 102 38s64 -12.667 102 -38l212 -142c48.667 -32.667 73 -75.667 73 -129zM1525 1314c0 -43.333 -16.502 -81.499 -49.502 -114.499s-71.167 -49.5 -114.5 -49.5c-37.333 0 -74.666 16.333 -111.999 49c-9.33301 9.33301 -27.333 25.333 -54 48
c-90.667 68.667 -194 103 -310 103c-142.667 0 -264.167 -50.167 -364.5 -150.5s-150.5 -221.833 -150.5 -364.5s50.167 -264.167 150.5 -364.5s221.833 -150.5 364.5 -150.5c118.667 0 224.334 36.333 317.001 109v406c0 46.667 15 85 45 115s68.333 45 115 45
s85 -15 115 -45s45 -68.333 45 -115v-478c0 -100.667 -83.667 -188.334 -251 -263.001c-140 -62.667 -268.667 -94 -386 -94c-232 0 -429.167 81.167 -591.5 243.5s-243.5 359.5 -243.5 591.5s81.167 429.167 243.5 591.5s359.5 243.5 591.5 243.5c188 0 358 -58 510 -174
c86.667 -66 130 -126.667 130 -182z" />
    <glyph glyph-name="gcircumflex" unicode="&#x11d;" horiz-adv-x="1170" 
d="M1120 85c0 -148.667 -52.001 -275 -156.001 -379s-230.333 -156 -379 -156s-275 52 -379 156s-156 230.333 -156 379c0 46.667 15 85 45 115s68.333 45 115 45s85 -15 115 -45s45 -68.333 45 -115c0 -60 20.833 -110.833 62.5 -152.5s92.5 -62.5 152.5 -62.5
s110.833 20.833 152.5 62.5s62.5 92.5 62.5 152.5s-21 110.833 -63 152.5s-93 62.5 -153 62.5c-127.333 0 -235.666 44.833 -324.999 134.5s-134 198.167 -134 325.5s44.667 235.833 134 325.5s197.666 134.5 324.999 134.5h148c-6.66699 4 -55.667 36.667 -147 98l-109 -76
c-46 -30 -85.667 -45 -119 -45c-43.333 0 -80.666 17 -111.999 51s-47 72.667 -47 116c0 53.333 24.333 96.333 73 129l213 142c38 25.333 71.667 38 101 38s63 -12.667 101 -38l213 -142c48.667 -32.667 73 -75.667 73 -129c0 -62 -27.333 -110 -82 -144h70
c46.667 0 85 -15 115 -45s45 -68.333 45 -115c0 -76 -33.333 -126 -100 -150c16.667 -48.667 25 -98.667 25 -150c0 -105.333 -32.333 -199.333 -97 -282c114.667 -106 172 -237 172 -393zM724.999 760c0 38 -13.833 70.833 -41.5 98.5s-60.5 41.5 -98.5 41.5
s-70.833 -13.833 -98.5 -41.5s-41.5 -60.5 -41.5 -98.5s13.833 -70.833 41.5 -98.5s60.5 -41.5 98.5 -41.5s70.833 13.833 98.5 41.5s41.5 60.5 41.5 98.5z" />
    <glyph glyph-name="Gbreve" unicode="&#x11e;" horiz-adv-x="1625" 
d="M1525 1314c0 -43.333 -16.502 -81.4961 -49.502 -114.496s-71.167 -49.5 -114.5 -49.5c-36.667 0 -74 16.333 -112 49c-9.33301 9.33301 -27.333 25.333 -54 48c-89.333 68.667 -192.666 103 -309.999 103c-142.667 0 -264.167 -50.167 -364.5 -150.5
s-150.5 -221.833 -150.5 -364.5s50.167 -264.167 150.5 -364.5s221.833 -150.5 364.5 -150.5c118.667 0 224.334 36.333 317.001 109v406c0 46.667 15 85 45 115s68.333 45 115 45s85 -15 115 -45s45 -68.333 45 -115v-478c0 -100.667 -83.667 -188.334 -251 -263.001
c-140 -62.667 -268.667 -94 -386 -94c-231.333 0 -428.333 81.333 -591 244s-244 359.667 -244 591c0 213.333 70.667 399.166 212 557.499s318 249.166 530 272.499c-60 18 -122.333 56.333 -187 115c-72 65.333 -108 125.666 -108 180.999
c0 43.333 16.667 81.166 50 113.499s72 48.5 116 48.5c39.333 0 85 -25.5 137 -76.5s79.667 -76.5 83 -76.5c5.33301 0 34.166 25.333 86.499 76s97.833 76 136.5 76c44 0 83.167 -16.167 117.5 -48.5s51.5 -70.166 51.5 -113.499c0 -53.333 -38 -113 -114 -179
c-67.333 -58.667 -131 -97 -191 -115c154.667 -16 296.334 -72.667 425.001 -170c86.667 -66 130 -126.667 130 -182z" />
    <glyph glyph-name="gbreve" unicode="&#x11f;" horiz-adv-x="1170" 
d="M1120 85c0 -148.667 -52.002 -274.998 -156.002 -378.998s-230.333 -156 -379 -156s-275 52 -379 156s-156 230.333 -156 379c0 46.667 15 85 45 115s68.333 45 115 45s85 -15 115 -45s45 -68.333 45 -115c0 -60 20.833 -110.833 62.5 -152.5s92.5 -62.5 152.5 -62.5
s110.833 20.833 152.5 62.5s62.5 92.5 62.5 152.5s-21 110.833 -63 152.5s-93 62.5 -153 62.5c-127.333 0 -235.666 44.833 -324.999 134.5s-134 198.167 -134 325.5c0 111.333 35.5 209.666 106.5 294.999s161.5 138 271.5 158c-62 18.667 -126.333 57 -193 115
c-75.333 65.333 -113 126.333 -113 183c0 43.333 16.667 81.166 50 113.499s72 48.5 116 48.5c39.333 0 85 -25.5 137 -76.5s80 -76.5 84 -76.5c4.66699 0 33 25.333 85 76s97.667 76 137 76c44 0 83.167 -16.167 117.5 -48.5s51.5 -70.166 51.5 -113.499
c0 -50.667 -35.333 -108.334 -106 -173.001c-61.333 -56.667 -120.666 -95.667 -177.999 -117h269c46.667 0 85 -15 115 -45s45 -68.333 45 -115c0 -76 -33.333 -126 -100 -150c16.667 -48.667 25 -98.667 25 -150c0 -105.333 -32.333 -199.333 -97 -282
c114.667 -106 172 -237 172 -393zM724.998 760.002c0 38 -13.833 70.833 -41.5 98.5s-60.5 41.5 -98.5 41.5s-70.833 -13.833 -98.5 -41.5s-41.5 -60.5 -41.5 -98.5s13.833 -70.833 41.5 -98.5s60.5 -41.5 98.5 -41.5s70.833 13.833 98.5 41.5s41.5 60.5 41.5 98.5z" />
    <glyph glyph-name="Gdot" unicode="&#x120;" horiz-adv-x="1625" 
d="M1083 1898c0 -55.333 -19.167 -102.166 -57.5 -140.499s-85.166 -57.5 -140.499 -57.5s-102 19.167 -140 57.5s-57 85.166 -57 140.499s19 102 57 140s84.667 57 140 57s102.166 -19 140.499 -57s57.5 -84.667 57.5 -140zM1525 1314
c0 -43.333 -16.501 -81.499 -49.501 -114.499s-71.167 -49.5 -114.5 -49.5c-35.333 0 -72.666 16.333 -111.999 49c-9.33301 9.33301 -27.333 25.333 -54 48c-90 68.667 -193.333 103 -310 103c-142.667 0 -264.167 -50.167 -364.5 -150.5s-150.5 -221.833 -150.5 -364.5
s50.167 -264.167 150.5 -364.5s221.833 -150.5 364.5 -150.5c118 0 223.667 36.333 317 109v406c0 46.667 15 85 45 115s68.333 45 115 45s85 -15 115 -45s45 -68.333 45 -115v-478c0 -100.667 -83.667 -188.334 -251 -263.001c-140 -62.667 -268.667 -94 -386 -94
c-231.333 -0 -428.333 81.333 -591 244s-244 359.667 -244 591s81.333 428.333 244 591s359.667 244 591 244c186.667 0 356.667 -58 510 -174c86.667 -65.333 130 -126 130 -182z" />
    <glyph glyph-name="gdot" unicode="&#x121;" horiz-adv-x="1170" 
d="M784 1471c0 -54.667 -19.333 -101 -58 -139s-85.667 -57 -141 -57s-102.333 19 -141 57s-58 84.333 -58 139c0 55.333 19.333 102.333 58 141s85.667 58 141 58s102.333 -19.333 141 -58s58 -85.667 58 -141zM1120 85c0 -148.667 -52 -275 -156 -379
s-230.333 -156 -379 -156s-275 52 -379 156s-156 230.333 -156 379c0 46.667 15 85 45 115s68.333 45 115 45s85 -15 115 -45s45 -68.333 45 -115c0 -60 20.833 -110.833 62.5 -152.5s92.5 -62.5 152.5 -62.5s110.833 20.833 152.5 62.5s62.5 92.5 62.5 152.5
s-21 110.833 -63 152.5s-93 62.5 -153 62.5c-127.333 0 -235.666 44.833 -324.999 134.5s-134 198.167 -134 325.5s44.667 235.833 134 325.5s197.666 134.5 324.999 134.5h376c46.667 0 85 -15 115 -45s45 -68.333 45 -115c0 -76 -33.333 -126 -100 -150
c16.667 -48.667 25 -98.667 25 -150c0 -105.333 -32.333 -199.333 -97 -282c114.667 -106 172 -237 172 -393zM725 760c0 38 -13.833 70.833 -41.5 98.5s-60.5 41.5 -98.5 41.5s-70.833 -13.833 -98.5 -41.5s-41.5 -60.5 -41.5 -98.5s13.833 -70.833 41.5 -98.5
s60.5 -41.5 98.5 -41.5s70.833 13.833 98.5 41.5s41.5 60.5 41.5 98.5z" />
    <glyph glyph-name="Gcedilla" unicode="&#x122;" horiz-adv-x="1625" 
d="M1525 1314c0 -43.333 -16.5 -81.501 -49.5 -114.501s-71.167 -49.5 -114.5 -49.5c-36.667 0 -74 16.333 -112 49c-8.66699 8.66699 -25.334 23.334 -50.001 44.001c-90 71.333 -194.667 107 -314 107c-142.667 0 -264.167 -50.167 -364.5 -150.5
s-150.5 -221.833 -150.5 -364.5s50.167 -264.167 150.5 -364.5s221.833 -150.5 364.5 -150.5c121.333 0 227 36.333 317 109v406c0 46.667 15 85 45 115s68.333 45 115 45s85 -15 115 -45s45 -68.333 45 -115v-479c0 -95.333 -93.667 -187.333 -281 -276
c19.333 -46 29 -94.333 29 -145c0 -106.667 -37.5 -197.5 -112.5 -272.5s-165.833 -112.5 -272.5 -112.5c-67.333 0 -131.666 17.333 -192.999 52c-64 36 -111 83 -141 141c-16 31.333 -24 59.333 -24 84c0 82 56 123 168 123c38.667 0 76.667 -13.333 114 -40
s62.666 -40 75.999 -40c43.333 0 65 21.667 65 65s-21.667 65 -65 65c-231.333 -0 -428.333 81.333 -591 244s-244 359.667 -244 591s81.333 428.333 244 591s359.667 244 591 244c190.667 0 363.334 -60 518.001 -180c81.333 -63.333 122 -122 122 -176z" />
    <glyph glyph-name="gcedilla" unicode="&#x123;" horiz-adv-x="1170" 
d="M943 1713c0 -43.333 -16.999 -80.5 -50.999 -111.5s-73 -46.5 -117 -46.5c-40 0 -78.167 19.167 -114.5 57.5s-61.5 57.5 -75.5 57.5c-43.333 0 -65 -21.667 -65 -65s21.667 -65 65 -65c46.667 0 85 -15 115 -45s45 -68.333 45 -115s-15 -85 -45 -115
s-68.333 -45 -115 -45c-106.667 0 -197.5 37.5 -272.5 112.5s-112.5 165.833 -112.5 272.5s37.5 197.5 112.5 272.5s165.833 112.5 272.5 112.5c67.333 0 131.666 -17.333 192.999 -52c64 -36 111 -83 141 -141c16 -31.333 24 -59.333 24 -84zM1120 85
c0 -148.667 -52 -275 -156 -379s-230.333 -156 -379 -156s-275 52 -379 156s-156 230.333 -156 379c0 46.667 15 85 45 115s68.333 45 115 45s85 -15 115 -45s45 -68.333 45 -115c0 -60 20.833 -110.833 62.5 -152.5s92.5 -62.5 152.5 -62.5s110.833 20.833 152.5 62.5
s62.5 92.5 62.5 152.5s-20.833 110.833 -62.5 152.5s-92.5 62.5 -152.5 62.5c-127.333 0 -235.833 44.833 -325.5 134.5s-134.5 198.167 -134.5 325.5s44.833 235.833 134.5 325.5s198.167 134.5 325.5 134.5h375c46.667 0 85 -15 115 -45s45 -68.333 45 -115
c0 -76 -33.333 -126 -100 -150c16.667 -48.667 25 -98.667 25 -150c0 -105.333 -32.333 -199.333 -97 -282c114.667 -106 172 -237 172 -393zM725.001 760c0 38 -13.833 70.833 -41.5 98.5s-60.5 41.5 -98.5 41.5s-70.833 -13.833 -98.5 -41.5s-41.5 -60.5 -41.5 -98.5
s13.833 -70.833 41.5 -98.5s60.5 -41.5 98.5 -41.5s70.833 13.833 98.5 41.5s41.5 60.5 41.5 98.5z" />
    <glyph glyph-name="Hcircumflex" unicode="&#x124;" horiz-adv-x="1520" 
d="M1147 1814c0 -43.333 -15.6689 -82 -47.002 -116s-68.666 -51 -111.999 -51c-31.333 0 -62 10 -92 30l-136 91l-136 -91c-30 -20 -60.667 -30 -92 -30c-43.333 0 -80.666 17 -111.999 51s-47 72.667 -47 116c0 53.333 24.333 96.333 73 129l213 142
c38 25.333 71.667 38 101 38s63 -12.667 101 -38l213 -142c48.667 -32.667 73 -75.667 73 -129zM1370 160c0 -46.667 -15 -85 -45 -115s-68.333 -45 -115 -45s-85 15 -115 45s-45 68.333 -45 115v515h-580v-515c0 -46.667 -15 -85 -45 -115s-68.333 -45 -115 -45
s-85 15 -115 45s-45 68.333 -45 115v1350c0 46.667 15 85 45 115s68.333 45 115 45s85 -15 115 -45s45 -68.333 45 -115v-515h580v515c0 46.667 15 85 45 115s68.333 45 115 45s85 -15 115 -45s45 -68.333 45 -115v-1350z" />
    <glyph glyph-name="hcircumflex" unicode="&#x125;" horiz-adv-x="1170" 
d="M1070 160c0 -46.667 -15.001 -85.001 -45.001 -115.001s-68.333 -45 -115 -45s-85 15 -115 45s-45 68.333 -45 115v600c0 38 -13.833 70.833 -41.5 98.5s-60.5 41.5 -98.5 41.5s-70.833 -13.833 -98.5 -41.5s-41.5 -60.5 -41.5 -98.5v-600c0 -46.667 -15 -85 -45 -115
s-68.333 -45 -115 -45s-85 15 -115 45s-45 68.333 -45 115v1350c0 45.333 14.5 83 43.5 113s66.167 45.667 111.5 47c-54.667 34 -82 82 -82 144c0 53.333 24.333 96.333 73 129l213 142c38 25.333 71.667 38 101 38s63 -12.667 101 -38l213 -142
c48.667 -32.667 73 -75.667 73 -129c0 -43.333 -15.667 -82 -47 -116s-68.666 -51 -111.999 -51c-31.333 0 -62 10 -92 30l-136 91l-103 -72c-43.333 -29.333 -80.333 -45.333 -111 -48c49.333 -29.333 74 -75.333 74 -138v-312c45.333 14.667 92 22 140 22
c127.333 0 235.833 -44.667 325.5 -134s134.5 -197.666 134.5 -324.999v-601z" />
    <glyph glyph-name="Hbar" unicode="&#x126;" horiz-adv-x="1520" 
d="M1480 1285c0 -74.667 -36.667 -114.667 -110 -120v-1005c0 -46.667 -15 -85 -45 -115s-68.333 -45 -115 -45s-85 15 -115 45s-45 68.333 -45 115v515h-580v-515c0 -46.667 -15 -85 -45 -115s-68.333 -45 -115 -45s-85 15 -115 45s-45 68.333 -45 115v1005
c-73.333 5.33301 -110 45.333 -110 120s36.667 114.667 110 120v105c0 46.667 15 85 45 115s68.333 45 115 45s85 -15 115 -45s45 -68.333 45 -115v-105h580v105c0 46.667 15 85 45 115s68.333 45 115 45s85 -15 115 -45s45 -68.333 45 -115v-105
c73.333 -5.33301 110 -45.333 110 -120zM1050 995v170h-580v-170h580z" />
    <glyph glyph-name="hbar" unicode="&#x127;" horiz-adv-x="1205" 
d="M1105 160c0 -46.667 -15.001 -85.001 -45.001 -115.001s-68.333 -45 -115 -45s-85 15 -115 45s-45 68.333 -45 115v600c0 38 -13.833 70.833 -41.5 98.5s-60.5 41.5 -98.5 41.5s-70.833 -13.833 -98.5 -41.5s-41.5 -60.5 -41.5 -98.5v-600c0 -46.667 -15 -85 -45 -115
s-68.333 -45 -115 -45s-85 15 -115 45s-45 68.333 -45 115v1005h-65c-34.667 0 -63.334 11.333 -86.001 34s-34 51.334 -34 86.001s11.333 63.334 34 86.001s51.334 34 86.001 34h65v105c0 46.667 15 85 45 115s68.333 45 115 45s85 -15 115 -45s45 -68.333 45 -115v-105h65
c34.667 0 63.334 -11.333 86.001 -34s34 -51.334 34 -86.001c0 -24.667 -6 -46.667 -18 -66c122 -7.33301 224.667 -55 308 -143s125 -193 125 -315v-601z" />
    <glyph glyph-name="Itilde" unicode="&#x128;" horiz-adv-x="620" 
d="M772 1891c0 -72.667 -35 -132.333 -105 -179c-62 -41.333 -131 -62 -207 -62c-56.667 0 -110.667 15.667 -162 47c-8.66699 5.33301 -54.667 39.666 -138 102.999l-13 1c-28.667 -51.333 -72.667 -77 -132 -77c-44.667 0 -83.667 14.833 -117 44.5s-50 66.5 -50 110.5
c0 72.667 35 132.334 105 179.001c62 41.333 131 62 207 62c68 0 123 -15.667 165 -47l133 -101h17c28.667 49.333 72 74 130 74c44.667 0 83.667 -14.833 117 -44.5s50 -66.5 50 -110.5zM470 160.001c0 -46.667 -15 -85 -45 -115s-68.333 -45 -115 -45s-85 15 -115 45
s-45 68.333 -45 115v1350c0 46.667 15 85 45 115s68.333 45 115 45s85 -15 115 -45s45 -68.333 45 -115v-1350z" />
    <glyph glyph-name="itilde" unicode="&#x129;" horiz-adv-x="620" 
d="M772 1441c0 -72.667 -35 -132.333 -105 -179c-62 -41.333 -131 -62 -207 -62c-56.667 0 -110.667 15.667 -162 47c-8.66699 5.33301 -54.667 39.666 -138 102.999l-13 1c-28.667 -51.333 -72.667 -77 -132 -77c-44.667 0 -83.667 14.833 -117 44.5s-50 66.5 -50 110.5
c0 72.667 35 132.334 105 179.001c62 41.333 131 62 207 62c68 0 123 -15.667 165 -47l133 -101h17c28.667 49.333 72 74 130 74c44.667 0 83.667 -14.833 117 -44.5s50 -66.5 50 -110.5zM470 1060v-900c0 -46.667 -15 -85 -45 -115s-68.333 -45 -115 -45s-85 15 -115 45
s-45 68.333 -45 115v900c0 46.667 15 85 45 115s68.333 45 115 45s85 -15 115 -45s45 -68.333 45 -115z" />
    <glyph glyph-name="Imacron" unicode="&#x12a;" horiz-adv-x="620" 
d="M695 1885c0 -46.667 -15 -85 -45 -115s-68.333 -45 -115 -45h-450c-46.667 0 -85 15 -115 45s-45 68.333 -45 115s15 85 45 115s68.333 45 115 45h450c46.667 0 85 -15 115 -45s45 -68.333 45 -115zM470 160c0 -46.667 -15 -85 -45 -115s-68.333 -45 -115 -45
s-85 15 -115 45s-45 68.333 -45 115v1350c0 46.667 15 85 45 115s68.333 45 115 45s85 -15 115 -45s45 -68.333 45 -115v-1350z" />
    <glyph glyph-name="imacron" unicode="&#x12b;" horiz-adv-x="620" 
d="M645 1435c0 -46.667 -15 -85 -45 -115s-68.333 -45 -115 -45h-350c-46.667 0 -85 15 -115 45s-45 68.333 -45 115s15 85 45 115s68.333 45 115 45h350c46.667 0 85 -15 115 -45s45 -68.333 45 -115zM470 1060v-900c0 -46.667 -15 -85 -45 -115s-68.333 -45 -115 -45
s-85 15 -115 45s-45 68.333 -45 115v900c0 46.667 15 85 45 115s68.333 45 115 45s85 -15 115 -45s45 -68.333 45 -115z" />
    <glyph glyph-name="Ibreve" unicode="&#x12c;" horiz-adv-x="620" 
d="M699 1960c0 -57.333 -41.001 -119.998 -123.001 -187.998c-74 -61.333 -142.667 -99 -206 -113c66 -24 99 -73.667 99 -149v-1350c0 -46.667 -15 -85 -45 -115s-68.333 -45 -115 -45s-85 15 -115 45s-45 68.333 -45 115v1350c0 73.333 31.667 122.666 95 147.999
c-65.333 13.333 -133.666 50.666 -204.999 111.999c-78.667 67.333 -118 131 -118 191c0 43.333 16.667 81.166 50 113.499s72 48.5 116 48.5c39.333 0 85 -25.5 137 -76.5s79.667 -76.5 83 -76.5c5.33301 0 34 25.333 86 76s97.667 76 137 76
c44 0 83.167 -16.167 117.5 -48.5s51.5 -70.166 51.5 -113.499z" />
    <glyph glyph-name="ibreve" unicode="&#x12d;" horiz-adv-x="620" 
d="M699 1510c0 -57.333 -41 -119.998 -123 -187.998c-74 -61.333 -142.667 -99 -206 -113c66 -24 99 -73.667 99 -149v-900c0 -46.667 -15 -85 -45 -115s-68.333 -45 -115 -45s-85 15 -115 45s-45 68.333 -45 115v900c0 73.333 31.667 122.666 95 147.999
c-64 13.333 -132 50.666 -204 111.999c-79.333 68 -119 131.667 -119 191c0 43.333 16.667 81.166 50 113.499s72 48.5 116 48.5c39.333 0 85 -25.5 137 -76.5s79.667 -76.5 83 -76.5c5.33301 0 34 25.333 86 76s97.667 76 137 76c44 0 83.167 -16.167 117.5 -48.5
s51.5 -70.166 51.5 -113.499z" />
    <glyph glyph-name="Iogonek" unicode="&#x12e;" horiz-adv-x="620" 
d="M681 -173c0 -27.333 -7.66797 -55.3311 -23.001 -83.998c-31.333 -58.667 -78 -105.5 -140 -140.5s-126.667 -52.5 -194 -52.5c-106.667 0 -197.5 37.5 -272.5 112.5s-112.5 165.833 -112.5 272.5c0 75.333 20.333 144.666 61 207.999s95.334 110.666 164.001 141.999
v1225c0 46.667 15 85 45 115s68.333 45 115 45s85 -15 115 -45s45 -68.333 45 -115v-1350c0 -42.667 -16.167 -80 -48.5 -112s-69.833 -48 -112.5 -48s-64 -21.667 -64 -65s21.667 -65 65 -65c14 0 39 19.167 75 57.5s74.333 57.5 115 57.5c44 0 82.833 -15.5 116.5 -46.5
s50.5 -68.167 50.5 -111.5z" />
    <glyph glyph-name="iogonek" unicode="&#x12f;" horiz-adv-x="620" 
d="M523 1471c0 -54.667 -19.333 -101 -58 -139s-85.667 -57 -141 -57s-102.333 19 -141 57s-58 84.333 -58 139c0 55.333 19.333 102.333 58 141s85.667 58 141 58s102.333 -19.333 141 -58s58 -85.667 58 -141zM681 -173c0 -27.333 -7.66797 -55.3311 -23.001 -83.998
c-31.333 -58.667 -78 -105.5 -140 -140.5s-126.667 -52.5 -194 -52.5c-106.667 0 -197.5 37.5 -272.5 112.5s-112.5 165.833 -112.5 272.5c0 75.333 20.333 144.666 61 207.999s95.334 110.666 164.001 141.999v775c0 46.667 15 85 45 115s68.333 45 115 45s85 -15 115 -45
s45 -68.333 45 -115v-900c0 -42.667 -16.167 -80 -48.5 -112s-69.833 -48 -112.5 -48s-64 -21.667 -64 -65s21.667 -65 65 -65c14 0 39 19.167 75 57.5s74.333 57.5 115 57.5c44 0 82.833 -15.5 116.5 -46.5s50.5 -68.167 50.5 -111.5z" />
    <glyph glyph-name="Idotaccent" unicode="&#x130;" horiz-adv-x="619" 
d="M506 1898c0 -55.333 -19.167 -102.166 -57.5 -140.499s-85.166 -57.5 -140.499 -57.5s-102 19.167 -140 57.5s-57 85.166 -57 140.499s19 102 57 140s84.667 57 140 57s102.166 -19 140.499 -57s57.5 -84.667 57.5 -140zM468 160c0 -46.667 -15 -85 -45 -115
s-68.333 -45 -115 -45s-85 15 -115 45s-45 68.333 -45 115v1350c0 46.667 15 85 45 115s68.333 45 115 45s85 -15 115 -45s45 -68.333 45 -115v-1350z" />
    <glyph glyph-name="dotlessi" unicode="&#x131;" horiz-adv-x="620" 
d="M470 1060v-900c0 -46.667 -15 -85 -45 -115s-68.333 -45 -115 -45s-85 15 -115 45s-45 68.333 -45 115v900c0 46.667 15 85 45 115s68.333 45 115 45s85 -15 115 -45s45 -68.333 45 -115z" />
    <glyph glyph-name="IJ" unicode="&#x132;" horiz-adv-x="1240" 
d="M1090 1510v-1500c0 -127.333 -44.833 -235.833 -134.5 -325.5s-198.167 -134.5 -325.5 -134.5c-81.333 0 -158.333 20.667 -231 62c-74.667 42 -130.667 98.333 -168 169c-16 30.667 -24 58.667 -24 84c0 58.667 28.333 104 85 136c-42.667 4 -77 20.833 -103 50.5
s-39 65.834 -39 108.501v1350c0 46.667 15 85 45 115s68.333 45 115 45s85 -15 115 -45s45 -68.333 45 -115v-1350c0 -62.667 -25 -108.667 -75 -138c38 -4.66699 75.667 -31.167 113 -79.5s78 -72.5 122 -72.5c38 0 70.833 13.833 98.5 41.5s41.5 60.5 41.5 98.5v1500
c0 46.667 15 85 45 115s68.333 45 115 45s85 -15 115 -45s45 -68.333 45 -115z" />
    <glyph glyph-name="ij" unicode="&#x133;" horiz-adv-x="1240" 
d="M1129 1471c0 -54.667 -19.333 -101 -58 -139s-85.667 -57 -141 -57s-102.333 19 -141 57s-58 84.333 -58 139c0 55.333 19.333 102.333 58 141s85.667 58 141 58s102.333 -19.333 141 -58s58 -85.667 58 -141zM509 1471c0 -54.667 -19.333 -101 -58 -139
s-85.667 -57 -141 -57s-102.333 19 -141 57s-58 84.333 -58 139c0 55.333 19.333 102.333 58 141s85.667 58 141 58s102.333 -19.333 141 -58s58 -85.667 58 -141zM1090 -65c0 -106.667 -37.499 -197.499 -112.499 -272.499s-165.833 -112.5 -272.5 -112.5
c-82 0 -150.333 17.333 -205 52c-65.333 41.333 -98 100.666 -98 177.999c0 42.667 11.333 80.667 34 114c25.333 38 58.666 57 99.999 57c28 0 60.167 -13.5 96.5 -40.5s60.5 -40.5 72.5 -40.5c43.333 0 65 21.667 65 65v1125c0 46.667 15 85 45 115s68.333 45 115 45
s85 -15 115 -45s45 -68.333 45 -115v-1125zM470.001 1060v-900c0 -46.667 -15 -85 -45 -115s-68.333 -45 -115 -45s-85 15 -115 45s-45 68.333 -45 115v900c0 46.667 15 85 45 115s68.333 45 115 45s85 -15 115 -45s45 -68.333 45 -115z" />
    <glyph glyph-name="Jcircumflex" unicode="&#x134;" horiz-adv-x="747" 
d="M597 1814c0 -73.333 -33.668 -124.667 -101.001 -154c66 -24.667 99 -74.667 99 -150v-1500c0 -127.333 -44.833 -235.833 -134.5 -325.5s-198.167 -134.5 -325.5 -134.5c-81.333 0 -158.333 20.667 -231 62c-74.667 42.667 -130.667 99 -168 169c-16 30 -24 58 -24 84
c0 43.333 17 80.5 51 111.5s73 46.5 117 46.5c42 0 85.167 -25.5 129.5 -76.5s86.166 -76.5 125.499 -76.5c38 0 70.833 13.833 98.5 41.5s41.5 60.5 41.5 98.5v1500c0 76.667 33.667 126.667 101 150c-11.333 5.33301 -66.666 41.333 -165.999 108l-136 -91
c-30 -20 -60.667 -30 -92 -30c-43.333 0 -80.666 17 -111.999 51s-47 72.667 -47 116c0 53.333 24.333 96.333 73 129l213 142c38 25.333 71.667 38 101 38s63 -12.667 101 -38l213 -142c48.667 -32.667 73 -75.667 73 -129z" />
    <glyph glyph-name="jcircumflex" unicode="&#x135;" horiz-adv-x="620" 
d="M697 1364c0 -43.333 -15.6689 -82 -47.002 -116s-68.666 -51 -111.999 -51c-31.333 0 -62 10 -92 30l-136 91l-136 -91c-30 -20 -60.667 -30 -92 -30c-43.333 0 -80.666 17 -111.999 51s-47 72.667 -47 116c0 53.333 24.333 96.333 73 129l213 142
c38 25.333 71.667 38 101 38s63 -12.667 101 -38l213 -142c48.667 -32.667 73 -75.667 73 -129zM469.998 -65c0 -106.667 -37.499 -197.499 -112.499 -272.499s-165.833 -112.5 -272.5 -112.5c-82 0 -150.333 17.333 -205 52c-65.333 41.333 -98 100.666 -98 177.999
c0 42.667 11.333 80.667 34 114c25.333 38 58.666 57 99.999 57c28 0 60.167 -13.5 96.5 -40.5s60.5 -40.5 72.5 -40.5c43.333 0 65 21.667 65 65v1125c0 46.667 15 85 45 115s68.333 45 115 45s85 -15 115 -45s45 -68.333 45 -115v-1125z" />
    <glyph glyph-name="Kcedilla" unicode="&#x136;" horiz-adv-x="1523" 
d="M1473 161c0 -43.333 -16.5 -81.502 -49.5 -114.502s-71.167 -49.5 -114.5 -49.5c-41.333 0 -78.666 16.667 -111.999 50l-675 675c-33.333 33.333 -50 71 -50 113s16.667 79.667 50 113l675 675c33.333 33.333 70.666 50 111.999 50c43.333 0 81.5 -16.5 114.5 -49.5
s49.5 -71.167 49.5 -114.5c0 -41.333 -16.667 -78.666 -50 -111.999l-562 -562l562 -562c33.333 -33.333 50 -70.666 50 -111.999zM470 159.998c0 -46.667 -15 -85 -45 -115s-68.333 -45 -115 -45s-85 15 -115 45s-45 68.333 -45 115v1350c0 46.667 15 85 45 115
s68.333 45 115 45s85 -15 115 -45s45 -68.333 45 -115v-1350zM1070 -65.002c0 -106.667 -37.501 -197.5 -112.501 -272.5s-165.833 -112.5 -272.5 -112.5c-67.333 0 -131.666 17.333 -192.999 52c-63.333 35.333 -110.333 82.333 -141 141c-16 30.667 -24 58.667 -24 84
c0 43.333 17 80.5 51 111.5s73 46.5 117 46.5c40.667 0 79 -19.167 115 -57.5s61 -57.5 75 -57.5c43.333 0 65 21.667 65 65s-21.667 65 -65 65c-46.667 0 -85 15 -115 45s-45 68.333 -45 115s15 85 45 115s68.333 45 115 45c106.667 0 197.5 -37.5 272.5 -112.5
s112.5 -165.833 112.5 -272.5z" />
    <glyph glyph-name="kcedilla" unicode="&#x137;" horiz-adv-x="1298" 
d="M1248 161c0 -43.333 -16.501 -81.501 -49.501 -114.501s-71.167 -49.5 -114.5 -49.5c-42.667 0 -84 20.667 -124 62c13.333 -40 20 -81.333 20 -124c0 -106.667 -37.5 -197.5 -112.5 -272.5s-165.833 -112.5 -272.5 -112.5c-68 0 -132.667 17.5 -194 52.5
s-108 81.833 -140 140.5c-16 29.333 -24 57.333 -24 84c0 43.333 17 80.5 51 111.5s73 46.5 117 46.5c40.667 0 79 -19.167 115 -57.5s61 -57.5 75 -57.5c43.333 0 65 21.667 65 65c0 34.667 -26.667 56.667 -80 66c-63.333 11.333 -105.666 38.666 -126.999 81.999
c-28 -55.333 -75.667 -83 -143 -83c-46.667 0 -85 15 -115 45s-45 68.333 -45 115v1350c0 46.667 15 85 45 115s68.333 45 115 45s85 -15 115 -45s45 -68.333 45 -115v-1246c30.667 37.333 72.334 56 125.001 56c42.667 0 84 -7 124 -21l-197 198
c-33.333 33.333 -50 71 -50 113s16.667 79.667 50 113l450 450c33.333 33.333 70.666 50 111.999 50c43.333 0 81.5 -16.5 114.5 -49.5s49.5 -71.167 49.5 -114.5c0 -41.333 -16.667 -78.666 -50 -111.999l-337 -337l337 -337c33.333 -33.333 50 -70.666 50 -111.999z" />
    <glyph glyph-name="kgreenlandic" unicode="&#x138;" horiz-adv-x="1298" 
d="M1248 161c0 -43.333 -16.5 -81.502 -49.5 -114.502s-71.167 -49.5 -114.5 -49.5c-41.333 0 -78.666 16.667 -111.999 50l-450 450c-33.333 33.333 -50 71 -50 113s16.667 79.667 50 113l450 450c33.333 33.333 70.666 50 111.999 50c43.333 0 81.5 -16.5 114.5 -49.5
s49.5 -71.167 49.5 -114.5c0 -41.333 -16.667 -78.666 -50 -111.999l-337 -337l337 -337c33.333 -33.333 50 -70.666 50 -111.999zM470 159.998c0 -46.667 -15 -85 -45 -115s-68.333 -45 -115 -45s-85 15 -115 45s-45 68.333 -45 115v900c0 46.667 15 85 45 115
s68.333 45 115 45s85 -15 115 -45s45 -68.333 45 -115v-900z" />
    <glyph glyph-name="Lacute" unicode="&#x139;" horiz-adv-x="1270" 
d="M997 1955c0 -62 -30 -108 -90 -138l-300 -150c-25.333 -12.667 -51 -19 -77 -19c-43.333 0 -80.333 16.833 -111 50.5s-46 72.5 -46 116.5c0 62 30 108 90 138l300 150c25.333 12.667 51 19 77 19c43.333 0 80.333 -16.833 111 -50.5s46 -72.5 46 -116.5zM1220 160
c0 -46.667 -15 -85 -45 -115s-68.333 -45 -115 -45h-750c-42.667 0 -80 16 -112 48s-48 69.333 -48 112v1350c0 46.667 15 85 45 115s68.333 45 115 45s85 -15 115 -45s45 -68.333 45 -115v-1190h590c46.667 0 85 -15 115 -45s45 -68.333 45 -115z" />
    <glyph glyph-name="lacute" unicode="&#x13a;" horiz-adv-x="695" 
d="M722 1955c0 -62 -30 -108 -90 -138l-314 -156c68 -24 102 -74.333 102 -151v-1125c0 -43.333 21.667 -65 65 -65c46.667 0 85 -15 115 -45s45 -68.333 45 -115s-15 -85 -45 -115s-68.333 -45 -115 -45c-106.667 0 -197.5 37.5 -272.5 112.5s-112.5 165.833 -112.5 272.5
v1125c0 75.333 33 125 99 149c-67.333 29.333 -101 81.333 -101 156c0 62 30 108 90 138l300 150c25.333 12.667 51 19 77 19c43.333 0 80.333 -16.833 111 -50.5s46 -72.5 46 -116.5z" />
    <glyph glyph-name="Lcedilla" unicode="&#x13b;" horiz-adv-x="1270" 
d="M1220 160c0 -46 -14.5 -83.833 -43.5 -113.5s-66.5 -45.167 -112.5 -46.5c4 -21.333 6 -43 6 -65c0 -106.667 -37.5 -197.5 -112.5 -272.5s-165.833 -112.5 -272.5 -112.5c-68 0 -132.667 17.5 -194 52.5s-108 81.833 -140 140.5c-16 29.333 -24 57.333 -24 84
c0 44 17 81.333 51 112s73 46 117 46c40.667 0 79 -19.167 115 -57.5s61 -57.5 75 -57.5c43.333 0 65 21.667 65 65s-21.667 65 -65 65h-375c-42.667 0 -80 16 -112 48s-48 69.333 -48 112v1350c0 46.667 15 85 45 115s68.333 45 115 45s85 -15 115 -45s45 -68.333 45 -115
v-1190h590c46.667 0 85 -15 115 -45s45 -68.333 45 -115z" />
    <glyph glyph-name="lcedilla" unicode="&#x13c;" horiz-adv-x="870" 
d="M870 -65c0 -106.667 -37.501 -197.5 -112.501 -272.5s-165.833 -112.5 -272.5 -112.5c-67.333 0 -131.666 17.333 -192.999 52c-63.333 35.333 -110.333 82.333 -141 141c-16 30.667 -24 58.667 -24 84c0 44 17 81.333 51 112s73 46 117 46
c40.667 0 79 -19.167 115 -57.5s61 -57.5 75 -57.5c43.333 0 65 21.667 65 65s-21.667 65 -65 65c-106.667 0 -197.5 37.5 -272.5 112.5s-112.5 165.833 -112.5 272.5v1125c0 46.667 15 85 45 115s68.333 45 115 45s85 -15 115 -45s45 -68.333 45 -115v-1125
c0 -43.333 21.667 -65 65 -65c106.667 0 197.5 -37.5 272.5 -112.5s112.5 -165.833 112.5 -272.5z" />
    <glyph glyph-name="Lcaron" unicode="&#x13d;" horiz-adv-x="1270" 
d="M1072 1956c0 -53.333 -24.3311 -96.333 -72.998 -129l-213 -142c-38 -25.333 -71.667 -38 -101 -38s-63 12.667 -101 38l-213 142c-48.667 32.667 -73 75.667 -73 129c0 43.333 15.667 82 47 116s68.666 51 111.999 51c31.333 0 62 -10 92 -30l136 -91l136 91
c30 20 60.667 30 92 30c43.333 0 80.666 -17 111.999 -51s47 -72.667 47 -116zM1220 160c0 -46.667 -15 -85 -45 -115s-68.333 -45 -115 -45h-750c-42.667 0 -80 16 -112 48s-48 69.333 -48 112v1350c0 46.667 15 85 45 115s68.333 45 115 45s85 -15 115 -45
s45 -68.333 45 -115v-1190h590c46.667 0 85 -15 115 -45s45 -68.333 45 -115z" />
    <glyph glyph-name="lcaron" unicode="&#x13e;" horiz-adv-x="695" 
d="M647 1956c0 -53.333 -24.3311 -96.332 -72.998 -128.999l-213 -142c-12 -8 -25.333 -16.333 -40 -25c66 -24.667 99 -74.667 99 -150v-1125c0 -43.333 21.667 -65 65 -65c46.667 0 85 -15 115 -45s45 -68.333 45 -115s-15 -85 -45 -115s-68.333 -45 -115 -45
c-106.667 0 -197.5 37.5 -272.5 112.5s-112.5 165.833 -112.5 272.5v1125c0 75.333 33 125.333 99 150c-6.66699 3.33301 -20 11.666 -40 24.999l-213 142c-48.667 32.667 -73 75.667 -73 129c0 43.333 15.667 82 47 116s68.666 51 111.999 51c31.333 0 62 -10 92 -30
l136 -91l136 91c30 20 60.667 30 92 30c43.333 0 80.666 -17 111.999 -51s47 -72.667 47 -116z" />
    <glyph glyph-name="Ldot" unicode="&#x13f;" horiz-adv-x="1270" 
d="M958 835c0 -55.333 -19.167 -102.166 -57.5 -140.499s-85.166 -57.5 -140.499 -57.5s-102 19.167 -140 57.5s-57 85.166 -57 140.499s19 102 57 140s84.667 57 140 57s102.166 -19 140.499 -57s57.5 -84.667 57.5 -140zM1220 160c0 -46.667 -15 -85 -45 -115
s-68.333 -45 -115 -45h-750c-42.667 0 -80 16 -112 48s-48 69.333 -48 112v1350c0 46.667 15 85 45 115s68.333 45 115 45s85 -15 115 -45s45 -68.333 45 -115v-1190h590c46.667 0 85 -15 115 -45s45 -68.333 45 -115z" />
    <glyph glyph-name="ldot" unicode="&#x140;" horiz-adv-x="820" 
d="M820 835c0 -55.333 -19.167 -102.166 -57.5 -140.499s-85.166 -57.5 -140.499 -57.5s-102 19.167 -140 57.5s-57 85.166 -57 140.499s19 102 57 140s84.667 57 140 57s102.166 -19 140.499 -57s57.5 -84.667 57.5 -140zM645 160c0 -46.667 -15 -85 -45 -115
s-68.333 -45 -115 -45c-106.667 0 -197.5 37.5 -272.5 112.5s-112.5 165.833 -112.5 272.5v1125c0 46.667 15 85 45 115s68.333 45 115 45s85 -15 115 -45s45 -68.333 45 -115v-1125c0 -43.333 21.667 -65 65 -65c46.667 0 85 -15 115 -45s45 -68.333 45 -115z" />
    <glyph glyph-name="Lslash" unicode="&#x141;" horiz-adv-x="1346" 
d="M1296 160c0 -46.667 -15.001 -85 -45.001 -115s-68.333 -45 -115 -45h-750c-42.667 0 -80 16 -112 48s-48 69.333 -48 112v453c-27.333 -10 -51 -15 -71 -15c-44 0 -80.833 16.667 -110.5 50s-44.5 72.333 -44.5 117c0 57.333 25.333 100.666 76 129.999
c16 9.33301 66 27.666 150 54.999v560c0 46.667 15 85 45 115s68.333 45 115 45s85 -15 115 -45s45 -68.333 45 -115v-453c26.667 10 50.334 15 71.001 15c44 0 80.833 -16.667 110.5 -50s44.5 -72.333 44.5 -117c0 -57.333 -25.333 -100.666 -76 -129.999
c-16 -9.33301 -66 -27.666 -150 -54.999v-400h590c46.667 0 85 -15 115 -45s45 -68.333 45 -115z" />
    <glyph glyph-name="lslash" unicode="&#x142;" horiz-adv-x="822" 
d="M772 905c0 -57.333 -25.333 -100.666 -76 -129.999c-15.333 -8.66699 -65.333 -27 -150 -55v-335c0 -43.333 21.667 -65 65 -65c46.667 0 85 -15 115 -45s45 -68.333 45 -115s-15 -85 -45 -115s-68.333 -45 -115 -45c-106.667 0 -197.5 37.5 -272.5 112.5
s-112.5 165.833 -112.5 272.5v228c-26.667 -10 -50.334 -15 -71.001 -15c-44 0 -80.833 16.667 -110.5 50s-44.5 72.333 -44.5 117c0 57.333 25.333 100.666 76 129.999c15.333 8.66699 65.333 27 150 55v560c0 46.667 15 85 45 115s68.333 45 115 45s85 -15 115 -45
s45 -68.333 45 -115v-453c26.667 10 50.334 15 71.001 15c44 0 80.833 -16.667 110.5 -50s44.5 -72.333 44.5 -117z" />
    <glyph glyph-name="Nacute" unicode="&#x143;" horiz-adv-x="1676" 
d="M1150 1955c0 -62 -30.334 -108 -91.001 -138l-300 -150c-25.333 -12.667 -50.666 -19 -75.999 -19c-43.333 0 -80.333 16.833 -111 50.5s-46 72.5 -46 116.5c0 62 30 108 90 138l300 150c25.333 12.667 51 19 77 19c43.333 0 80.333 -16.833 111 -50.5
s46 -72.5 46 -116.5zM1526 159c0 -44.667 -16.5 -82.834 -49.5 -114.501s-72.167 -47.5 -117.5 -47.5c-48 0 -94 28.333 -138 85l-748 962v-884c0 -46.667 -15 -85 -45 -115s-68.333 -45 -115 -45s-85 15 -115 45s-45 68.333 -45 115v1323c0 3.33301 -0.5 8 -1.5 14
s-1.5 10.667 -1.5 14c0 44.667 16.5 82.834 49.5 114.501s71.833 47.5 116.5 47.5c48.667 0 95 -28.333 139 -85l748 -962v884c0 46.667 15 85 45 115s68.333 45 115 45s85 -15 115 -45s45 -68.333 45 -115v-1323c0 -3.33301 0.5 -8 1.5 -14s1.5 -10.667 1.5 -14z" />
    <glyph glyph-name="nacute" unicode="&#x144;" horiz-adv-x="1170" 
d="M1070 160c0 -46.667 -15.002 -85.001 -45.002 -115.001s-68.333 -45 -115 -45s-85 15 -115 45s-45 68.333 -45 115v600c0 38 -13.833 70.833 -41.5 98.5s-60.5 41.5 -98.5 41.5s-70.833 -13.833 -98.5 -41.5s-41.5 -60.5 -41.5 -98.5v-600c0 -46.667 -15 -85 -45 -115
s-68.333 -45 -115 -45s-85 15 -115 45s-45 68.333 -45 115v900c0 46.667 15 85 45 115s68.333 45 115 45c44 0 81 -13.667 111 -41c16 7.33301 32.667 14 50 20c-5.33301 -0.666992 -10.666 -1 -15.999 -1c-43.333 0 -80.333 16.833 -111 50.5s-46 72.5 -46 116.5
c0 62 30 108 90 138l300 150c25.333 12.667 51 19 77 19c43.333 0 80.333 -16.833 111 -50.5s46 -72.5 46 -116.5c0 -62 -30 -108 -90 -138l-314 -156c30.667 6 61.334 9 92.001 9c127.333 0 235.833 -44.667 325.5 -134s134.5 -197.666 134.5 -324.999v-601z" />
    <glyph glyph-name="Ncedilla" unicode="&#x145;" horiz-adv-x="1676" 
d="M1526 159c0 -44.667 -16.5 -82.834 -49.5 -114.501s-72.167 -47.5 -117.5 -47.5c-48 0 -94 28.333 -138 85l-748 962v-884c0 -46.667 -15 -85 -45 -115s-68.333 -45 -115 -45s-85 15 -115 45s-45 68.333 -45 115v1323c0 3.33301 -0.5 8 -1.5 14s-1.5 10.667 -1.5 14
c0 44.667 16.5 82.834 49.5 114.501s71.833 47.5 116.5 47.5c48.667 0 95 -28.333 139 -85l748 -962v884c0 46.667 15 85 45 115s68.333 45 115 45s85 -15 115 -45s45 -68.333 45 -115v-1323c0 -3.33301 0.5 -8 1.5 -14s1.5 -10.667 1.5 -14zM1223 -65
c0 -106.667 -37.501 -197.5 -112.501 -272.5s-165.833 -112.5 -272.5 -112.5c-67.333 0 -131.666 17.333 -192.999 52c-64 35.333 -111 82.333 -141 141c-16 30.667 -24 58.667 -24 84c0 44 17 81.333 51 112s73 46 117 46c40 0 78.167 -19.167 114.5 -57.5
s61.5 -57.5 75.5 -57.5c43.333 0 65 21.667 65 65s-21.667 65 -65 65c-46.667 0 -85 15 -115 45s-45 68.333 -45 115s15 85 45 115s68.333 45 115 45c106.667 0 197.5 -37.5 272.5 -112.5s112.5 -165.833 112.5 -272.5z" />
    <glyph glyph-name="ncedilla" unicode="&#x146;" horiz-adv-x="1170" 
d="M1070 160c0 -68 -27.999 -115.669 -83.999 -143.002c6 -26.667 9 -54 9 -82c0 -106.667 -37.5 -197.5 -112.5 -272.5s-165.833 -112.5 -272.5 -112.5c-68 0 -132.333 17.333 -193 52c-62.667 35.333 -109.667 82.333 -141 141c-16 30 -24 58 -24 84
c0 44 17 81.333 51 112s73 46 117 46c40.667 0 79 -19.167 115 -57.5s61 -57.5 75 -57.5c43.333 0 65 21.667 65 65c0 34.667 -29 57.334 -87 68.001c-66.667 12 -109.334 44.333 -128.001 97c-24 -66.667 -74 -100 -150 -100c-46.667 0 -85 15 -115 45s-45 68.333 -45 115
v900c0 46.667 15 85 45 115s68.333 45 115 45c44 0 81 -13.667 111 -41c60 27.333 123 41 189 41c127.333 0 235.833 -44.667 325.5 -134s134.5 -197.666 134.5 -324.999v-601zM750.001 759.998c0 38 -13.835 70.833 -41.502 98.5s-60.5 41.5 -98.5 41.5
s-70.833 -13.833 -98.5 -41.5s-41.5 -60.5 -41.5 -98.5v-518c28.667 52 75.334 78 140.001 78c48.667 0 95.334 -8.66699 140.001 -26v466z" />
    <glyph glyph-name="Ncaron" unicode="&#x147;" horiz-adv-x="1676" 
d="M1225 1956c0 -53.333 -24.332 -96.333 -72.999 -129l-213 -142c-38 -25.333 -71.667 -38 -101 -38s-63 12.667 -101 38l-213 142c-48.667 32.667 -73 75.667 -73 129c0 43.333 15.667 82 47 116s68.666 51 111.999 51c31.333 0 62 -10 92 -30l136 -91l136 91
c30 20 60.333 30 91 30c43.333 0 80.833 -16.833 112.5 -50.5s47.5 -72.5 47.5 -116.5zM1526 159c0 -44.667 -16.5 -82.834 -49.5 -114.501s-72.167 -47.5 -117.5 -47.5c-48 0 -94 28.333 -138 85l-748 962v-884c0 -46.667 -15 -85 -45 -115s-68.333 -45 -115 -45
s-85 15 -115 45s-45 68.333 -45 115v1323c0 3.33301 -0.5 8 -1.5 14s-1.5 10.667 -1.5 14c0 44.667 16.5 82.834 49.5 114.501s71.833 47.5 116.5 47.5c48.667 0 95 -28.333 139 -85l748 -962v884c0 46.667 15 85 45 115s68.333 45 115 45s85 -15 115 -45
s45 -68.333 45 -115v-1323c0 -3.33301 0.5 -8 1.5 -14s1.5 -10.667 1.5 -14z" />
    <glyph glyph-name="ncaron" unicode="&#x148;" horiz-adv-x="1170" 
d="M1070 160c0 -46.667 -14.9971 -85 -44.9971 -115s-68.333 -45 -115 -45s-85 15 -115 45s-45 68.333 -45 115v600c0 38 -13.833 70.833 -41.5 98.5s-60.5 41.5 -98.5 41.5s-70.833 -13.833 -98.5 -41.5s-41.5 -60.5 -41.5 -98.5v-600c0 -46.667 -15 -85 -45 -115
s-68.333 -45 -115 -45s-85 15 -115 45s-45 68.333 -45 115v900c0 46.667 15 85 45 115s68.333 45 115 45c44 0 81 -13.667 111 -41c37.333 17.333 76.666 29.333 117.999 36l-30 20l-213 142c-48.667 32.667 -73 75.667 -73 129c0 43.333 15.667 82 47 116
s68.666 51 111.999 51c31.333 0 62 -10 92 -30l136 -91l136 91c30 20 60.667 30 92 30c43.333 0 80.666 -17 111.999 -51s47 -72.667 47 -116c0 -53.333 -24.333 -96.333 -73 -129l-213 -142c-5.33301 -4 -15.333 -10.667 -30 -20c112 -17.333 204.833 -69 278.5 -155
s110.5 -185.667 110.5 -299v-601z" />
    <glyph glyph-name="napostrophe" unicode="&#x149;" horiz-adv-x="1472" 
d="M524 1516c0 -20 -4.66699 -41.667 -14 -65l-150 -375c-27.333 -68 -75 -102 -143 -102c-44 0 -82.833 14.833 -116.5 44.5s-50.5 66.5 -50.5 110.5c0 22 4.33301 43.667 13 65l150 375c27.333 68 75.333 102 144 102c44 0 82.833 -14.833 116.5 -44.5
s50.5 -66.5 50.5 -110.5zM1372 160c0 -46.667 -15 -85.001 -45 -115.001s-68.333 -45 -115 -45s-85 15 -115 45s-45 68.333 -45 115v600c0 38 -13.833 70.833 -41.5 98.5s-60.5 41.5 -98.5 41.5s-70.833 -13.833 -98.5 -41.5s-41.5 -60.5 -41.5 -98.5v-600
c0 -46.667 -15 -85 -45 -115s-68.333 -45 -115 -45s-85 15 -115 45s-45 68.333 -45 115v900c0 46.667 15 85 45 115s68.333 45 115 45c44 0 81 -13.667 111 -41c59.333 27.333 122.333 41 189 41c127.333 0 235.833 -44.667 325.5 -134s134.5 -197.666 134.5 -324.999v-601z
" />
    <glyph glyph-name="Eng" unicode="&#x14a;" horiz-adv-x="1676" 
d="M1523 10c0 -127.333 -44.833 -235.835 -134.5 -325.502s-198.167 -134.5 -325.5 -134.5c-81.333 0 -158.666 20.833 -231.999 62.5s-129 97.834 -167 168.501c-16 29.333 -24 57.333 -24 84c0 43.333 17 80.5 51 111.5s73 46.5 117 46.5c42 0 85.167 -25.5 129.5 -76.5
s86.166 -76.5 125.499 -76.5c38 0 70.833 13.833 98.5 41.5s41.5 60.5 41.5 98.5v95l-730 939v-884c0 -46.667 -15 -85 -45 -115s-68.333 -45 -115 -45s-85 15 -115 45s-45 68.333 -45 115v1323c0 3.33301 -0.5 8 -1.5 14s-1.5 10.667 -1.5 14
c0 44.667 16.5 82.834 49.5 114.501s71.833 47.5 116.5 47.5c48.667 0 95 -28.333 139 -85l748 -962v884c0 46.667 15 85 45 115s68.333 45 115 45s85 -15 115 -45s45 -68.333 45 -115v-1500z" />
    <glyph glyph-name="eng" unicode="&#x14b;" horiz-adv-x="1170" 
d="M1070 -65c0 -106.667 -37.499 -197.5 -112.499 -272.5s-165.833 -112.5 -272.5 -112.5c-82 0 -150.333 17.333 -205 52c-65.333 41.333 -98 100.666 -98 177.999c0 42.667 11.333 80.667 34 114c25.333 38 58.666 57 99.999 57c28 0 60.167 -13.5 96.5 -40.5
s60.5 -40.5 72.5 -40.5c43.333 0 65 21.667 65 65v825c0 38 -13.833 70.833 -41.5 98.5s-60.5 41.5 -98.5 41.5s-70.833 -13.833 -98.5 -41.5s-41.5 -60.5 -41.5 -98.5v-600c0 -46.667 -15 -85 -45 -115s-68.333 -45 -115 -45s-85 15 -115 45s-45 68.333 -45 115v900
c0 46.667 15 85 45 115s68.333 45 115 45c44 0 81 -13.667 111 -41c60 27.333 123 41 189 41c127.333 0 235.833 -44.667 325.5 -134s134.5 -197.666 134.5 -324.999v-826z" />
    <glyph glyph-name="Omacron" unicode="&#x14c;" horiz-adv-x="1770" 
d="M1720 1885c0 -46.667 -15 -85 -45 -115s-68.333 -45 -115 -45h-1350c-46.667 0 -85 15 -115 45s-45 68.333 -45 115s15 85 45 115s68.333 45 115 45h1350c46.667 0 85 -15 115 -45s45 -68.333 45 -115zM1720 835c0 -231.333 -81.333 -428.333 -244 -591
s-359.667 -244 -591 -244s-428.333 81.333 -591 244s-244 359.667 -244 591s81.333 428.333 244 591s359.667 244 591 244s428.333 -81.333 591 -244s244 -359.667 244 -591zM1400 835c0 142.667 -50.167 264.167 -150.5 364.5s-221.833 150.5 -364.5 150.5
s-264.167 -50.167 -364.5 -150.5s-150.5 -221.833 -150.5 -364.5s50.167 -264.167 150.5 -364.5s221.833 -150.5 364.5 -150.5s264.167 50.167 364.5 150.5s150.5 221.833 150.5 364.5z" />
    <glyph glyph-name="omacron" unicode="&#x14d;" 
d="M1270 1435c0 -46.667 -15 -85 -45 -115s-68.333 -45 -115 -45h-900c-46.667 0 -85 15 -115 45s-45 68.333 -45 115s15 85 45 115s68.333 45 115 45h900c46.667 0 85 -15 115 -45s45 -68.333 45 -115zM1270 610c0 -169.333 -59.333 -313.333 -178 -432
s-262.667 -178 -432 -178s-313.333 59.333 -432 178s-178 262.667 -178 432s59.333 313.333 178 432s262.667 178 432 178s313.333 -59.333 432 -178s178 -262.667 178 -432zM950 610c0 80.667 -28.167 149.167 -84.5 205.5s-124.833 84.5 -205.5 84.5
s-149.167 -28.167 -205.5 -84.5s-84.5 -124.833 -84.5 -205.5s28.167 -149.167 84.5 -205.5s124.833 -84.5 205.5 -84.5s149.167 28.167 205.5 84.5s84.5 124.833 84.5 205.5z" />
    <glyph glyph-name="Obreve" unicode="&#x14e;" horiz-adv-x="1770" 
d="M1720 835c0 -231.333 -81.332 -428.329 -243.999 -590.996s-359.667 -244 -591 -244s-428.333 81.333 -591 244s-244 359.667 -244 591c0 213.333 70.667 399.166 212 557.499s318 249.166 530 272.499c-60.667 18.667 -123 57 -187 115
c-72 65.333 -108 125.666 -108 180.999c0 43.333 16.667 81.166 50 113.499s72 48.5 116 48.5c39.333 0 85 -25.5 137 -76.5s79.667 -76.5 83 -76.5c5.33301 0 34.166 25.333 86.499 76s97.833 76 136.5 76c44 0 83.167 -16.167 117.5 -48.5s51.5 -70.166 51.5 -113.499
c0 -53.333 -38 -113 -114 -179c-67.333 -58 -131 -96.333 -191 -115c214 -22 392.5 -112.333 535.5 -271s214.5 -345.334 214.5 -560.001zM1400 835.004c0 142.667 -50.167 264.167 -150.5 364.5s-221.833 150.5 -364.5 150.5s-264.167 -50.167 -364.5 -150.5
s-150.5 -221.833 -150.5 -364.5s50.167 -264.167 150.5 -364.5s221.833 -150.5 364.5 -150.5s264.167 50.167 364.5 150.5s150.5 221.833 150.5 364.5z" />
    <glyph glyph-name="obreve" unicode="&#x14f;" 
d="M1270 610c0 -169.333 -59.333 -313.332 -178 -431.999s-262.667 -178 -432 -178s-313.333 59.333 -432 178s-178 262.667 -178 432c0 152 49.333 285.167 148 399.5s223.334 182.5 374.001 204.5c-61.333 17.333 -124.666 55.333 -189.999 114
c-73.333 66 -110 127 -110 183c0 43.333 16.667 81.166 50 113.499s72 48.5 116 48.5c38.667 0 84.167 -25.5 136.5 -76.5s80.166 -76.5 83.499 -76.5c5.33301 0 34.166 25.333 86.499 76s97.833 76 136.5 76c44 0 83.167 -16.167 117.5 -48.5s51.5 -70.166 51.5 -113.499
c0 -54.667 -38.333 -115 -115 -181c-66.667 -58 -131 -96 -193 -114c152 -20.667 278 -88.334 378 -203.001s150 -248.667 150 -402zM950 610.001c0 80.667 -28.167 149.167 -84.5 205.5s-124.833 84.5 -205.5 84.5s-149.167 -28.167 -205.5 -84.5
s-84.5 -124.833 -84.5 -205.5s28.167 -149.167 84.5 -205.5s124.833 -84.5 205.5 -84.5s149.167 28.167 205.5 84.5s84.5 124.833 84.5 205.5z" />
    </font>
</defs>
</svg>
